<?xml version="1.0" encoding="UTF-8"?>
<!DOCTYPE svg PUBLIC "-//W3C//DTD SVG 1.1//EN" "http://www.w3.org/Graphics/SVG/1.1/DTD/svg11.dtd">
<!-- Creator: CorelDRAW 2019 (64-Bit) -->
<svg xmlns="http://www.w3.org/2000/svg" xml:space="preserve" width="94.327mm" height="107.342mm" version="1.1" style="shape-rendering:geometricPrecision; text-rendering:geometricPrecision; image-rendering:optimizeQuality; fill-rule:evenodd; clip-rule:evenodd"
viewBox="0 0 9432.7 10734.2"
 xmlns:xlink="http://www.w3.org/1999/xlink">
 <defs>
  <style type="text/css">
   <![CDATA[
    .fil1 {fill:#ED721D;fill-rule:nonzero}
    .fil3 {fill:#E31E24;fill-rule:nonzero}
    .fil4 {fill:#FACA32;fill-rule:nonzero}
    .fil2 {fill:#C5263B;fill-rule:nonzero}
    .fil5 {fill:#1A68AB;fill-rule:nonzero}
    .fil0 {fill:#005EC4;fill-rule:nonzero}
   ]]>
  </style>
 </defs>
 <g id="Слой_x0020_1">
  <metadata id="CorelCorpID_0Corel-Layer"/>
  <path class="fil0" d="M7485.66 6492.23c-228.18,-28.22 -460.01,-29.86 -689.38,-6.92 -810.41,81.09 -1496.3,517.38 -2276.75,719.79 -295.48,77.08 -634.37,126.36 -944.47,157.55 -311.53,31.85 -618.19,10.77 -926.05,-21.26 -305.65,-30.83 -611.28,-94.11 -905.77,-203.02 -295.28,-106.08 -582.27,-249.67 -844.47,-445.4 187.38,272.61 454.47,486.79 741.47,661.38 291.44,170.77 612.88,296.5 946.72,369.72 332.59,71.8 682.25,97.98 1016.7,78.91 336.03,-16 672.31,-57.82 1005.33,-139.36 425.49,-100.56 821.75,-280.67 1210.97,-476.16 575.76,-290.03 1158.88,-480.27 1809.08,-495.3 113.16,-3.03 226.73,-3.03 339.51,7.73 54.53,5.07 202,30.6 334.83,43.61 -159,-83.52 -618.99,-226.76 -817.72,-251.27z"/>
  <path class="fil1" d="M5229.97 4032.73c676.78,675.54 1375.68,1289.87 1244.07,2217.73 -36.73,6.08 -74.25,12.97 -111.57,20.68 426.13,-87.2 803.94,-73.79 1144.45,-1.03 94.12,-166.29 174.85,-335.41 239.13,-510.86 131.83,-360.17 185.36,-707.41 152.94,-1049.74 -31.05,-314.6 -134.51,-624.83 -317.85,-935.96 -221.43,-375.4 -495.44,-725.28 -763.58,-1076.34 -278.03,-364.28 -570.27,-727.75 -759.91,-1135.59 -216.41,-465.64 -202.82,-892.36 -98.36,-1376.26 17.83,-83.78 17.83,-83.78 46.24,-181.94 -319.04,211.14 -611.66,454.31 -859.31,730.73 -122.72,138.71 -232.82,286.37 -326.31,441.73 -93.32,155.35 -167.54,320.03 -221.07,489.58 -99.81,316.6 -130.82,659.34 -63.69,983.08 77.26,370.75 462.01,1133.69 462.61,1147.1 32.66,34.28 65.3,68.34 98.37,102.01 36.92,36.11 82.35,81.11 133.84,135.08z"/>
  <path class="fil2" d="M4168.26 7038.6c-7.7,2.02 -15,3.42 -22.51,5.44 7.51,-2.02 14.81,-3.63 22.51,-5.44z"/>
  <path class="fil2" d="M1968.77 6634.2c111.57,104.44 231.01,202.21 352.68,295.69 58.03,44.41 116.01,87.39 174.02,130.61 354.91,92.24 722.02,128.97 1163.13,74.22 -28.6,-88.84 -46.85,-180.3 -50.09,-276.41 -13.78,-412.54 172.39,-677.43 -147.86,-1249.96 -14.2,-17.83 -27.99,-36.11 -42.18,-53.92 -749.19,-601.16 -1474.85,-1236.14 -1510.72,-2102.16 -176.05,231.6 -320.26,556.51 -435.47,816.52 -113.96,259.8 -192.66,534.83 -206.23,817.14 -16.85,282.1 39.53,568.87 163.04,834.35 124.74,265.48 317.4,504.57 539.68,713.92z"/>
  <path class="fil2" d="M4302.33 7003.5l-0.22 -0.21c-11.34,3.04 -22.51,6.08 -33.86,9.12 11.56,-3.04 22.52,-5.65 34.08,-8.91z"/>
  <path class="fil3" d="M4808.55 6841.45c-1.63,0.8 -3.28,1.21 -4.87,1.83l0 0.19c135.06,-48.45 277.03,-103.82 425.09,-164.89 561.98,-1155.18 349.02,-1618.83 -231,-2882.93 -685.72,-722.43 -1240.19,-1558.06 -703.34,-2929.45 -329.19,301.16 -653.06,619.79 -946.11,946.7 -325.12,362.42 -636.44,808.06 -781.24,1249.58 -201.01,613.71 20.47,1300.61 373.76,1842.93 145.64,223.1 311.53,436.05 477.64,649.02 134.67,107.88 269.94,214.75 401.98,321.68 388.77,313.52 750.57,625.22 988.09,965.34z"/>
  <path class="fil4" d="M5228.77 6678.98c23.1,-9.51 47.24,-19.85 70.77,-29.79 -23.72,9.94 -47.47,19.88 -70.77,29.39l0 0.4z"/>
  <path class="fil4" d="M5096.14 3897.66c-33.08,-33.66 -65.71,-67.76 -98.38,-102.02 1.4,2.62 3.26,5.07 4.44,7.71 11.37,14.4 45.25,46.66 93.94,94.31z"/>
  <path class="fil4" d="M5228.77 6678.59c23.3,-9.51 47.05,-19.45 70.77,-29.39 32.24,-13.81 64.1,-26.79 96.97,-40.77 59.61,-25.56 119.85,-51.73 181.49,-79.5 210.92,-94.52 411.31,-164.67 602.35,-214.98 59.05,-15.41 117.42,-29.19 174.83,-41.18 2.42,-0.43 4.87,-1.02 7.29,-1.63 37.33,-7.71 74.85,-14.6 111.57,-20.69 131.61,-927.85 -567.28,-1542.18 -1244.06,-2217.72 -44.81,-44.84 -89.43,-89.63 -133.84,-135.09 -48.69,-47.61 -82.57,-79.9 -93.93,-94.28 -1.19,-2.66 -3.05,-5.09 -4.45,-7.72 580.05,1264.1 793.01,1727.75 231.01,2882.95z"/>
  <path class="fil1" d="M3659 7135.11c152.11,-18.45 313.98,-49.07 486.76,-91.05 -172.78,41.98 -334.65,71.77 -487.16,90.65 0.4,0.22 0.4,0.4 0.4,0.4z"/>
  <path class="fil1" d="M4268.25 7012.41c-33.47,8.94 -67.13,17.86 -99.99,26.2 32.86,-8.34 66.52,-17.26 99.99,-26.2z"/>
  <path class="fil1" d="M3820.45 5876.1c-124.53,-100.83 -252.31,-201.6 -379.47,-303.61 7.32,12.15 12.98,23.7 19.68,35.85 320.23,572.53 134.06,837.44 147.85,1249.95 3.23,96.12 21.49,187.6 50.09,276.42 152.51,-18.88 314.38,-48.67 487.16,-90.65 7.51,-2.04 14.79,-3.45 22.5,-5.47 32.85,-8.32 66.54,-17.24 99.99,-26.17 11.36,-3.05 22.51,-6.09 33.87,-9.13 157.38,-43.41 323.67,-96.12 501.55,-160 -236.69,-341.74 -596.45,-654.69 -983.22,-967.19z"/>
  <path class="fil1" d="M3820.45 5876.1c386.77,312.5 746.53,625.45 983.22,967.19 1.61,-0.64 3.23,-1.02 4.87,-1.85 -237.49,-340.1 -599.3,-651.82 -988.09,-965.34z"/>
  <polygon class="fil5" points="6220.67,9924.55 7048.32,9702.67 6945.12,9317.76 6220.67,9511.63 6220.67,8899.55 7346.86,8899.55 7346.86,8500.62 6220.67,8500.62 5766.15,8500.62 5766.15,8899.55 5766.15,10338.08 5766.15,10737.62 6220.67,10737.62 7376.24,10737.62 7376.24,10338.08 6220.67,10338.08 "/>
  <polygon class="fil5" points="4407.32,8500.6 3715.73,8500.6 3715.73,8899.55 4407.32,8899.55 4407.32,10737.61 4862.02,10737.61 4862.02,8899.55 5553.82,8899.55 5553.82,8500.6 4862.02,8500.6 "/>
  <polygon class="fil5" points="9378.01,8489.07 8849.9,8489.07 8291.15,9309.63 8053.45,9373.32 8053.45,8489.07 7598.97,8489.07 7598.97,10725.86 8053.45,10725.86 8053.45,9786.21 8233.56,9737.96 8881.31,10725.86 9428.5,10725.86 8636.35,9545.7 "/>
  <path class="fil5" d="M2850.94 9628.66l0 1.21 -361.19 96.95 0 -827.27 361.19 0c199.98,0 367.7,112.76 367.7,359.57 0,246.63 -189.64,330.38 -367.7,369.54zm40.16 -1126.62l0 -1.43 -401.35 0 -454.31 0 0 398.94 0 1838.06 454.31 0 0 -597.47 361.19 -96.95c51.33,-12.17 100.4,-25.55 147.85,-40.15l30.21 -7.73 -0.19 -1.18c384.32,-123.13 641.08,-341.96 641.08,-735.01 0,-479.24 -318.21,-742.49 -778.79,-757.08z"/>
  <path class="fil5" d="M1308.36 9497.03l-858.29 229.79 0 -457.75c0,-234.46 194.5,-429.76 429.35,-429.76 234.24,0 428.94,195.3 428.94,429.76l0 227.96zm-428.94 -1043.27c-486.55,0 -883.63,329.36 -883.63,815.31l0 1468.55 454.28 0 0 -597.47 858.29 -230.41 0 827.88 454.5 0 0 -1468.55c0,-485.95 -397.08,-815.31 -883.44,-815.31z"/>
 </g>
</svg>
