<?xml version="1.0" encoding="UTF-8"?>
<!DOCTYPE svg PUBLIC "-//W3C//DTD SVG 1.1//EN" "http://www.w3.org/Graphics/SVG/1.1/DTD/svg11.dtd">
<!-- Creator: CorelDRAW 2019 (64-Bit) -->
<svg xmlns="http://www.w3.org/2000/svg" xml:space="preserve" width="121.576mm" height="22.839mm" version="1.1" style="shape-rendering:geometricPrecision; text-rendering:geometricPrecision; image-rendering:optimizeQuality; fill-rule:evenodd; clip-rule:evenodd"
viewBox="0 0 12157.6 2283.9"
 xmlns:xlink="http://www.w3.org/1999/xlink">
 <defs>
  <style type="text/css">
   <![CDATA[
    .fil1 {fill:#ED721D;fill-rule:nonzero}
    .fil3 {fill:#E31E24;fill-rule:nonzero}
    .fil4 {fill:#FACA32;fill-rule:nonzero}
    .fil2 {fill:#C5263B;fill-rule:nonzero}
    .fil5 {fill:#1A68AB;fill-rule:nonzero}
    .fil0 {fill:#005EC4;fill-rule:nonzero}
   ]]>
  </style>
 </defs>
 <g id="Слой_x0020_1">
  <metadata id="CorelCorpID_0Corel-Layer"/>
  <path class="fil0" d="M1930.23 1897.18c-66.76,-8.26 -134.6,-8.74 -201.71,-2.03 -237.13,23.73 -437.82,151.39 -666.18,210.61 -86.45,22.55 -185.61,36.97 -276.35,46.1 -91.15,9.32 -180.88,3.15 -270.96,-6.22 -89.43,-9.02 -178.86,-27.54 -265.02,-59.4 -86.4,-31.04 -170.38,-73.06 -247.1,-130.33 54.83,79.77 132.98,142.44 216.96,193.52 85.27,49.97 179.32,86.76 277.01,108.18 97.31,21.01 199.62,28.67 297.48,23.09 98.32,-4.68 196.72,-16.92 294.16,-40.78 124.5,-29.42 240.44,-82.12 354.33,-139.32 168.47,-84.86 339.08,-140.52 529.33,-144.92 33.11,-0.89 66.34,-0.89 99.34,2.26 15.96,1.48 59.11,8.95 97.97,12.76 -46.52,-24.44 -181.11,-66.35 -239.26,-73.52z"/>
  <path class="fil1" d="M1270.22 1177.53c198.02,197.66 402.52,377.42 364.01,648.9 -10.75,1.79 -21.72,3.8 -32.64,6.06 124.68,-25.52 235.23,-21.6 334.86,-0.3 27.54,-48.66 51.16,-98.15 69.97,-149.48 38.57,-105.39 54.24,-206.99 44.75,-307.15 -9.08,-92.05 -39.36,-182.83 -93,-273.86 -64.79,-109.85 -144.97,-212.22 -223.42,-314.94 -81.36,-106.59 -166.87,-212.94 -222.35,-332.27 -63.32,-136.25 -59.35,-261.1 -28.78,-402.69 5.21,-24.52 5.21,-24.52 13.53,-53.24 -93.35,61.78 -178.97,132.93 -251.44,213.81 -35.9,40.59 -68.12,83.79 -95.47,129.25 -27.31,45.46 -49.03,93.64 -64.69,143.25 -29.2,92.64 -38.28,192.92 -18.64,287.65 22.61,108.48 135.19,331.71 135.36,335.64 9.56,10.03 19.11,20 28.79,29.85 10.8,10.56 24.09,23.73 39.16,39.52z"/>
  <path class="fil2" d="M959.56 2057.04c-2.25,0.6 -4.39,1.01 -6.58,1.6 2.19,-0.59 4.33,-1.07 6.58,-1.6z"/>
  <path class="fil2" d="M315.99 1938.72c32.65,30.56 67.6,59.16 103.2,86.52 16.98,12.99 33.94,25.57 50.92,38.21 103.84,26.99 211.26,37.74 340.33,21.72 -8.37,-25.99 -13.71,-52.76 -14.66,-80.88 -4.03,-120.71 50.44,-198.21 -43.26,-365.73 -4.16,-5.22 -8.19,-10.57 -12.34,-15.78 -219.22,-175.9 -431.54,-361.7 -442.04,-615.09 -51.51,67.77 -93.71,162.83 -127.42,238.91 -33.34,76.02 -56.37,156.49 -60.34,239.1 -4.93,82.54 11.57,166.45 47.7,244.13 36.5,77.68 92.88,147.63 157.91,208.89z"/>
  <path class="fil2" d="M998.79 2046.77l-0.06 -0.06c-3.32,0.89 -6.59,1.78 -9.91,2.67 3.38,-0.89 6.59,-1.65 9.97,-2.61z"/>
  <path class="fil3" d="M1146.91 1999.36c-0.48,0.23 -0.96,0.35 -1.42,0.53l0 0.06c39.51,-14.18 81.06,-30.38 124.38,-48.25 164.43,-338 102.12,-473.66 -67.59,-843.54 -200.64,-211.38 -362.88,-455.89 -205.8,-857.15 -96.32,88.12 -191.08,181.35 -276.83,277 -95.13,106.05 -186.22,236.44 -228.59,365.63 -58.81,179.57 5.99,380.56 109.36,539.24 42.62,65.27 91.15,127.58 139.76,189.9 39.4,31.56 78.98,62.83 117.62,94.12 113.75,91.74 219.61,182.94 289.11,282.46z"/>
  <path class="fil4" d="M1269.87 1951.82c6.76,-2.78 13.82,-5.81 20.71,-8.72 -6.95,2.91 -13.9,5.82 -20.71,8.6l0 0.12z"/>
  <path class="fil4" d="M1231.06 1138.01c-9.68,-9.85 -19.23,-19.83 -28.79,-29.85 0.41,0.77 0.96,1.48 1.3,2.25 3.33,4.22 13.24,13.66 27.49,27.6z"/>
  <path class="fil4" d="M1269.87 1951.7c6.81,-2.78 13.76,-5.69 20.71,-8.59 9.43,-4.04 18.75,-7.84 28.37,-11.93 17.44,-7.48 35.06,-15.14 53.1,-23.26 61.72,-27.66 120.35,-48.19 176.25,-62.91 17.28,-4.5 34.35,-8.54 51.15,-12.04 0.71,-0.13 1.43,-0.3 2.14,-0.48 10.92,-2.26 21.9,-4.27 32.64,-6.06 38.51,-271.48 -165.98,-451.24 -364.01,-648.9 -13.11,-13.12 -26.17,-26.23 -39.16,-39.52 -14.25,-13.94 -24.16,-23.38 -27.48,-27.59 -0.35,-0.78 -0.9,-1.49 -1.31,-2.26 169.73,369.87 232.04,505.54 67.6,843.54z"/>
  <path class="fil1" d="M810.56 2085.28c44.5,-5.39 91.87,-14.35 142.42,-26.64 -50.55,12.29 -97.92,21 -142.54,26.53 0.12,0.06 0.12,0.11 0.12,0.11z"/>
  <path class="fil1" d="M988.82 2049.38c-9.79,2.62 -19.64,5.23 -29.26,7.67 9.62,-2.44 19.47,-5.05 29.26,-7.67z"/>
  <path class="fil1" d="M857.79 1716.9c-36.43,-29.5 -73.82,-58.99 -111.03,-88.84 2.14,3.56 3.8,6.94 5.76,10.49 93.7,167.52 39.23,245.04 43.26,365.74 0.95,28.12 6.29,54.89 14.66,80.88 44.62,-5.53 91.99,-14.24 142.54,-26.53 2.2,-0.6 4.33,-1.01 6.58,-1.6 9.61,-2.43 19.47,-5.04 29.26,-7.66 3.32,-0.89 6.59,-1.78 9.91,-2.67 46.05,-12.7 94.71,-28.12 146.75,-46.81 -69.25,-100 -174.52,-191.56 -287.69,-283z"/>
  <path class="fil1" d="M857.79 1716.9c113.17,91.44 218.44,183 287.69,283 0.48,-0.19 0.95,-0.3 1.43,-0.54 -69.49,-99.52 -175.36,-190.72 -289.12,-282.46z"/>
  <polygon class="fil5" points="8979.15,1466.61 9806.8,1244.73 9703.6,859.82 8979.15,1053.69 8979.15,441.61 10105.34,441.61 10105.34,42.68 8979.15,42.68 8524.63,42.68 8524.63,441.61 8524.63,1880.14 8524.63,2279.68 8979.15,2279.68 10134.72,2279.68 10134.72,1880.14 8979.15,1880.14 "/>
  <polygon class="fil5" points="7165.8,42.66 6474.21,42.66 6474.21,441.61 7165.8,441.61 7165.8,2279.67 7620.5,2279.67 7620.5,441.61 8312.3,441.61 8312.3,42.66 7620.5,42.66 "/>
  <polygon class="fil5" points="12136.49,31.13 11608.38,31.13 11049.63,851.69 10811.93,915.38 10811.93,31.13 10357.45,31.13 10357.45,2267.92 10811.93,2267.92 10811.93,1328.27 10992.04,1280.02 11639.79,2267.92 12186.98,2267.92 11394.83,1087.76 "/>
  <path class="fil5" d="M5609.42 1170.72l0 1.21 -361.19 96.95 0 -827.27 361.19 0c199.98,0 367.7,112.76 367.7,359.57 0,246.63 -189.64,330.38 -367.7,369.54zm40.16 -1126.62l0 -1.43 -401.35 0 -454.31 0 0 398.94 0 1838.06 454.31 0 0 -597.47 361.19 -96.95c51.33,-12.17 100.4,-25.55 147.85,-40.15l30.21 -7.73 -0.19 -1.18c384.32,-123.13 641.08,-341.96 641.08,-735.01 0,-479.24 -318.21,-742.49 -778.79,-757.08z"/>
  <path class="fil5" d="M4066.84 1039.09l-858.29 229.79 0 -457.75c0,-234.46 194.5,-429.76 429.35,-429.76 234.24,0 428.94,195.3 428.94,429.76l0 227.96zm-428.94 -1043.27c-486.55,0 -883.63,329.36 -883.63,815.31l0 1468.55 454.28 0 0 -597.47 858.29 -230.41 0 827.88 454.5 0 0 -1468.55c0,-485.95 -397.08,-815.31 -883.44,-815.31z"/>
 </g>
</svg>
