<?xml version="1.0" standalone="no"?>
<!DOCTYPE svg PUBLIC "-//W3C//DTD SVG 1.1//EN" "http://www.w3.org/Graphics/SVG/1.1/DTD/svg11.dtd" >
<svg>
<metadata>
Created by FontForge 20090914 at Tue Oct 30 21:30:13 2018
 By www-data
Copyright (C)2015 Commercial Type.
</metadata>
<defs>
<font id="YandexSansText-Medium" horiz-adv-x="556" >
  <font-face 
    font-family="Yandex Sans Text Medium"
    font-weight="500"
    font-stretch="normal"
    units-per-em="1000"
    panose-1="0 0 0 0 0 0 0 0 0 0"
    ascent="800"
    descent="-200"
    x-height="518.999"
    cap-height="716"
    bbox="-315 -233.002 1266 995"
    underline-thickness="75"
    underline-position="-40"
    unicode-range="U+000D-U+FEFF"
  />
<missing-glyph horiz-adv-x="196" 
 />
    <glyph glyph-name=".notdef" horiz-adv-x="196" 
 />
    <glyph glyph-name="NULL" horiz-adv-x="0" 
 />
    <glyph glyph-name="NULL" horiz-adv-x="0" 
 />
    <glyph glyph-name="nonmarkingreturn" unicode="&#xd;" horiz-adv-x="196" 
 />
    <glyph glyph-name="space" unicode=" " horiz-adv-x="196" 
 />
    <glyph glyph-name="exclam" unicode="!" horiz-adv-x="294" 
d="M210 716l-15 -503h-96l-14 503h125zM147 -7c-11.333 0 -22 2.16699 -32 6.5s-18.667 10.166 -26 17.499s-13.166 15.833 -17.499 25.5s-6.5 19.834 -6.5 30.501c0 22 7.83301 40.667 23.5 56s35.167 23 58.5 23s42.666 -7.66699 57.999 -23s23 -34 23 -56
c0 -10.667 -2 -20.834 -6 -30.501s-9.66699 -18.167 -17 -25.5s-16 -13.166 -26 -17.499s-20.667 -6.5 -32 -6.5z" />
    <glyph glyph-name="quotedbl" unicode="&#x22;" horiz-adv-x="419" 
d="M63 716h124l-15 -257h-94zM232 716h124l-15 -257h-94z" />
    <glyph glyph-name="numbersign" unicode="#" horiz-adv-x="672" 
d="M412 444h-131l-23 -152h131zM374 192h-131l-28 -192h-102l28 192h-100v100h115l23 152h-111v100h126l25 172h102l-25 -172h131l25 172h102l-25 -172h102v-100h-117l-23 -152h113v-100h-128l-28 -192h-102z" />
    <glyph glyph-name="dollar" unicode="$" 
d="M215 -150l-0.000976562 143.003c-43.333 4.66699 -79 13.667 -107 27s-49.667 25.666 -65 36.999l19 104c10 -7.33301 22 -14.833 36 -22.5s29.667 -14.834 47 -21.501s36.166 -12 56.499 -16s41.833 -6 64.5 -6c38.667 0 69.334 7.5 92.001 22.5s34 40.5 34 76.5
c0 18 -3 33.167 -9 45.5s-15 22.833 -27 31.5s-26.667 15.834 -44 21.501s-37 11.167 -59 16.5c-26 6.66699 -51.667 14.5 -77 23.5s-48 21.167 -68 36.5s-36.167 35.166 -48.5 59.499s-18.5 55.166 -18.5 92.499c0 55.333 15.667 99.833 47 133.5s75.333 55.5 132 65.5v131
h111v-126c36 -3.33301 65.5 -9.33301 88.5 -18s41.5 -17 55.5 -25l-18 -106c-23.333 14 -48.166 25 -74.499 33s-56.166 12 -89.499 12c-48 0 -81.833 -8.16699 -101.5 -24.5s-29.5 -38.833 -29.5 -67.5c0 -17.333 3.66699 -31.833 11 -43.5s17.166 -21.334 29.499 -29.001
s26.833 -14.167 43.5 -19.5s34.334 -10 53.001 -14c27.333 -6.66699 54 -14.667 80 -24s49.167 -22 69.5 -38s36.666 -36.5 48.999 -61.5s18.5 -56.167 18.5 -93.5c0 -35.333 -5 -65.5 -15 -90.5s-23.833 -46 -41.5 -63s-38 -30.167 -61 -39.5s-47.5 -15.666 -73.5 -18.999
v-144h-110z" />
    <glyph glyph-name="percent" unicode="%" horiz-adv-x="670" 
d="M59 -5l455 726h98l-456 -726h-97zM304 541c0 -60 -13 -105.333 -39 -136s-59.667 -46 -101 -46s-74.833 14.667 -100.5 44s-38.5 74 -38.5 134c0 60.667 12.833 106.167 38.5 136.5s59.167 45.5 100.5 45.5s75 -14.5 101 -43.5s39 -73.833 39 -134.5zM116 539
c0 -39.333 4 -66.666 12 -81.999s20 -23 36 -23s28.167 7.66699 36.5 23s12.5 42.666 12.5 81.999c0 38.667 -4 65.834 -12 81.501s-20.333 23.5 -37 23.5c-16 0 -28 -7.83301 -36 -23.5s-12 -42.834 -12 -81.501zM645 176c0 -60 -12.667 -105.334 -38 -136.001
s-59 -46 -101 -46c-41.333 0 -74.833 14.667 -100.5 44s-38.5 74 -38.5 134c0 60.667 12.833 106.334 38.5 137.001s59.167 46 100.5 46c42 0 75.667 -14.667 101 -44s38 -74.333 38 -135zM457 173.999c0 -38.667 4.33301 -65.834 13 -81.501s20.667 -23.5 36 -23.5
c16.667 0 29 7.83301 37 23.5s12 42.834 12 81.501c0 39.333 -4 66.833 -12 82.5s-20.333 23.5 -37 23.5c-16 0 -28.167 -7.83301 -36.5 -23.5s-12.5 -43.167 -12.5 -82.5z" />
    <glyph glyph-name="ampersand" unicode="&#x26;" horiz-adv-x="764" 
d="M679 5c-28.667 0 -55.9971 5.00098 -81.9971 15.001s-52.333 24.333 -79 43c-26.667 -22.667 -57.5 -40.667 -92.5 -54s-74.5 -20 -118.5 -20c-42.667 0 -80.5 5 -113.5 15s-60.667 24.167 -83 42.5s-39.333 40.166 -51 65.499s-17.5 53 -17.5 83
c0 47.333 12.5 85.666 37.5 114.999s57.167 52.666 96.5 69.999c-24.667 29.333 -42.5 57.5 -53.5 84.5s-16.5 54.833 -16.5 83.5c0 24.667 4.33301 47.834 13 69.501s21.834 40.667 39.501 57s39.5 29.166 65.5 38.499s56.333 14 91 14s65.334 -4.66699 92.001 -14
s49.167 -22.166 67.5 -38.499s32.166 -35.333 41.499 -57s14 -44.834 14 -69.501c0 -25.333 -4.33301 -47.833 -13 -67.5s-20.334 -37.167 -35.001 -52.5s-32 -28.833 -52 -40.5s-41 -22.5 -63 -32.5l111 -106l34 -32c16 28.667 28.5 58.834 37.5 90.501
s15.5 62.167 19.5 91.5l102 -26c-5.33301 -37.333 -14.333 -75.666 -27 -114.999s-30.334 -76.333 -53.001 -111c17.333 -13.333 34.166 -23.333 50.499 -30s34.166 -10 53.499 -10c12 0 23 1 33 3s17.333 3.66699 22 5l-8 -99c-2.66699 -1.33301 -9.5 -3.5 -20.5 -6.5
s-25.167 -4.5 -42.5 -4.5zM312.003 90.001c25.333 0 48.168 3.49902 68.501 10.499s38.833 16.167 55.5 27.5l-34.5 31.5l-36.5 34.5l-125 120c-23.333 -12 -42.166 -26.667 -56.499 -44s-21.5 -40 -21.5 -68c0 -19.333 3.83301 -36 11.5 -50s18.167 -25.667 31.5 -35
s29.166 -16.166 47.499 -20.499s38.166 -6.5 59.499 -6.5zM229.005 548c0 -25.333 7 -48.168 21 -68.501s30.667 -40.166 50 -59.499c34.667 16.667 61.5 35 80.5 55s28.5 44.667 28.5 74c0 26.667 -8.16699 47.5 -24.5 62.5s-38.833 22.5 -67.5 22.5
c-30 0 -52.167 -8 -66.5 -24s-21.5 -36.667 -21.5 -62z" />
    <glyph glyph-name="quotesingle" unicode="'" horiz-adv-x="250" 
d="M63 716h124l-15 -257h-94z" />
    <glyph glyph-name="parenleft" unicode="(" horiz-adv-x="288" 
d="M169 -139c-46 56.667 -79.833 122.333 -101.5 197s-32.5 157.667 -32.5 249c0 92 10.333 176.833 31 254.5s55 142.5 103 194.5h120c-48 -53.333 -82.333 -118 -103 -194s-31 -160 -31 -252c0 -91.333 10.333 -174 31 -248s55 -141 103 -201h-120z" />
    <glyph glyph-name="parenright" unicode=")" horiz-adv-x="288" 
d="M119.011 -139c45.9971 56.667 79.8281 122.333 101.493 197s32.498 157.667 32.498 249c0 92 -10.333 176.833 -30.998 254.5s-54.9961 142.5 -102.993 194.5h-119.993c47.9971 -53.333 82.3281 -118 102.993 -194s30.998 -160 30.998 -252
c0 -91.333 -10.333 -174 -30.998 -248s-54.9961 -141 -102.993 -201h119.993z" />
    <glyph glyph-name="asterisk" unicode="*" horiz-adv-x="464" 
d="M232 466l-65 -124l-89 66l95 100l-133 23l33 106l123 -60l-19 139h111l-21 -139l123 60l34 -106l-133 -23l95 -100l-88 -66z" />
    <glyph glyph-name="plus" unicode="+" 
d="M329 292v-210h-101v210h-197v90h197v210h101v-210h197v-90h-197z" />
    <glyph glyph-name="comma" unicode="," horiz-adv-x="257" 
d="M46 -107c12.667 14.667 24.332 32.001 34.999 52.001s18.334 39.333 23.001 58c-18.667 5.33301 -32.667 14.666 -42 27.999s-14 28 -14 44c0 22 7.5 40.333 22.5 55s34.167 22 57.5 22c24.667 0 44.5 -7.5 59.5 -22.5s22.5 -37.167 22.5 -66.5
c0 -17.333 -2.66699 -34.666 -8 -51.999s-12 -33.833 -20 -49.5s-16.833 -30.334 -26.5 -44.001s-19.167 -25.167 -28.5 -34.5z" />
    <glyph glyph-name="hyphen" unicode="-" horiz-adv-x="360" 
d="M57 358h246v-102h-246v102z" />
    <glyph glyph-name="period" unicode="." horiz-adv-x="257" 
d="M129 -7c-23.333 0 -43 8 -59 24s-24 35 -24 57c0 22.667 8 41.834 24 57.501s35.667 23.5 59 23.5s42.833 -7.83301 58.5 -23.5s23.5 -34.834 23.5 -57.501c0 -22 -7.83301 -41 -23.5 -57s-35.167 -24 -58.5 -24z" />
    <glyph glyph-name="slash" unicode="/" horiz-adv-x="421" 
d="M3 -120l312 876h103l-312 -876h-103z" />
    <glyph glyph-name="zero" unicode="0" 
d="M280 -10c-35.333 0 -68 7.00098 -98 21.001s-55.833 36 -77.5 66s-38.667 68.167 -51 114.5s-18.5 102.166 -18.5 167.499c0 64.667 6.16699 120.167 18.5 166.5s29.333 84.333 51 114s47.5 51.5 77.5 65.5s62.667 21 98 21s67.833 -7 97.5 -21
s55.334 -35.667 77.001 -65s38.5 -67 50.5 -113s18 -101.333 18 -166s-6 -120.334 -18 -167.001s-28.833 -85.167 -50.5 -115.5s-47.334 -52.666 -77.001 -66.999s-62.167 -21.5 -97.5 -21.5zM279 91.001c19.333 0 36.3311 4.5 50.998 13.5s26.834 23.833 36.501 44.5
s17 48.167 22 82.5s7.5 76.5 7.5 126.5s-2.5 92 -7.5 126s-12.333 61.5 -22 82.5s-21.667 36 -36 45s-31.166 13.5 -50.499 13.5s-36.5 -4.5 -51.5 -13.5s-27.5 -24 -37.5 -45s-17.5 -48.5 -22.5 -82.5s-7.5 -76 -7.5 -126s2.5 -92.167 7.5 -126.5s12.5 -61.833 22.5 -82.5
s22.333 -35.5 37 -44.5s31.667 -13.5 51 -13.5z" />
    <glyph glyph-name="one" unicode="1" 
d="M273 0v580l-196 -151v124l211 163h111v-716h-126z" />
    <glyph glyph-name="two" unicode="2" 
d="M42 0v118.002c62 46.667 114.5 88.167 157.5 124.5s78 69.5 105 99.5s46.5 58 58.5 84s18 52 18 78c0 37.333 -11.5 66.833 -34.5 88.5s-57.833 32.5 -104.5 32.5c-34 0 -65.5 -5.5 -94.5 -16.5s-53.5 -24.5 -73.5 -40.5l-15 108c21.333 14 48 25.833 80 35.5
s70.667 14.5 116 14.5c81.333 0 143.833 -19.333 187.5 -58s65.5 -91.334 65.5 -158.001c0 -36 -7.16699 -70 -21.5 -102s-35.833 -64 -64.5 -96s-64 -64.833 -106 -98.5s-90.667 -69.834 -146 -108.501h338v-105h-466z" />
    <glyph glyph-name="three" unicode="3" 
d="M233 -10c-42.667 0 -80.834 4.83105 -114.501 14.498s-60.5 21.5 -80.5 35.5l28 104c17.333 -12 39.5 -23.833 66.5 -35.5s58.833 -17.5 95.5 -17.5c50.667 0 88.5 10 113.5 30s37.5 49 37.5 87c0 36 -11.667 63.667 -35 83s-59.666 29 -108.999 29h-93v103h98
c34 0 61.667 8.83301 83 26.5s32 43.5 32 77.5c0 30.667 -10.5 54.667 -31.5 72s-53.167 26 -96.5 26c-35.333 0 -66.5 -5.33301 -93.5 -16s-48.5 -21.667 -64.5 -33l-17 104c20 13.333 45.167 24.333 75.5 33s66.5 13 108.5 13c38 0 72 -4.66699 102 -14
s55.333 -22.333 76 -39s36.334 -36.667 47.001 -60s16 -49 16 -77c0 -22 -3.5 -41.833 -10.5 -59.5s-16.5 -33.167 -28.5 -46.5s-25.833 -24.333 -41.5 -33s-32.167 -15 -49.5 -19c20.667 -3.33301 40.667 -9.66602 60 -18.999s36.333 -21.5 51 -36.5
s26.334 -32.5 35.001 -52.5s13 -42.667 13 -68c0 -32 -6.33301 -61 -19 -87s-30.834 -48.167 -54.501 -66.5s-52.334 -32.666 -86.001 -42.999s-71.5 -15.5 -113.5 -15.5z" />
    <glyph glyph-name="four" unicode="4" 
d="M326 564l-185 -306h185v306zM447 161v-161h-121v161h-298v88l281 467h138v-458h85v-97h-85z" />
    <glyph glyph-name="five" unicode="5" 
d="M233 -10c-44 0 -81.998 4.16504 -113.998 12.498s-57.667 18.833 -77 31.5l27 105c17.333 -11.333 39.666 -22.166 66.999 -32.499s58.666 -15.5 93.999 -15.5c48 0 84.833 13 110.5 39s38.5 59.667 38.5 101c0 40.667 -10 72 -30 94s-50 33 -90 33
c-27.333 0 -49.5 -4 -66.5 -12s-29.833 -17.333 -38.5 -28h-93v398h410v-105h-301v-187c12.667 9.33301 28.5 17.333 47.5 24s42.5 10 70.5 10c32.667 0 62.5 -5 89.5 -15s50 -24.5 69 -43.5s33.833 -42.167 44.5 -69.5s16 -58.666 16 -93.999
c0 -36.667 -6.33301 -70 -19 -100s-31 -55.833 -55 -77.5s-52.833 -38.5 -86.5 -50.5s-71.5 -18 -113.5 -18z" />
    <glyph glyph-name="six" unicode="6" 
d="M285 -12c-37.333 0 -71.501 5.50195 -102.501 16.502s-57.667 28.167 -80 51.5s-39.833 52.833 -52.5 88.5s-19 78.167 -19 127.5c0 57.333 9.16699 109.833 27.5 157.5s41.333 90.167 69 127.5s57.834 69.166 90.501 95.499s63 46.833 91 61.5h169v-9
c-37.333 -19.333 -72.333 -39.833 -105 -61.5s-62.167 -45 -88.5 -70s-48.833 -52 -67.5 -81s-32.667 -60.5 -42 -94.5c17.333 22.667 37.333 40.167 60 52.5s52.667 18.5 90 18.5c28 0 54.333 -4.5 79 -13.5s46.5 -23.167 65.5 -42.5s34 -43.833 45 -73.5
s16.5 -64.834 16.5 -105.501c0 -39.333 -6.33301 -74.333 -19 -105s-30 -56.5 -52 -77.5s-48 -36.833 -78 -47.5s-62.333 -16 -97 -16zM283.999 87.002c35.333 0 64.501 11.332 87.501 33.999s34.5 59.667 34.5 111c0 49.333 -10.167 85 -30.5 107s-48.5 33 -84.5 33
c-31.333 0 -57 -6.5 -77 -19.5s-38.667 -31.167 -56 -54.5c-0.666992 -3.33301 -1 -7.16602 -1 -11.499v-12.5c0 -37.333 3.16699 -68 9.5 -92s15.166 -43 26.499 -57s24.833 -23.833 40.5 -29.5s32.5 -8.5 50.5 -8.5z" />
    <glyph glyph-name="seven" unicode="7" 
d="M101 0l277 610h-337v106h477v-80l-285 -636h-132z" />
    <glyph glyph-name="eight" unicode="8" 
d="M281 -10c-36 0 -69.168 4.5 -99.501 13.5s-56.5 22.167 -78.5 39.5s-39.167 38.333 -51.5 63s-18.5 53 -18.5 85c0 46 12.5 84.667 37.5 116s58.5 54.333 100.5 69c-35.333 13.333 -63.333 33.833 -84 61.5s-31 62.167 -31 103.5c0 30 5.66699 56.5 17 79.5
s27 42.333 47 58s43.833 27.5 71.5 35.5s57.5 12 89.5 12c31.333 0 60.5 -3.83301 87.5 -11.5s50.5 -19.334 70.5 -35.001s35.833 -34.834 47.5 -57.501s17.5 -49 17.5 -79c0 -42 -10.5 -77 -31.5 -105s-48.5 -48.667 -82.5 -62c40.667 -14 73.334 -36.333 98.001 -67
s37 -69 37 -115c0 -32 -6.16699 -60.667 -18.5 -86s-29.333 -46.666 -51 -63.999s-47.5 -30.666 -77.5 -39.999s-62.333 -14 -97 -14zM280.999 423c30 0 54 8.83301 72 26.5s27 42.5 27 74.5c0 32.667 -9 57.834 -27 75.501s-42 26.5 -72 26.5s-54.5 -8.83301 -73.5 -26.5
s-28.5 -42.834 -28.5 -75.501c0 -32 9.5 -56.833 28.5 -74.5s43.5 -26.5 73.5 -26.5zM280.999 90c34 0 62 10.5 84 31.5s33 50.833 33 89.5s-11 68.334 -33 89.001s-50 31 -84 31c-36 0 -65.167 -10.333 -87.5 -31s-33.5 -50.334 -33.5 -89.001s11.167 -68.5 33.5 -89.5
s51.5 -31.5 87.5 -31.5z" />
    <glyph glyph-name="nine" unicode="9" 
d="M273 727c35.333 0 68.501 -5.49805 99.501 -16.498s58 -28 81 -51s41 -52.5 54 -88.5s19.5 -78.667 19.5 -128c0 -58.667 -8.66699 -111.834 -26 -159.501s-39 -90 -65 -127s-54 -68.5 -84 -94.5s-58 -46.667 -84 -62h-170v9c33.333 19.333 65.333 40.333 96 63
s58.667 46.667 84 72s47.166 52.5 65.499 81.5s31.5 59.5 39.5 91.5c-17.333 -22.667 -37.333 -40.167 -60 -52.5s-52.667 -18.5 -90 -18.5c-28 0 -54.333 4.5 -79 13.5s-46.5 23 -65.5 42s-34 43.333 -45 73s-16.5 65.167 -16.5 106.5c0 39.333 6.5 74.166 19.5 104.499
s30.5 56 52.5 77s48 37 78 48s62 16.5 96 16.5zM274.001 628.002c-36 0 -65.334 -11.5 -88.001 -34.5s-34 -59.833 -34 -110.5c0 -49.333 10.167 -85 30.5 -107s48.166 -33 83.499 -33c32 0 58 6.33301 78 19s38.667 30.667 56 54v25c0 36.667 -3.16699 67.167 -9.5 91.5
s-15.166 43.5 -26.499 57.5s-24.666 23.833 -39.999 29.5s-32 8.5 -50 8.5z" />
    <glyph glyph-name="colon" unicode=":" horiz-adv-x="288" 
d="M145 376c-23.333 0 -43 8 -59 24s-24 35 -24 57c0 22.667 8 41.834 24 57.501s35.667 23.5 59 23.5s42.833 -7.83301 58.5 -23.5s23.5 -34.834 23.5 -57.501c0 -22 -7.83301 -41 -23.5 -57s-35.167 -24 -58.5 -24zM145 -7c-23.333 0 -43 8 -59 24s-24 35 -24 57
c0 22.667 8 41.834 24 57.501s35.667 23.5 59 23.5s42.833 -7.83301 58.5 -23.5s23.5 -34.834 23.5 -57.501c0 -22 -7.83301 -41 -23.5 -57s-35.167 -24 -58.5 -24z" />
    <glyph glyph-name="semicolon" unicode=";" horiz-adv-x="288" 
d="M63 -107c12.667 14.667 24.332 32.001 34.999 52.001s18.334 39.333 23.001 58c-18.667 5.33301 -32.667 14.666 -42 27.999s-14 28 -14 44c0 22 7.5 40.333 22.5 55s34.167 22 57.5 22c24.667 0 44.5 -7.5 59.5 -22.5s22.5 -37.167 22.5 -66.5
c0 -17.333 -2.66699 -34.666 -8 -51.999s-12 -33.833 -20 -49.5s-16.833 -30.334 -26.5 -44.001s-19.167 -25.167 -28.5 -34.5zM144.998 376.001c-23.333 0 -43 8 -59 24s-24 35 -24 57c0 22.667 8 41.834 24 57.501s35.667 23.5 59 23.5s42.833 -7.83301 58.5 -23.5
s23.5 -34.834 23.5 -57.501c0 -22 -7.83301 -41 -23.5 -57s-35.167 -24 -58.5 -24z" />
    <glyph glyph-name="less" unicode="&#x3c;" 
d="M66 282v110l426 195v-100l-328 -150l328 -150v-100z" />
    <glyph glyph-name="equal" unicode="=" 
d="M30 397v90h495v-90h-495zM30 187v90h495v-90h-495z" />
    <glyph glyph-name="greater" unicode="&#x3e;" 
d="M65 187l328 150l-328 150v100l426 -195v-110l-426 -195v100z" />
    <glyph glyph-name="question" unicode="?" horiz-adv-x="475" 
d="M441 532c0 -22.667 -2.50391 -42.6641 -7.50391 -59.9971s-12 -32.833 -21 -46.5s-19.333 -25.834 -31 -36.501s-24.167 -20.667 -37.5 -30l-41 -27c-13.333 -8.66699 -25.5 -17.5 -36.5 -26.5s-19.833 -19 -26.5 -30s-10 -23.5 -10 -37.5v-25h-109v24
c0 28 3.83301 52 11.5 72s17.334 37 29.001 51s24.5 25.833 38.5 35.5l41 27.5c10 6.66699 19.5 13.667 28.5 21s16.667 15.166 23 23.499s11.5 17.833 15.5 28.5s6 22.667 6 36c0 28 -9.16699 50.5 -27.5 67.5s-49.166 25.5 -92.499 25.5c-30 0 -56.167 -3.33301 -78.5 -10
s-39.166 -13.334 -50.499 -20.001l-24 97c13.333 6.66699 32.833 14 58.5 22s58.834 12 99.501 12c81.333 0 142 -17.667 182 -53s60 -82.333 60 -141zM177.996 -6.99707c-11.333 0 -22 2.16699 -32 6.5s-18.667 10.166 -26 17.499s-13 15.833 -17 25.5s-6 19.834 -6 30.501
c0 22 7.66699 40.667 23 56s34.666 23 57.999 23s42.833 -7.66699 58.5 -23s23.5 -34 23.5 -56c0 -10.667 -2.16699 -20.834 -6.5 -30.501s-10.166 -18.167 -17.499 -25.5s-16 -13.166 -26 -17.499s-20.667 -6.5 -32 -6.5z" />
    <glyph glyph-name="at" unicode="@" horiz-adv-x="1039" 
d="M527 -199c-67.333 0 -130.337 9.33008 -189.004 27.9971s-109.667 46.5 -153 83.5s-77.5 83 -102.5 138s-37.5 118.833 -37.5 191.5c0 71.333 12.5 136.666 37.5 195.999s60 110.333 105 153s98.5 75.834 160.5 99.501s130 35.5 204 35.5
c63.333 0 123 -8.83301 179 -26.5s105 -43.334 147 -77.001s75.167 -74.834 99.5 -123.501s36.5 -104 36.5 -166c0 -41.333 -4.83301 -80.5 -14.5 -117.5s-24 -69.5 -43 -97.5s-42.667 -50.333 -71 -67s-61.5 -25 -99.5 -25c-26.667 0 -49.5 3 -68.5 9
s-35.167 14.167 -48.5 24.5s-23.833 22.333 -31.5 36s-13.5 28.167 -17.5 43.5c-18 -37.333 -41.833 -65.5 -71.5 -84.5s-62.5 -28.5 -98.5 -28.5c-22 0 -43.5 3.83301 -64.5 11.5s-39.667 19.834 -56 36.501s-29.5 38.334 -39.5 65.001s-15 59 -15 97
c0 36 5.5 70.167 16.5 102.5s26.167 60.5 45.5 84.5s42.666 43.167 69.999 57.5s57 21.5 89 21.5c34 0 63.333 -8.66699 88 -26s42.667 -44.333 54 -81l34 77h89l-38 -246c-2 -16 -2.5 -31 -1.5 -45s4 -26.5 9 -37.5s12.667 -19.667 23 -26s23.5 -9.5 39.5 -9.5
c20 0 37.833 5.5 53.5 16.5s28.834 26 39.501 45s18.834 41.5 24.501 67.5s8.5 54 8.5 84c0 52.667 -9.66699 99.167 -29 139.5s-45.666 74.333 -78.999 102s-72.5 48.667 -117.5 63s-93.167 21.5 -144.5 21.5c-58 0 -111.667 -9.33301 -161 -28
s-92.166 -45.334 -128.499 -80.001s-64.833 -76.5 -85.5 -125.5s-31 -103.833 -31 -164.5c0 -62 9.66699 -116.167 29 -162.5s46.166 -84.666 80.499 -114.999s75.333 -53.166 123 -68.499s100.167 -23 157.5 -23c50.667 0 94.334 5.33301 131.001 16s64 20.334 82 29.001
l16 -77c-8.66699 -5.33301 -21 -10.666 -37 -15.999s-34.5 -10.333 -55.5 -15s-43.667 -8.5 -68 -11.5s-49.166 -4.5 -74.499 -4.5zM387.996 230.997c0 -23.333 2.83496 -42.6709 8.50195 -58.0039s13.167 -27.666 22.5 -36.999s19.833 -15.833 31.5 -19.5
s23.5 -5.5 35.5 -5.5c20.667 0 39.167 5 55.5 15s30.333 23.5 42 40.5s20.5 36.333 26.5 58s9 44.5 9 68.5c0 22.667 -2.83301 41.834 -8.5 57.501s-13 28.334 -22 38.001s-19.167 16.5 -30.5 20.5s-23 6 -35 6c-22 0 -41.333 -5.16699 -58 -15.5
s-30.834 -24.166 -42.501 -41.499s-20.334 -37 -26.001 -59s-8.5 -44.667 -8.5 -68z" />
    <glyph glyph-name="A" unicode="A" horiz-adv-x="674" 
d="M328 600l-103 -312h206zM465 185h-274l-61 -185h-112l238 716h162l238 -716h-130z" />
    <glyph glyph-name="B" unicode="B" horiz-adv-x="639" 
d="M203 609l0.000976562 -186.001h96c39.333 0 71.166 8 95.499 24s36.5 42 36.5 78c0 32.667 -11 54.834 -33 66.501s-52.333 17.5 -91 17.5h-104zM203.001 314.999v-207h112c44 0 79.667 7.5 107 22.5s41 42.5 41 82.5c0 38 -12.833 64.5 -38.5 79.5
s-65.5 22.5 -119.5 22.5h-102zM78.001 715.999l214 -0.00195312c86.667 0 152.667 -13.167 198 -39.5s68 -71.166 68 -134.499c0 -25.333 -3.66699 -47.5 -11 -66.5s-17.5 -35.333 -30.5 -49s-29 -24.834 -48 -33.501s-39.833 -15.334 -62.5 -20.001
c62 -6.66699 108.833 -22.667 140.5 -48s47.5 -64.666 47.5 -117.999c0 -37.333 -7.33301 -69.166 -22 -95.499s-35.167 -47.666 -61.5 -63.999s-57.5 -28.333 -93.5 -36s-75 -11.5 -117 -11.5h-222v716z" />
    <glyph glyph-name="C" unicode="C" horiz-adv-x="652" 
d="M407 -10c-54 0 -103.5 8.5 -148.5 25.5s-83.667 41.333 -116 73s-57.333 70.167 -75 115.5s-26.5 96.666 -26.5 153.999s8.66699 108.833 26 154.5s41.833 84.334 73.5 116.001s69.5 55.834 113.5 72.501s93 25 147 25c48.667 0 90 -4.83301 124 -14.5
s60.667 -20.167 80 -31.5l-18 -109c-23.333 14 -50 25.5 -80 34.5s-63.667 13.5 -101 13.5c-73.333 0 -130.333 -21.833 -171 -65.5s-61 -108.834 -61 -195.501c0 -87.333 20.833 -152.5 62.5 -195.5s100.834 -64.5 177.501 -64.5c32 0 61 4.16699 87 12.5
s50.667 19.833 74 34.5l33 -100c-18.667 -13.333 -44.834 -25.833 -78.501 -37.5s-74.5 -17.5 -122.5 -17.5z" />
    <glyph glyph-name="D" unicode="D" horiz-adv-x="725" 
d="M205 609v-500.998h111c34.667 0 66.5 5.16699 95.5 15.5s53.833 26.166 74.5 47.499s36.667 48.666 48 81.999s17 73 17 119c0 46.667 -5.66699 85.167 -17 115.5s-27 54.5 -47 72.5s-43.833 30.667 -71.5 38s-57.5 11 -89.5 11h-121zM78 716.002h243.001
c51.333 0 99.166 -5.66699 143.499 -17s82.666 -30 114.999 -56s57.833 -60.667 76.5 -104s28 -97 28 -161c0 -62 -9.33301 -116.667 -28 -164s-44.667 -86.833 -78 -118.5s-72.666 -55.5 -117.999 -71.5s-95 -24 -149 -24h-233v716z" />
    <glyph glyph-name="E" unicode="E" horiz-adv-x="583" 
d="M78 716h440v-107h-313v-184h266v-108h-266v-209h318v-108h-445v716z" />
    <glyph glyph-name="F" unicode="F" horiz-adv-x="554" 
d="M205 296v-296h-127v716h434v-107h-307v-205h272v-108h-272z" />
    <glyph glyph-name="G" unicode="G" horiz-adv-x="746" 
d="M703 279c0 -42 -6.3291 -80.6689 -18.9961 -116.002s-31.834 -65.833 -57.501 -91.5s-57.834 -45.667 -96.501 -60s-83.667 -21.5 -135 -21.5c-53.333 0 -101.833 8.66699 -145.5 26s-81 42 -112 74s-54.833 70.667 -71.5 116s-25 96 -25 152s8 106.667 24 152
s39.833 84 71.5 116s70.667 56.667 117 74s99.833 26 160.5 26c55.333 0 102.333 -5.83301 141 -17.5s70 -24.834 94 -39.501l-18 -113c-28 18.667 -59.833 33.834 -95.5 45.501s-74.834 17.5 -117.501 17.5s-79.334 -5.83301 -110.001 -17.5s-55.834 -28.667 -75.501 -51
s-34.167 -49.666 -43.5 -81.999s-14 -69.166 -14 -110.499c0 -82.667 18.833 -146.667 56.5 -192s92.5 -68 164.5 -68c62.667 0 108.334 15.333 137.001 46s43 71.667 43 123v9h-206v108h333v-105v0z" />
    <glyph glyph-name="H" unicode="H" horiz-adv-x="739" 
d="M534 303h-329v-303h-127v716h127v-306h329v306h127v-716h-127v303z" />
    <glyph glyph-name="I" unicode="I" horiz-adv-x="282" 
d="M205 716v-716h-127v716h127z" />
    <glyph glyph-name="J" unicode="J" horiz-adv-x="396" 
d="M325 716l-0.00195312 -551.002c0 -25.333 -3.66699 -48.666 -11 -69.999s-18.666 -39.666 -33.999 -54.999s-35 -27.5 -59 -36.5s-52.667 -13.5 -86 -13.5c-20 0 -39.833 1.66699 -59.5 5s-37.167 8.33301 -52.5 15l20 105c6.66699 -3.33301 16.834 -7 30.501 -11
s29.167 -6 46.5 -6c28 0 48.167 7.5 60.5 22.5s18.5 37.5 18.5 67.5v528h126z" />
    <glyph glyph-name="K" unicode="K" horiz-adv-x="651" 
d="M257 301h-52v-301h-127v716h127v-307h56l228 307h135l-262 -352l272 -364h-150z" />
    <glyph glyph-name="L" unicode="L" horiz-adv-x="549" 
d="M78 716h127v-608h303v-108h-430v716z" />
    <glyph glyph-name="M" unicode="M" horiz-adv-x="883" 
d="M192 539v-539h-114v716h169l194 -469l209 469h155v-716h-127v531l-189 -421h-113z" />
    <glyph glyph-name="N" unicode="N" horiz-adv-x="746" 
d="M192 562v-562h-114v716h164l312 -558v558h115v-716h-163z" />
    <glyph glyph-name="O" unicode="O" horiz-adv-x="779" 
d="M389 -10c-48.667 0 -94.167 7.99902 -136.5 23.999s-79.166 39.5 -110.499 70.5s-56 69.333 -74 115s-27 98.5 -27 158.5s9 112.833 27 158.5s42.667 84 74 115s68.166 54.5 110.499 70.5s87.833 24 136.5 24c49.333 0 95.166 -7.83301 137.499 -23.5
s79.166 -38.667 110.499 -69s56 -68.333 74 -114s27 -98.5 27 -158.5s-9 -113 -27 -159s-42.667 -84.667 -74 -116s-68.166 -55.166 -110.499 -71.499s-88.166 -24.5 -137.499 -24.5zM389 97.999c30.667 0 59.334 4.66699 86.001 14s49.5 24.333 68.5 45s34 47.5 45 80.5
s16.5 73.167 16.5 120.5s-5.5 87.666 -16.5 120.999s-26 60.333 -45 81s-41.833 35.667 -68.5 45s-55.334 14 -86.001 14s-59 -4.66699 -85 -14s-48.667 -24.333 -68 -45s-34.5 -47.667 -45.5 -81s-16.5 -73.666 -16.5 -120.999s5.5 -87.5 16.5 -120.5
s26.167 -59.833 45.5 -80.5s42 -35.667 68 -45s54.333 -14 85 -14z" />
    <glyph glyph-name="P" unicode="P" horiz-adv-x="606" 
d="M205 609v-241h84c48 0 85.833 9.5 113.5 28.5s41.5 51.5 41.5 97.5c0 40 -13 69.167 -39 87.5s-63.333 27.5 -112 27.5h-88zM205 260l0.00195312 -260h-127v716h215c88 0 156.333 -17.333 205 -52s73 -90 73 -166c0 -42 -6.83301 -78 -20.5 -108
s-32.834 -54.667 -57.501 -74s-54.334 -33.5 -89.001 -42.5s-73 -13.5 -115 -13.5h-84z" />
    <glyph glyph-name="Q" unicode="Q" horiz-adv-x="778" 
d="M699 -145c-92.667 23.333 -173.333 47.499 -242 72.499s-130 48.833 -184 71.5c-36 15.333 -68.333 33.666 -97 54.999s-53 46.333 -73 75s-35.333 61.5 -46 98.5s-16 79.5 -16 127.5c0 60 8.83301 113 26.5 159s42 84.667 73 116s67.833 55.166 110.5 71.499
s88.667 24.5 138 24.5c48.667 0 94.167 -7.83301 136.5 -23.5s79.166 -38.667 110.499 -69s56.166 -68.333 74.499 -114s27.5 -98.5 27.5 -158.5c0 -41.333 -4.33301 -80.166 -13 -116.499s-22.667 -69.333 -42 -99s-44.666 -55.667 -75.999 -78s-69.333 -39.833 -114 -52.5
c40.667 -11.333 81.834 -20.666 123.501 -27.999s83.5 -13.666 125.5 -18.999zM389.001 97.999c30.667 0 59.334 4.66699 86.001 14s49.5 24.333 68.5 45s34 47.5 45 80.5s16.5 73.167 16.5 120.5s-5.5 87.666 -16.5 120.999s-26 60.333 -45 81s-41.833 35.667 -68.5 45
s-55.334 14 -86.001 14s-59 -4.66699 -85 -14s-48.667 -24.333 -68 -45s-34.5 -47.667 -45.5 -81s-16.5 -73.666 -16.5 -120.999s5.5 -87.5 16.5 -120.5s26.167 -59.833 45.5 -80.5s42 -35.667 68 -45s54.333 -14 85 -14z" />
    <glyph glyph-name="R" unicode="R" horiz-adv-x="649" 
d="M205 609v-223h103c47.333 0 84.333 8.5 111 25.5s40 47.5 40 91.5c0 38.667 -12.667 66 -38 82s-62 24 -110 24h-106zM302 282l-96.998 -0.000976562v-282h-127v716h233c91.333 0 160.166 -17 206.499 -51s69.5 -88.333 69.5 -163
c0 -59.333 -13.333 -105.166 -40 -137.499s-63.334 -54.833 -110.001 -67.5l182 -297h-145z" />
    <glyph glyph-name="S" unicode="S" horiz-adv-x="596" 
d="M277 -10c-56 0 -103.666 7.17188 -142.999 21.5049s-69.666 29.166 -90.999 44.499l18 110c10 -7.33301 22.5 -15 37.5 -23s31.833 -15.333 50.5 -22s38.667 -12.167 60 -16.5s43.333 -6.5 66 -6.5c46.667 0 84.334 7.5 113.001 22.5s43 39.833 43 74.5
c0 18 -3.66699 33 -11 45s-17.833 22 -31.5 30s-30.334 14.833 -50.001 20.5s-41.834 11.5 -66.501 17.5c-27.333 6.66699 -54.5 14.5 -81.5 23.5s-51.333 21.167 -73 36.5s-39.334 35.166 -53.001 59.499s-20.5 55.166 -20.5 92.499c0 66.667 24 117.667 72 153
s115.333 53 202 53c53.333 0 95.5 -5 126.5 -15s54.833 -19.667 71.5 -29l-17 -110c-23.333 14 -50 25.333 -80 34s-63.333 13 -100 13c-53.333 0 -92 -7.83301 -116 -23.5s-36 -38.167 -36 -67.5c0 -17.333 4.16699 -31.5 12.5 -42.5s19.333 -20.333 33 -28
s29.5 -14 47.5 -19s37 -9.83301 57 -14.5c28 -6.66699 56.333 -14.334 85 -23.001s54.5 -20.834 77.5 -36.501s41.833 -36 56.5 -61s22 -57.167 22 -96.5c0 -41.333 -7.83301 -76 -23.5 -104s-36.667 -50.333 -63 -67s-56.333 -28.5 -90 -35.5s-68.5 -10.5 -104.5 -10.5z
" />
    <glyph glyph-name="T" unicode="T" horiz-adv-x="596" 
d="M362 608v-608h-128v608h-206v108h541v-108h-207z" />
    <glyph glyph-name="U" unicode="U" horiz-adv-x="697" 
d="M63 716h128.002v-460c0 -54 14.833 -93.667 44.5 -119s69.5 -38 119.5 -38c49.333 0 89.166 12.833 119.499 38.5s45.5 65.167 45.5 118.5v460h114v-464c0 -42 -6.83301 -79.333 -20.5 -112s-33 -60 -58 -82s-54.833 -38.833 -89.5 -50.5s-73 -17.5 -115 -17.5
c-41.333 0 -79.5 5.5 -114.5 16.5s-65.333 27.333 -91 49s-45.834 48.667 -60.501 81s-22 69.5 -22 111.5v468z" />
    <glyph glyph-name="V" unicode="V" horiz-adv-x="651" 
d="M11 716h132l188 -598l193 598h116l-230 -716h-168z" />
    <glyph glyph-name="W" unicode="W" horiz-adv-x="951" 
d="M23 716h129l114 -583l149 583h135l146 -573l118 573h114l-148 -716h-166l-137 552l-138 -552h-167z" />
    <glyph glyph-name="X" unicode="X" horiz-adv-x="660" 
d="M318 281l-179 -281h-128l244 372l-225 344h145l169 -261l157 261h127l-222 -348l242 -368h-146z" />
    <glyph glyph-name="Y" unicode="Y" horiz-adv-x="618" 
d="M246 0v305l-237 411h142l166 -302l170 302h123l-236 -411v-305h-128z" />
    <glyph glyph-name="Z" unicode="Z" horiz-adv-x="604" 
d="M41 0v93l364 516h-353v107h504v-93l-365 -515h366v-108h-516z" />
    <glyph glyph-name="bracketleft" unicode="[" horiz-adv-x="288" 
d="M36 756h233v-95h-116v-705h116v-95h-233v895z" />
    <glyph glyph-name="backslash" unicode="\" horiz-adv-x="421" 
d="M3 756h103l312 -876h-103z" />
    <glyph glyph-name="bracketright" unicode="]" horiz-adv-x="288" 
d="M252.002 756h-232.985v-95h115.993v-705h-115.993v-95h232.985v895z" />
    <glyph glyph-name="asciicircum" unicode="^" horiz-adv-x="449" 
d="M225 627l-108 -169h-97l143 258h123l143 -258h-97z" />
    <glyph glyph-name="underscore" unicode="_" horiz-adv-x="408" 
d="M-8 -30h424v-95h-424v95z" />
    <glyph glyph-name="grave" unicode="`" horiz-adv-x="449" 
d="M225 588l-119 158h134l77 -158h-92z" />
    <glyph glyph-name="a" unicode="a" horiz-adv-x="539" 
d="M233 83c16 0 30.333 2.33203 43 6.99902s24.167 10.5 34.5 17.5s19.333 14.833 27 23.5s14.167 17.334 19.5 26.001v79h-59c-50 0 -85.667 -7.33301 -107 -22s-32 -34.667 -32 -60c0 -22 6.33301 -39.333 19 -52s31 -19 55 -19zM370 -0.000976562
c-1.33301 8.66699 -2.83008 19.999 -4.49707 33.999s-2.83398 27.333 -3.50098 40c-7.33301 -10.667 -16 -21 -26 -31s-21.667 -19 -35 -27s-28.5 -14.333 -45.5 -19s-35.833 -7 -56.5 -7c-22 0 -42.833 3.16699 -62.5 9.5s-36.834 15.833 -51.501 28.5
s-26.167 28.334 -34.5 47.001s-12.5 40.667 -12.5 66c0 56 20.667 98.833 62 128.5s105.333 44.5 192 44.5h65v26c0 34 -9 57.5 -27 70.5s-45.333 19.5 -82 19.5c-32 0 -61.167 -4.33301 -87.5 -13s-50.166 -18.667 -71.499 -30l-25 96
c21.333 11.333 49.166 21.833 83.499 31.5s72.5 14.5 114.5 14.5c68.667 0 122 -14.167 160 -42.5s57 -73.833 57 -136.5v-266c0 -6 0.166992 -12.833 0.5 -20.5l1 -23.5c0.333008 -8 0.666016 -15.5 0.999023 -22.5s0.833008 -12.833 1.5 -17.5h-113z" />
    <glyph glyph-name="b" unicode="b" horiz-adv-x="623" 
d="M357 -10c-40 0 -74.334 9.16699 -103.001 27.5s-51.667 43.5 -69 75.5l-4 -93h-114v716h121v-284c17.333 30 40.166 53.667 68.499 71s62.5 26 102.5 26c30.667 0 59.834 -5.5 87.501 -16.5s51.834 -27.667 72.501 -50s37.167 -50.333 49.5 -84s18.5 -73.167 18.5 -118.5
c0 -46 -6.16699 -85.833 -18.5 -119.5s-29 -61.667 -50 -84s-45.5 -39 -73.5 -50s-57.333 -16.5 -88 -16.5zM326.999 90c40 0 72.5 14.167 97.5 42.5s37.5 70.833 37.5 127.5s-12.5 99.167 -37.5 127.5s-57.5 42.5 -97.5 42.5c-20 0 -38.5 -3.5 -55.5 -10.5
s-31.667 -17.5 -44 -31.5s-22.166 -31.667 -29.499 -53s-11 -46.333 -11 -75s3.66699 -53.667 11 -75s17.166 -39 29.499 -53s27 -24.5 44 -31.5s35.5 -10.5 55.5 -10.5z" />
    <glyph glyph-name="c" unicode="c" horiz-adv-x="504" 
d="M311 -10c-41.333 0 -78.998 5.99902 -112.998 17.999s-63 29.5 -87 52.5s-42.667 51.167 -56 84.5s-20 71.333 -20 114c0 42 6.66699 79.833 20 113.5s32 62 56 85s52.667 40.667 86 53s69.666 18.5 108.999 18.5c36 0 67.5 -3.83301 94.5 -11.5s48.833 -17.5 65.5 -29.5
l-25 -94c-17.333 10 -36.166 18.5 -56.499 25.5s-45.5 10.5 -75.5 10.5c-46 0 -82.333 -14.167 -109 -42.5s-40 -71.166 -40 -128.499c0 -55.333 13.667 -97.333 41 -126s65.333 -43 114 -43c27.333 0 50.666 3.33301 69.999 10s37.666 15 54.999 25l25 -94
c-17.333 -11.333 -38.333 -21 -63 -29s-55 -12 -91 -12z" />
    <glyph glyph-name="d" unicode="d" horiz-adv-x="623" 
d="M298 90c19.333 0 37.332 3.5 53.999 10.5s31.334 17.5 44.001 31.5s22.5 31.667 29.5 53s10.5 46.333 10.5 75c0 57.333 -13.167 100 -39.5 128s-58.833 42 -97.5 42c-40 0 -73 -14.333 -99 -43s-39 -71 -39 -127c0 -56.667 12.833 -99.167 38.5 -127.5
s58.5 -42.5 98.5 -42.5zM438.999 95c-16.667 -32 -38.998 -57.5 -66.998 -76.5s-62.667 -28.5 -104 -28.5c-30 0 -59 5.5 -87 16.5s-52.667 27.667 -74 50s-38.5 50.333 -51.5 84s-19.5 73.5 -19.5 119.5c0 45.333 6.5 84.833 19.5 118.5s30.167 61.667 51.5 84
s46.166 39 74.499 50s57.5 16.5 87.5 16.5c38.667 0 71.667 -7.5 99 -22.5s49.666 -36.167 66.999 -63.5v273h121v-716h-111z" />
    <glyph glyph-name="e" unicode="e" horiz-adv-x="561" 
d="M293 435c-34.667 0 -63.166 -10 -85.499 -30s-37.166 -50 -44.499 -90h239c1.33301 40 -7.83398 70 -27.501 90s-46.834 30 -81.501 30zM509.001 40c-3.33301 -2.66699 -9.83301 -6.66602 -19.5 -11.999s-22.334 -10.833 -38.001 -16.5s-34.5 -10.667 -56.5 -15
s-47.333 -6.5 -76 -6.5c-95.333 0 -166.5 23.667 -213.5 71s-70.5 113.666 -70.5 198.999c0 42 6.33301 79.667 19 113s30.334 61.5 53.001 84.5s49.834 40.667 81.501 53s66.5 18.5 104.5 18.5c38.667 0 73.667 -6.33301 105 -19s57.166 -31.667 77.499 -57
s34.5 -57 42.5 -95s8 -82 0 -132h-357c4.66699 -45.333 20.167 -79.333 46.5 -102s65.5 -34 117.5 -34c21.333 0 40.833 1.83301 58.5 5.5s33 8 46 13s24 10 33 15s15.5 9.16699 19.5 12.5z" />
    <glyph glyph-name="f" unicode="f" horiz-adv-x="403" 
d="M224 421l0.000976562 -421.002h-121v421h-62v98h62v9c0 62.667 18.333 111.334 55 146.001s85.667 52 147 52c19.333 0 35.5 -1.16699 48.5 -3.5s24.5 -5.16602 34.5 -8.49902l-19 -96c-5.33301 2 -13 4.16699 -23 6.5s-21.667 3.5 -35 3.5
c-26.667 0 -47.834 -8.16699 -63.501 -24.5s-23.5 -41.5 -23.5 -75.5v-9h145v-98h-145z" />
    <glyph glyph-name="g" unicode="g" horiz-adv-x="613" 
d="M296 121c37.333 0 68.5 12.666 93.5 37.999s37.5 63.666 37.5 114.999c0 52.667 -12.5 91.834 -37.5 117.501s-56.5 38.5 -94.5 38.5s-70 -13 -96 -39s-39 -65 -39 -117c0 -51.333 13 -89.666 39 -114.999s58.333 -38 97 -38zM264 -179.001
c-48 0 -88.665 3.8291 -121.998 11.4961s-59.333 16.834 -78 27.501l24 103c16.667 -9.33301 39.667 -18.666 69 -27.999s65 -14 107 -14c57.333 0 98.666 11.167 123.999 33.5s38 56.5 38 102.5v60c-16 -28.667 -37.333 -51.5 -64 -68.5s-59.334 -25.5 -98.001 -25.5
c-30 0 -58.833 5.16699 -86.5 15.5s-52 26 -73 47s-37.667 47.167 -50 78.5s-18.5 68 -18.5 110c0 42.667 6.16699 79.834 18.5 111.501s29 58.167 50 79.5s45.5 37.333 73.5 48s57.333 16 88 16c40 0 73.667 -8.5 101 -25.5s49 -40.5 65 -70.5v3
c0 12 0.833008 26.5 2.5 43.5s3.5 30.167 5.5 39.5h112c-1.33301 -9.33301 -2.5 -22.666 -3.5 -39.999s-1.5 -31.666 -1.5 -42.999v-374c0 -36.667 -5.33301 -69.834 -16 -99.501s-27.5 -55 -50.5 -76s-52.333 -37.167 -88 -48.5s-78.5 -17 -128.5 -17z" />
    <glyph glyph-name="h" unicode="h" horiz-adv-x="593" 
d="M322 430c-32 0 -59 -6.83301 -81 -20.5s-39.667 -31.167 -53 -52.5v-357h-121v716h121v-189l-1 -91h1c14.667 26 36 48 64 66s63.667 27 107 27c50 0 91.167 -13.667 123.5 -41s48.5 -69 48.5 -125v-363h-121v351c0 29.333 -7.66699 49.833 -23 61.5s-37 17.5 -65 17.5z
" />
    <glyph glyph-name="i" unicode="i" horiz-adv-x="255" 
d="M128 582c-21.333 0 -39.333 7.16699 -54 21.5s-22 31.5 -22 51.5c0 20.667 7.33301 38.167 22 52.5s32.667 21.5 54 21.5s39.166 -7.16699 53.499 -21.5s21.5 -31.833 21.5 -52.5c0 -20 -7.16699 -37.167 -21.5 -51.5s-32.166 -21.5 -53.499 -21.5zM189 519v-519h-122
v519h122z" />
    <glyph glyph-name="j" unicode="j" horiz-adv-x="263" 
d="M136 582c-21.333 0 -39.333 7.16699 -54 21.5s-22 31.5 -22 51.5c0 20.667 7.33301 38.167 22 52.5s32.667 21.5 54 21.5s39.333 -7.16699 54 -21.5s22 -31.833 22 -52.5c0 -20 -7.33301 -37.167 -22 -51.5s-32.667 -21.5 -54 -21.5zM-23 -87
c38 2.66699 64 14.332 78 34.999s21 46.334 21 77.001v494h121v-501c0 -62 -17.167 -110.833 -51.5 -146.5s-84.833 -55.167 -151.5 -58.5z" />
    <glyph glyph-name="k" unicode="k" horiz-adv-x="543" 
d="M234 209h-46v-209h-121v716h121v-410h48l162 213h126l-193 -250l203 -269h-142z" />
    <glyph glyph-name="l" unicode="l" horiz-adv-x="255" 
d="M188 716v-716h-121v716h121z" />
    <glyph glyph-name="m" unicode="m" horiz-adv-x="896" 
d="M188 0l-121 -0.00195312v519h112l7 -83h2c14 26 34.167 48 60.5 66s60.5 27 102.5 27c38 0 70.333 -8.66699 97 -26s45 -44 55 -80c14.667 32 36.5 57.667 65.5 77s64.167 29 105.5 29c47.333 0 86 -13.667 116 -41s45 -68.666 45 -123.999v-364h-122v348
c0 28.667 -7.33301 49.5 -22 62.5s-34 19.5 -58 19.5c-30 0 -54.333 -7.83301 -73 -23.5s-34.667 -34.5 -48 -56.5v-350h-122v355c0 28.667 -7.33301 48.334 -22 59.001s-33.667 16 -57 16c-30.667 0 -55.5 -6.83301 -74.5 -20.5s-35.167 -31.167 -48.5 -52.5v-357z" />
    <glyph glyph-name="n" unicode="n" horiz-adv-x="593" 
d="M322 430c-32 0 -58.999 -6.83398 -80.999 -20.501s-39.667 -31.167 -53 -52.5v-357h-121v519h114l5 -83h2c14 26.667 35.167 48.834 63.5 66.501s64.166 26.5 107.499 26.5c50 0 91.167 -13.667 123.5 -41s48.5 -69 48.5 -125v-363h-121v351
c0 29.333 -7.66699 49.833 -23 61.5s-37 17.5 -65 17.5z" />
    <glyph glyph-name="o" unicode="o" horiz-adv-x="588" 
d="M293 -10c-36.667 0 -70.667 6 -102 18s-58.5 29.5 -81.5 52.5s-41.167 51.167 -54.5 84.5s-20 71.666 -20 114.999s6.66699 81.666 20 114.999s31.5 61.5 54.5 84.5s50.167 40.333 81.5 52s65.333 17.5 102 17.5s71 -5.83301 103 -17.5s59.667 -29 83 -52
s41.666 -51.167 54.999 -84.5s20 -71.666 20 -114.999s-6.66699 -81.666 -20 -114.999s-31.666 -61.5 -54.999 -84.5s-51 -40.5 -83 -52.5s-66.333 -18 -103 -18zM293 89c39.333 0 71.833 13.833 97.5 41.5s38.5 70.834 38.5 129.501c0 28.667 -3.5 53.667 -10.5 75
s-16.5 39 -28.5 53s-26.333 24.5 -43 31.5s-34.667 10.5 -54 10.5c-38 0 -69.667 -13.833 -95 -41.5s-38 -70.5 -38 -128.5c0 -58.667 12.667 -101.834 38 -129.501s57 -41.5 95 -41.5z" />
    <glyph glyph-name="p" unicode="p" horiz-adv-x="623" 
d="M327 90c40 0 72.5 14.167 97.5 42.5s37.5 70.833 37.5 127.5s-12.5 99.167 -37.5 127.5s-57.5 42.5 -97.5 42.5c-20 0 -38.5 -3.5 -55.5 -10.5s-31.667 -17.5 -44 -31.5s-22.166 -31.667 -29.499 -53s-11 -46.333 -11 -75s3.66699 -53.667 11 -75s17.166 -39 29.499 -53
s27 -24.5 44 -31.5s35.5 -10.5 55.5 -10.5zM357 -10c-39.333 0 -73 8.83301 -101 26.5s-50.667 41.5 -68 71.5v-265h-121v696h112l7 -90c17.333 30.667 40.166 55 68.499 73s63.166 27 104.499 27c30.667 0 59.834 -5.5 87.501 -16.5s51.834 -27.667 72.501 -50
s37.167 -50.333 49.5 -84s18.5 -73.167 18.5 -118.5c0 -46 -6.16699 -85.833 -18.5 -119.5s-29 -61.667 -50 -84s-45.5 -39 -73.5 -50s-57.333 -16.5 -88 -16.5z" />
    <glyph glyph-name="q" unicode="q" horiz-adv-x="623" 
d="M435 -177l0.00195312 263.998c-16.667 -30 -38.667 -53.667 -66 -71s-61 -26 -101 -26c-30 0 -59 5.5 -87 16.5s-52.667 27.667 -74 50s-38.5 50.333 -51.5 84s-19.5 73.5 -19.5 119.5c0 45.333 6.5 84.833 19.5 118.5s30.167 61.667 51.5 84s46.166 39 74.499 50
s57.5 16.5 87.5 16.5c40 0 74.167 -8.16699 102.5 -24.5s51.166 -39.5 68.499 -69.5v1c0 12 0.833008 26.5 2.5 43.5s3.5 30.167 5.5 39.5h113c-1.33301 -9.33301 -2.5 -22.666 -3.5 -39.999s-1.5 -31.666 -1.5 -42.999v-613h-121zM298.002 89.998
c19.333 0 37.332 3.5 53.999 10.5s31.334 17.5 44.001 31.5s22.5 31.667 29.5 53s10.5 46.333 10.5 75s-3.5 53.667 -10.5 75s-16.667 39 -29 53s-26.833 24.5 -43.5 31.5s-34.667 10.5 -54 10.5c-40 0 -73 -14.333 -99 -43s-39 -71 -39 -127
c0 -56.667 12.833 -99.167 38.5 -127.5s58.5 -42.5 98.5 -42.5z" />
    <glyph glyph-name="r" unicode="r" horiz-adv-x="390" 
d="M361 402c-38 1.33301 -72.167 -4.16797 -102.5 -16.501s-53.833 -31.166 -70.5 -56.499v-329h-121v519h112l7 -108h2c17.333 33.333 40.5 60.5 69.5 81.5s63.5 33.167 103.5 36.5v-127v0z" />
    <glyph glyph-name="s" unicode="s" horiz-adv-x="483" 
d="M240 -9c-50 0 -91.166 5.00488 -123.499 15.0049s-57.166 21 -74.499 33l24 94c17.333 -12.667 40.666 -23.834 69.999 -33.501s63.666 -14.5 102.999 -14.5c29.333 0 52.5 5.16699 69.5 15.5s25.5 26.5 25.5 48.5c0 13.333 -3.16699 23.666 -9.5 30.999
s-14.833 13.166 -25.5 17.499s-23.167 7.66602 -37.5 9.99902l-45.5 7.5c-20 3.33301 -40 8.16602 -60 14.499s-38 15.333 -54 27s-29 26.5 -39 44.5s-15 40.667 -15 68c0 50 17.833 89 53.5 117s86.5 42 152.5 42c39.333 0 73.333 -3.5 102 -10.5
s51.334 -15.167 68.001 -24.5l-26 -90c-16.667 9.33301 -36.167 17 -58.5 23s-49.5 9 -81.5 9c-34 0 -59 -4.5 -75 -13.5s-24 -23.833 -24 -44.5c0 -10.667 3 -19.167 9 -25.5s14 -11.5 24 -15.5s21.833 -7.33301 35.5 -10s28.5 -5.33398 44.5 -8.00098
c20 -4 40.5 -8.83301 61.5 -14.5s40 -14.167 57 -25.5s30.833 -26.5 41.5 -45.5s16 -43.833 16 -74.5c0 -31.333 -6.16699 -57.666 -18.5 -78.999s-28.333 -38.5 -48 -51.5s-41.834 -22.333 -66.501 -28s-49.667 -8.5 -75 -8.5z" />
    <glyph glyph-name="t" unicode="t" horiz-adv-x="394" 
d="M363 15c-12.667 -7.33301 -29.5 -13.333 -50.5 -18s-42.833 -7 -65.5 -7c-28 0 -52.167 3.83301 -72.5 11.5s-36.833 18.167 -49.5 31.5s-22 29 -28 47s-9 37.667 -9 59v282h-62v98h62v109h122v-109h148v-98h-148v-269c0 -41.333 19.667 -62 59 -62c14 0 27.333 2 40 6
s24 8.66699 34 14l20 -95v0z" />
    <glyph glyph-name="u" unicode="u" horiz-adv-x="585" 
d="M397 83c-14 -26 -34.6641 -47.9971 -61.9971 -65.9971s-63 -27 -107 -27c-49.333 0 -89.5 14.167 -120.5 42.5s-46.5 71.166 -46.5 128.499v358h123v-354c0 -14.667 2.16699 -26.834 6.5 -36.501s10.333 -17.334 18 -23.001s16.667 -9.66699 27 -12
s21.166 -3.5 32.499 -3.5c31.333 0 57.166 6.66699 77.499 20s37.166 31 50.499 53v356h122v-519h-111l-8 83h-2v0z" />
    <glyph glyph-name="v" unicode="v" horiz-adv-x="523" 
d="M15 519h127l126 -410l132 410h115l-173 -519h-162z" />
    <glyph glyph-name="w" unicode="w" horiz-adv-x="803" 
d="M26 519h123l86 -401l111 401h123l109 -400l85 400h114l-116 -519h-163l-97 365l-98 -365h-160z" />
    <glyph glyph-name="x" unicode="x" horiz-adv-x="531" 
d="M255 188l-125 -188h-116l182 268l-166 251h138l114 -171l106 171h117l-164 -251l177 -268h-138z" />
    <glyph glyph-name="y" unicode="y" horiz-adv-x="540" 
d="M133 -187c-15.333 0 -30.665 1.16602 -45.998 3.49902s-27.666 5.5 -36.999 9.5l15 98c7.33301 -2.66699 16 -5 26 -7s21.667 -3 35 -3c20.667 0 38 4.5 52 13.5s26.333 22.833 37 41.5l-202 550h129l136 -396l135 396h114l-181 -513
c-11.333 -31.333 -23.333 -59 -36 -83s-27.334 -44.167 -44.001 -60.5s-35.834 -28.666 -57.501 -36.999s-46.834 -12.5 -75.501 -12.5z" />
    <glyph glyph-name="z" unicode="z" horiz-adv-x="478" 
d="M36 0v82l256 342h-248v95h396v-77l-256 -346h256v-96h-404z" />
    <glyph glyph-name="braceleft" unicode="{" horiz-adv-x="288" 
d="M274 -140c-37.333 -4 -68.833 -3.33301 -94.5 2s-46.834 14.333 -63.501 27s-28.667 28.334 -36 47.001s-11 39.667 -11 63c0 16 1.66699 30.333 5 43s7.16602 25.167 11.499 37.5s8.16602 25 11.499 38s5 27.167 5 42.5c0 12.667 -1 24.834 -3 36.501
s-6.16699 21.834 -12.5 30.501s-15.333 16 -27 22s-26.834 10 -45.501 12v95c18.667 2 33.834 6 45.501 12s20.667 13.333 27 22s10.5 18.667 12.5 30s3 23.666 3 36.999c0 15.333 -1.66699 29.5 -5 42.5s-7.16602 25.667 -11.499 38s-8.16602 25.166 -11.499 38.499
s-5 28 -5 44c0 22 3.66699 42.5 11 61.5s19 34.833 35 47.5s37 21.667 63 27s58 5.66602 96 0.999023v-90c-32 4 -54.5 -0.5 -67.5 -13.5s-19.5 -31.833 -19.5 -56.5c0 -14 1.33301 -27 4 -39s5.66699 -24 9 -36s6.33301 -24.167 9 -36.5s4 -25.833 4 -40.5
c0 -12 -1.33301 -24.333 -4 -37s-7.83398 -25.167 -15.501 -37.5s-18.667 -23.833 -33 -34.5s-32.833 -20 -55.5 -28c22.667 -7.33301 41.167 -16.333 55.5 -27s25.333 -22 33 -34s12.834 -24.5 15.501 -37.5s4 -25.5 4 -37.5c0 -14 -1.33301 -27.167 -4 -39.5
s-5.66699 -24.5 -9 -36.5s-6.33301 -24 -9 -36s-4 -25 -4 -39c0 -25.333 6.33301 -44.5 19 -57.5s35.334 -17.167 68.001 -12.5v-91v0z" />
    <glyph glyph-name="bar" unicode="|" horiz-adv-x="281" 
d="M190 756v-876h-98v876h98z" />
    <glyph glyph-name="braceright" unicode="}" horiz-adv-x="288" 
d="M14.0166 -140c37.3311 -4 68.8311 -3.33301 94.4961 2s46.8301 14.333 63.4951 27c16.666 12.667 28.665 28.334 35.998 47.001s10.999 39.667 10.999 63c0 16 -1.66602 30.333 -4.99902 43s-7.16602 25.167 -11.499 37.5s-8.16602 25 -11.499 38s-5 27.167 -5 42.5
c0 12.667 1 24.834 3 36.501s6.16602 21.834 12.499 30.501s15.333 16 26.999 22s26.832 10 45.4971 12v95c-18.665 2 -33.8311 6 -45.4971 12s-20.666 13.333 -26.999 22s-10.499 18.667 -12.499 30s-3 23.666 -3 36.999c0 15.333 1.66699 29.5 5 42.5
s7.16602 25.667 11.499 38s8.16602 25.166 11.499 38.499s4.99902 28 4.99902 44c0 22 -3.66602 42.5 -10.999 61.5s-18.999 34.833 -34.998 47.5s-36.998 21.667 -62.9971 27c-25.998 5.33301 -57.9961 5.66602 -95.9941 0.999023v-90c31.998 4 54.4971 -0.5 67.4961 -13.5
s19.499 -31.833 19.499 -56.5c0 -14 -1.33301 -27 -4 -39s-5.66699 -24 -9 -36s-6.33301 -24.167 -9 -36.5s-4 -25.833 -4 -40.5c0 -12 1.33301 -24.333 4 -37s7.83301 -25.167 15.499 -37.5s18.665 -23.833 32.998 -34.5s32.832 -20 55.4971 -28
c-22.665 -7.33301 -41.1641 -16.333 -55.4971 -27s-25.332 -22 -32.998 -34s-12.832 -24.5 -15.499 -37.5s-4 -25.5 -4 -37.5c0 -14 1.33301 -27.167 4 -39.5s5.66699 -24.5 9 -36.5s6.33301 -24 9 -36s4 -25 4 -39c0 -25.333 -6.33301 -44.5 -18.999 -57.5
s-35.3311 -17.167 -67.9961 -12.5v-91v0z" />
    <glyph glyph-name="asciitilde" unicode="~" horiz-adv-x="633" 
d="M51 241c-2.66699 24 -1.66895 47.332 2.99805 69.999s13 42.834 25 60.501s28.333 31.834 49 42.501s45.667 16 75 16c28.667 0 53.667 -4.66699 75 -14s40.5 -19.5 57.5 -30.5l48 -30.5c15 -9.33301 30.833 -14 47.5 -14c21.333 0 37 7.5 47 22.5s14.667 39.5 14 73.5
h89c2.66699 -23.333 1.66699 -46.333 -3 -69s-13 -42.834 -25 -60.501s-28.333 -32 -49 -43s-45.667 -16.5 -75 -16.5c-28.667 0 -53.5 4.66699 -74.5 14s-40.167 19.5 -57.5 30.5l-48 30.5c-14.667 9.33301 -30 14 -46 14c-21.333 0 -37.166 -7.5 -47.499 -22.5
s-15.166 -39.5 -14.499 -73.5h-90v0z" />
    <glyph glyph-name="uni00A0" unicode="&#xa0;" horiz-adv-x="196" 
 />
    <glyph glyph-name="exclamdown" unicode="&#xa1;" horiz-adv-x="294" 
d="M78.0127 -194.956l14.999 502.969h95.9941l13.999 -502.969h-124.992zM141.009 528c11.333 0 21.999 -2.16699 31.998 -6.5s18.665 -10.166 25.998 -17.499s13.166 -15.832 17.499 -25.498s6.5 -19.832 6.5 -30.498c0 -21.999 -7.83301 -40.665 -23.498 -55.998
c-15.666 -15.332 -35.165 -22.998 -58.4971 -22.998s-42.6641 7.66602 -57.9961 22.998c-15.333 15.333 -22.999 33.999 -22.999 55.998c0 10.666 2 20.832 6 30.498s9.66602 18.165 16.999 25.498s15.999 13.166 25.998 17.499s20.665 6.5 31.998 6.5z" />
    <glyph glyph-name="cent" unicode="&#xa2;" 
d="M273 -146v141.999c-17.333 2.66699 -33.666 6.66699 -48.999 12c-34 12 -63 29.5 -87 52.5s-42.667 51.167 -56 84.5s-20 71.333 -20 114c0 42 6.66699 79.833 20 113.5s32 62 56 85s52.667 40.5 86 52.5c17.333 6.66699 35.666 11.667 54.999 15v128h107v-127
c14.667 -2 28.334 -5 41.001 -9c27.333 -7.33301 49.333 -17 66 -29l-25 -94c-17.333 10 -36.166 18.5 -56.499 25.5s-45.5 10.5 -75.5 10.5c-46 0 -82.333 -14.167 -109 -42.5s-40 -71.166 -40 -128.499c0 -55.333 13.667 -97.333 41 -126s65.333 -43 114 -43
c27.333 0 50.666 3.33301 69.999 10s37.666 15 54.999 25l25 -94c-17.333 -11.333 -38.333 -21 -63 -29c-14 -4.66699 -30 -8 -48 -10v-138h-107z" />
    <glyph glyph-name="sterling" unicode="&#xa3;" 
d="M517 0l-468.999 -0.00390625v66c34 26 58.167 51.833 72.5 77.5s21.5 54.167 21.5 85.5c0 11.333 -0.666992 22.333 -2 33s-3 21 -5 31h-93v94h64c-7.33301 19.333 -13.666 39.333 -18.999 60s-8 43 -8 67c0 64.667 20.667 116.334 62 155.001s101.666 58 180.999 58
c40 0 73.667 -3.66699 101 -11s47.666 -14.666 60.999 -21.999l-23 -97c-13.333 7.33301 -31.833 14 -55.5 20s-48.167 9 -73.5 9c-23.333 0 -43.166 -3 -59.499 -9s-29.5 -14.167 -39.5 -24.5s-17.167 -22.833 -21.5 -37.5s-6.5 -31 -6.5 -49
c0.666992 -23.333 3.66699 -44.166 9 -62.499s11.666 -37.166 18.999 -56.499h171v-94h-149c0.666992 -5.33301 1.16699 -11 1.5 -17s0.5 -12.333 0.5 -19c0 -27.333 -4.5 -54 -13.5 -80s-25.833 -51.667 -50.5 -77h324v-100z" />
    <glyph glyph-name="currency" unicode="&#xa4;" horiz-adv-x="570" 
d="M395 167c-15.333 -9.33301 -32.501 -16.8311 -51.501 -22.498s-38.833 -8.5 -59.5 -8.5s-40.334 2.66699 -59.001 8s-36 12.666 -52 21.999l-70 -70l-63 64l67 68c-11.333 16.667 -20 34.667 -26 54s-9 40 -9 62c0 22.667 3 43.667 9 63s14.667 37.333 26 54l-69 69
l63 65l71 -72c16.667 9.33301 34.334 16.666 53.001 21.999s38.334 8 59.001 8c21.333 0 41.333 -2.83301 60 -8.5s36 -13.167 52 -22.5l72 73l64 -65l-69 -69c10.667 -16.667 19 -34.667 25 -54s9 -40.333 9 -63c0 -22 -3 -42.5 -9 -61.5s-14.333 -36.833 -25 -53.5l67 -69
l-65 -64zM284.999 461.002c-28.667 0 -53.501 -10.167 -74.501 -30.5s-31.5 -49.166 -31.5 -86.499c0 -18 2.83301 -34.167 8.5 -48.5s13.334 -26.5 23.001 -36.5s21 -17.667 34 -23s26.5 -8 40.5 -8c29.333 0 54.333 10.333 75 31s31 49 31 85
c0 37.333 -10.333 66.166 -31 86.499s-45.667 30.5 -75 30.5z" />
    <glyph glyph-name="yen" unicode="&#xa5;" 
d="M341 134v-134h-122v134h-156v85h156v65h-156v85h132l-185 347h134l141 -287l147 287h116l-183 -347h132v-85h-156v-65h156v-85h-156z" />
    <glyph glyph-name="brokenbar" unicode="&#xa6;" horiz-adv-x="281" 
d="M190 756v-400h-98v400h98zM190 280v-400h-98v400h98z" />
    <glyph glyph-name="section" unicode="&#xa7;" horiz-adv-x="582" 
d="M302 184c40 0 70.833 8 92.5 24s32.5 37.333 32.5 64c0 56 -46.333 84 -139 84c-90 0 -135 -27.667 -135 -83c0 -16.667 4.33301 -30.667 13 -42s20.167 -20.5 34.5 -27.5s30.333 -12 48 -15s35.5 -4.5 53.5 -4.5zM261 -197c-54 0 -98.5 5.66895 -133.5 17.002
s-62.167 23 -81.5 35l21 96c19.333 -12 46 -23.833 80 -35.5s72 -17.5 114 -17.5c38 0 69.167 6.66699 93.5 20s36.5 35 36.5 65c0 16 -3.33301 29.167 -10 39.5s-16.167 19.333 -28.5 27s-27.666 14.167 -45.999 19.5s-39.5 10.666 -63.5 15.999
c-25.333 6 -50.166 13 -74.499 21s-46 18.5 -65 31.5s-34.167 29.5 -45.5 49.5s-17 45 -17 75c0 37.333 11.333 68.333 34 93s53.667 42 93 52c-33.333 16.667 -57.333 36.5 -72 59.5s-22 49.833 -22 80.5c0 57.333 21.833 101.5 65.5 132.5s104.834 46.5 183.501 46.5
c47.333 0 85.166 -4.33301 113.499 -13s50.166 -17.334 65.499 -26.001l-22 -95c-19.333 12 -42.166 21.667 -68.499 29s-55.833 11 -88.5 11c-47.333 0 -81.5 -6.83301 -102.5 -20.5s-31.5 -32.834 -31.5 -57.501c0 -15.333 3.66699 -28.166 11 -38.499
s17.333 -19.166 30 -26.499s27.667 -13.333 45 -18s36 -9 56 -13c24 -4.66699 48.333 -10.834 73 -18.501s47.167 -18.5 67.5 -32.5s36.833 -31.667 49.5 -53s19 -48.333 19 -81c0 -38 -10.833 -68.5 -32.5 -91.5s-51.834 -39.833 -90.501 -50.5
c31.333 -14.667 54.166 -34 68.499 -58s21.5 -51 21.5 -81c0 -35.333 -7.16699 -65 -21.5 -89s-33 -43.5 -56 -58.5s-49.167 -25.667 -78.5 -32s-59.333 -9.5 -90 -9.5z" />
    <glyph glyph-name="dieresis" unicode="&#xa8;" horiz-adv-x="449" 
d="M335 585c-21.333 0 -38.833 6.83301 -52.5 20.5s-20.5 30.167 -20.5 49.5c0 20 6.83301 36.833 20.5 50.5s31.167 20.5 52.5 20.5c20 0 37.167 -6.83301 51.5 -20.5s21.5 -30.5 21.5 -50.5c0 -19.333 -7.16699 -35.833 -21.5 -49.5s-31.5 -20.5 -51.5 -20.5zM113 585
c-20 0 -36.833 6.83301 -50.5 20.5s-20.5 30.167 -20.5 49.5c0 20 6.83301 36.833 20.5 50.5s30.5 20.5 50.5 20.5c21.333 0 39 -6.83301 53 -20.5s21 -30.5 21 -50.5c0 -19.333 -7 -35.833 -21 -49.5s-31.667 -20.5 -53 -20.5z" />
    <glyph glyph-name="copyright" unicode="&#xa9;" horiz-adv-x="894" 
d="M447 -101c-58 0 -111.833 10.333 -161.5 31s-93 49.5 -130 86.5s-66 81 -87 132s-31.5 106.833 -31.5 167.5s10.5 116.334 31.5 167.001s50 94.334 87 131.001s80.333 65.334 130 86.001s103.5 31 161.5 31s112 -10.333 162 -31s93.333 -49.334 130 -86.001
s65.5 -80.334 86.5 -131.001s31.5 -106.334 31.5 -167.001s-10.5 -116.5 -31.5 -167.5s-49.833 -95 -86.5 -132s-80 -65.833 -130 -86.5s-104 -31 -162 -31zM447 -29c49.333 0 94.333 8.5 135 25.5s75.5 40.833 104.5 71.5s51.5 67.167 67.5 109.5s24 88.5 24 138.5
s-8 96.167 -24 138.5s-38.5 78.666 -67.5 108.999s-63.833 54 -104.5 71s-85.667 25.5 -135 25.5s-94.333 -8.5 -135 -25.5s-75.5 -40.667 -104.5 -71s-51.5 -66.666 -67.5 -108.999s-24 -88.5 -24 -138.5s8 -96.167 24 -138.5s38.5 -78.833 67.5 -109.5
s63.833 -54.5 104.5 -71.5s85.667 -25.5 135 -25.5zM470 100c-33.333 0 -63.666 4.83301 -90.999 14.5s-50.5 23.834 -69.5 42.501s-33.667 41.167 -44 67.5s-15.5 56.166 -15.5 89.499c0 34 5.16699 64.167 15.5 90.5s25.166 48.833 44.499 67.5s42.333 32.834 69 42.501
s56.667 14.5 90 14.5c28 0 52.167 -2.83301 72.5 -8.5s36.166 -12.167 47.499 -19.5l-24 -84c-11.333 8.66699 -25.166 15.167 -41.499 19.5s-33.833 6.5 -52.5 6.5c-37.333 0 -66.333 -10.5 -87 -31.5s-31 -53.5 -31 -97.5c0 -43.333 10 -75.333 30 -96s48.333 -31 85 -31
c41.333 0 74 9.66699 98 29l25 -83c-10.667 -8.66699 -26 -16.334 -46 -23.001s-45 -10 -75 -10z" />
    <glyph glyph-name="ordfeminine" unicode="&#xaa;" horiz-adv-x="476" 
d="M210 398c20.667 0 37.667 4.33203 51 12.999s24 18.834 32 30.501s13.5 23 16.5 34s4.5 18.833 4.5 23.5v25h-58c-38 0 -65.667 -5.83301 -83 -17.5s-26 -28.167 -26 -49.5c0 -39.333 21 -59 63 -59zM317 397.999c-4.66699 -10 -10.834 -20 -18.501 -30s-17 -19 -28 -27
s-24.167 -14.5 -39.5 -19.5s-33 -7.5 -53 -7.5c-19.333 0 -37.666 2.66699 -54.999 8s-32.333 13.5 -45 24.5s-22.667 24.667 -30 41s-11 35.5 -11 57.5c0 49.333 17.833 86.166 53.5 110.499s84.834 36.5 147.501 36.5h76v26c0 28.667 -7.33301 48.334 -22 59.001
s-37 16 -67 16s-56.833 -4 -80.5 -12s-44.834 -17 -63.501 -27l-17 88c19.333 10 44 19.167 74 27.5s62.333 12.5 97 12.5c60.667 0 107.334 -12.167 140.001 -36.5s49 -63.166 49 -116.499v-234c0 -4.66699 0.166992 -10.334 0.5 -17.001l1 -20l1 -19.5
c0.333008 -6.33301 0.833008 -11.5 1.5 -15.5h-103c-1.33301 8.66699 -2.83301 20 -4.5 34s-2.83398 26.667 -3.50098 38v3z" />
    <glyph glyph-name="guillemotleft" unicode="&#xab;" horiz-adv-x="528" 
d="M165 64l-130 203l130 202h119l-130 -202l130 -203h-119zM382 64l-130 203l130 202h119l-130 -202l130 -203h-119z" />
    <glyph glyph-name="logicalnot" unicode="&#xac;" horiz-adv-x="597" 
d="M444 92v200h-394v90h495v-290h-101z" />
    <glyph glyph-name="registered" unicode="&#xae;" horiz-adv-x="894" 
d="M447 -101c-58 0 -111.833 10.333 -161.5 31s-93 49.5 -130 86.5s-66 81 -87 132s-31.5 106.833 -31.5 167.5s10.5 116.334 31.5 167.001s50 94.334 87 131.001s80.333 65.334 130 86.001s103.5 31 161.5 31s112 -10.333 162 -31s93.333 -49.334 130 -86.001
s65.5 -80.334 86.5 -131.001s31.5 -106.334 31.5 -167.001s-10.5 -116.5 -31.5 -167.5s-49.833 -95 -86.5 -132s-80 -65.833 -130 -86.5s-104 -31 -162 -31zM447 -29c49.333 0 94.333 8.5 135 25.5s75.5 40.833 104.5 71.5s51.5 67.167 67.5 109.5s24 88.5 24 138.5
s-8 96.167 -24 138.5s-38.5 78.666 -67.5 108.999s-63.833 54 -104.5 71s-85.667 25.5 -135 25.5s-94.333 -8.5 -135 -25.5s-75.5 -40.667 -104.5 -71s-51.5 -66.666 -67.5 -108.999s-24 -88.5 -24 -138.5s8 -96.167 24 -138.5s38.5 -78.833 67.5 -109.5
s63.833 -54.5 104.5 -71.5s85.667 -25.5 135 -25.5zM390 445l0.000976562 -109h55c23.333 0 41.166 4 53.499 12s18.5 22.333 18.5 43c0 20 -6.16699 34 -18.5 42s-30.5 12 -54.5 12h-54zM440.001 259h-50v-152h-98v418h152c57.333 0 100.333 -10.5 129 -31.5
s43 -54.5 43 -100.5c0 -32 -6.83301 -57.5 -20.5 -76.5s-32.5 -32.833 -56.5 -41.5l95 -168h-108z" />
    <glyph glyph-name="macron" unicode="&#xaf;" horiz-adv-x="449" 
d="M73 692h303v-88h-303v88z" />
    <glyph glyph-name="degree" unicode="&#xb0;" horiz-adv-x="502" 
d="M251 357c-26.667 0 -51.334 4.66699 -74.001 14s-42.167 22.333 -58.5 39s-29.166 36.334 -38.499 59.001s-14 47.667 -14 75s4.66699 52.5 14 75.5s22.166 42.667 38.499 59s35.833 29.166 58.5 38.499s47.334 14 74.001 14s51.334 -4.66699 74.001 -14
s42.167 -22.166 58.5 -38.499s29.166 -36 38.499 -59s14 -48.167 14 -75.5s-4.66699 -52.333 -14 -75s-22.166 -42.334 -38.499 -59.001s-35.833 -29.667 -58.5 -39s-47.334 -14 -74.001 -14zM251 434c32 0 57.333 9.83301 76 29.5s28 46.5 28 80.5s-9.33301 61 -28 81
s-44 30 -76 30s-57.333 -10 -76 -30s-28 -47 -28 -81s9.33301 -60.833 28 -80.5s44 -29.5 76 -29.5z" />
    <glyph glyph-name="plusminus" unicode="&#xb1;" 
d="M328 302v-161h-101v161h-197v90h197v200h101v-200h197v-90h-197zM30 0v90h495v-90h-495z" />
    <glyph glyph-name="two.sup" unicode="&#xb2;" horiz-adv-x="387" 
d="M32 325v91.998c37.333 26.667 69.166 50.667 95.499 72s47.666 40.833 63.999 58.5s28.166 33.834 35.499 48.501s11 28.667 11 42c0 21.333 -6.66699 37.833 -20 49.5s-33 17.5 -59 17.5c-23.333 0 -43.833 -3 -61.5 -9s-32.167 -12.667 -43.5 -20l-12 78
c11.333 7.33301 28.333 13.833 51 19.5s48.334 8.5 77.001 8.5c55.333 0 97.666 -11.833 126.999 -35.5s44 -58.5 44 -104.5c0 -19.333 -4.16699 -38.166 -12.5 -56.499s-21.166 -37 -38.499 -56s-39.166 -38.5 -65.499 -58.5s-57.166 -41.667 -92.499 -65h212v-81h-312z
" />
    <glyph glyph-name="three.sup" unicode="&#xb3;" horiz-adv-x="382" 
d="M160 319c-30.667 0 -57.3291 2.66699 -79.9961 8s-40.334 11.666 -53.001 18.999l12 78c11.333 -6 26 -12 44 -18s38.667 -9 62 -9c34 0 58 5.33301 72 16s21 26 21 46c0 20.667 -6.83301 36 -20.5 46s-32.834 15 -57.501 15h-58v77h60
c19.333 0 34.666 4.66699 45.999 14s17 23.333 17 42c0 17.333 -6 30.333 -18 39s-31 13 -57 13c-19.333 0 -37.833 -2.83301 -55.5 -8.5s-32.167 -11.834 -43.5 -18.501l-13 77c12.667 6.66699 29.667 12.834 51 18.501s47 8.5 77 8.5c52 0 91.667 -11 119 -33
s41 -51 41 -87c0 -27.333 -8 -49.5 -24 -66.5s-35 -28.167 -57 -33.5c27.333 -3.33301 50.166 -14.166 68.499 -32.499s27.5 -42.833 27.5 -73.5c0 -42 -15.667 -75.333 -47 -100s-76 -37 -134 -37z" />
    <glyph glyph-name="acute" unicode="&#xb4;" horiz-adv-x="449" 
d="M213 746h134l-119 -158h-93z" />
    <glyph glyph-name="paragraph" unicode="&#xb6;" horiz-adv-x="652" 
d="M575 -187h-101v903h101v-903zM294 -187l-0.000976562 461h-1c-37.333 0 -71.333 4.66699 -102 14s-57 23.166 -79 41.499s-39.167 41.333 -51.5 69s-18.5 59.834 -18.5 96.501c0 72.667 21.333 127.667 64 165s102.334 56 179.001 56h110v-903h-101z" />
    <glyph glyph-name="periodcentered" unicode="&#xb7;" horiz-adv-x="262" 
d="M132 204c-23.333 0 -43 8 -59 24s-24 35 -24 57c0 22.667 8 41.834 24 57.501s35.667 23.5 59 23.5s42.833 -7.83301 58.5 -23.5s23.5 -34.834 23.5 -57.501c0 -22 -7.83301 -41 -23.5 -57s-35.167 -24 -58.5 -24z" />
    <glyph glyph-name="cedilla" unicode="&#xb8;" horiz-adv-x="449" 
d="M298 20l-57 -202h-127l88 202h96z" />
    <glyph glyph-name="one.sup" unicode="&#xb9;" horiz-adv-x="313" 
d="M142 325v340l-102 -95v102l112 105h91v-452h-101z" />
    <glyph glyph-name="ordmasculine" unicode="&#xba;" horiz-adv-x="512" 
d="M256 314c-32 0 -61.833 5.16699 -89.5 15.5s-51.667 25.5 -72 45.5s-36.166 44.5 -47.499 73.5s-17 62.5 -17 100.5c0 37.333 5.66699 70.5 17 99.5s27.166 53.333 47.499 73s44.333 34.667 72 45s57.5 15.5 89.5 15.5s61.833 -5.16699 89.5 -15.5s51.667 -25.333 72 -45
s36.333 -44 48 -73s17.5 -62.167 17.5 -99.5c0 -38 -5.83301 -71.5 -17.5 -100.5s-27.667 -53.5 -48 -73.5s-44.333 -35.167 -72 -45.5s-57.5 -15.5 -89.5 -15.5zM256 404c32.667 0 59.667 11.833 81 35.5s32 60.167 32 109.5s-10.667 85.666 -32 108.999s-48.333 35 -81 35
c-32 0 -58.667 -11.667 -80 -35s-32 -59.666 -32 -108.999s10.667 -85.833 32 -109.5s48 -35.5 80 -35.5z" />
    <glyph glyph-name="guillemotright" unicode="&#xbb;" horiz-adv-x="526" 
d="M160 267l-130 202h119l130 -202l-130 -203h-119zM376 267l-129 202h119l130 -202l-130 -203h-119z" />
    <glyph glyph-name="onequarter" unicode="&#xbc;" horiz-adv-x="921" 
d="M136 0l572 716h98l-571 -716h-99zM743 337l-118 -166h118v166zM839 95v-94h-96v94h-206v73l203 284h99v-281h62v-76h-62zM142 265v340l-102 -95v102l112 105h91v-452h-101z" />
    <glyph glyph-name="onehalf" unicode="&#xbd;" horiz-adv-x="1010" 
d="M132 0l572 716h98l-571 -716h-99zM632 1v91.998c37.333 26.667 69.166 50.667 95.499 72s47.666 40.833 63.999 58.5s28.166 33.834 35.499 48.501s11 28.667 11 42c0 21.333 -6.66699 37.833 -20 49.5s-33 17.5 -59 17.5c-23.333 0 -43.833 -3 -61.5 -9
s-32.167 -12.667 -43.5 -20l-12 78c11.333 7.33301 28.333 13.833 51 19.5s48.334 8.5 77.001 8.5c55.333 0 97.666 -11.833 126.999 -35.5s44 -58.5 44 -104.5c0 -19.333 -4.16699 -38.166 -12.5 -56.499s-21.166 -37 -38.499 -56s-39.166 -38.5 -65.499 -58.5
s-57.166 -41.667 -92.499 -65h212v-81h-312zM142 264.998v340l-102 -95v102l112 105h91v-452h-101z" />
    <glyph glyph-name="threequarters" unicode="&#xbe;" horiz-adv-x="965" 
d="M183 0l572 716h98l-571 -716h-99zM787 337l-118 -166h118v166zM883 95v-94h-96v94h-206v73l203 284h99v-281h62v-76h-62zM160 259c-30.667 0 -57.3291 2.66699 -79.9961 8s-40.334 11.666 -53.001 18.999l12 78c11.333 -6 26 -12 44 -18s38.667 -9 62 -9
c34 0 58 5.33301 72 16s21 26 21 46c0 20.667 -6.83301 36 -20.5 46s-32.834 15 -57.501 15h-58v77h60c19.333 0 34.666 4.66699 45.999 14s17 23.333 17 42c0 17.333 -6 30.333 -18 39s-31 13 -57 13c-19.333 0 -37.833 -2.83301 -55.5 -8.5s-32.167 -11.834 -43.5 -18.501
l-13 77c12.667 6.66699 29.667 12.834 51 18.501s47 8.5 77 8.5c52 0 91.667 -11 119 -33s41 -51 41 -87c0 -27.333 -8 -49.5 -24 -66.5s-35 -28.167 -57 -33.5c27.333 -3.33301 50.166 -14.166 68.499 -32.499s27.5 -42.833 27.5 -73.5c0 -42 -15.667 -75.333 -47 -100
s-76 -37 -134 -37z" />
    <glyph glyph-name="questiondown" unicode="&#xbf;" horiz-adv-x="475" 
d="M39.0273 -8.96777c0 22.665 2.49902 42.667 7.49805 60c5 17.332 12 32.8311 20.999 46.4971c8.99902 13.665 19.332 25.8311 30.998 36.4971s24.165 20.665 37.498 29.998l40.9971 26.999c13.333 8.66602 25.499 17.499 36.498 26.498s19.832 18.998 26.498 29.9971
s9.99902 23.498 9.99902 37.4971v24.998h108.994v-23.998c0 -27.999 -3.83301 -51.998 -11.5 -71.9971c-7.66602 -19.999 -17.332 -36.998 -28.998 -50.9971s-24.499 -25.8311 -38.498 -35.4971l-40.9971 -27.499c-9.99902 -6.66602 -19.498 -13.665 -28.4971 -20.998
s-16.665 -15.166 -22.998 -23.499s-11.499 -17.832 -15.499 -28.498c-3.99902 -10.666 -5.99902 -22.665 -5.99902 -35.998c0 -27.998 9.16602 -50.4961 27.498 -67.4951s49.1631 -25.499 92.4941 -25.499c29.998 0 56.1631 3.33301 78.4951 9.99902
c22.332 6.66699 39.1641 13.333 50.4971 19.999l23.999 -96.9941c-13.333 -6.66602 -32.832 -13.999 -58.4971 -21.998c-25.665 -8 -58.8301 -12 -99.4951 -12c-81.3281 0 -141.991 17.666 -181.988 52.9971s-59.9961 82.3281 -59.9961 140.991zM302.01 530.003
c11.333 0 22 -2.16699 31.999 -6.5s18.665 -10.166 25.998 -17.499s12.999 -15.832 16.998 -25.498c4 -9.66602 6 -19.832 6 -30.498c0 -21.999 -7.66602 -40.665 -22.998 -55.998c-15.333 -15.332 -34.665 -22.998 -57.9971 -22.998s-42.8311 7.66602 -58.4961 22.998
c-15.666 15.333 -23.499 33.999 -23.499 55.998c0 10.666 2.16699 20.832 6.5 30.498s10.166 18.165 17.499 25.498s15.999 13.166 25.998 17.499s20.665 6.5 31.998 6.5z" />
    <glyph glyph-name="Agrave" unicode="&#xc0;" horiz-adv-x="674" 
d="M328 600l-103 -312h206zM465 185h-274l-61 -185h-112l238 716h162l238 -716h-130zM294 776l-127 136h154l79 -136h-106z" />
    <glyph glyph-name="Aacute" unicode="&#xc1;" horiz-adv-x="674" 
d="M328 600l-103 -312h206zM465 185h-274l-61 -185h-112l238 716h162l238 -716h-130zM353 912h155l-128 -136h-105z" />
    <glyph glyph-name="Acircumflex" unicode="&#xc2;" horiz-adv-x="674" 
d="M328 600l-103 -312h206zM465 185h-274l-61 -185h-112l238 716h162l238 -716h-130zM337 849l-75 -78h-97l107 148h129l107 -148h-97z" />
    <glyph glyph-name="Atilde" unicode="&#xc3;" horiz-adv-x="674" 
d="M328 600l-103 -312h206zM465 185h-274l-61 -185h-112l238 716h162l238 -716h-130zM153 775c-2.66699 20 -2.33496 38.999 0.998047 56.999s9.5 33.833 18.5 47.5s20.833 24.5 35.5 32.5s32 12 52 12c17.333 0 32.5 -2.5 45.5 -7.5s25 -10.5 36 -16.5l30.5 -16.5
c9.33301 -5 19 -7.5 29 -7.5c14 0 24.167 4.16699 30.5 12.5s9.5 22.166 9.5 41.499h75c2.66699 -20 2.33398 -39.167 -0.999023 -57.5s-9.5 -34.166 -18.5 -47.499s-20.833 -24 -35.5 -32s-32 -12 -52 -12c-17.333 0 -32.5 2.5 -45.5 7.5s-25 10.5 -36 16.5l-31 16.5
c-9.66699 5 -19.5 7.5 -29.5 7.5c-13.333 0 -23.166 -4.16699 -29.499 -12.5s-9.5 -22.166 -9.5 -41.499h-75v0z" />
    <glyph glyph-name="Adieresis" unicode="&#xc4;" horiz-adv-x="674" 
d="M328 600l-103 -312h206zM465 185h-274l-61 -185h-112l238 716h162l238 -716h-130zM454 779c-20.667 0 -37.834 6.83301 -51.501 20.5s-20.5 30.167 -20.5 49.5c0 20 6.83301 36.833 20.5 50.5s30.834 20.5 51.501 20.5s38 -6.83301 52 -20.5s21 -30.5 21 -50.5
c0 -19.333 -7 -35.833 -21 -49.5s-31.333 -20.5 -52 -20.5zM218 779c-20.667 0 -37.834 6.83301 -51.501 20.5s-20.5 30.167 -20.5 49.5c0 20 6.83301 36.833 20.5 50.5s30.834 20.5 51.501 20.5s38 -6.83301 52 -20.5s21 -30.5 21 -50.5c0 -19.333 -7 -35.833 -21 -49.5
s-31.333 -20.5 -52 -20.5z" />
    <glyph glyph-name="Aring" unicode="&#xc5;" horiz-adv-x="674" 
d="M328 600l-103 -312h206zM465 185h-274l-61 -185h-112l238 716h162l238 -716h-130zM335 758c-16.667 0 -32.334 2.83301 -47.001 8.5s-27.334 13.834 -38.001 24.501s-19.167 23.167 -25.5 37.5s-9.5 30.166 -9.5 47.499s3.16699 33.333 9.5 48s14.833 27.167 25.5 37.5
s23.334 18.5 38.001 24.5s30.334 9 47.001 9c17.333 0 33.5 -3 48.5 -9s28 -14.167 39 -24.5s19.667 -22.833 26 -37.5s9.5 -30.667 9.5 -48s-3.16699 -33.166 -9.5 -47.499s-15 -26.833 -26 -37.5s-24 -18.834 -39 -24.501s-31.167 -8.5 -48.5 -8.5zM335 824
c15.333 0 28 4.83301 38 14.5s15 22.167 15 37.5s-5 28 -15 38s-22.667 15 -38 15c-14.667 0 -26.5 -5 -35.5 -15s-13.5 -22.667 -13.5 -38s4.5 -27.833 13.5 -37.5s20.833 -14.5 35.5 -14.5z" />
    <glyph glyph-name="AE" unicode="&#xc6;" horiz-adv-x="981" 
d="M467 617l-172 -314h172v314zM467 199h-229l-109 -199h-120l392 716h517v-107h-324v-184h272v-108h-272v-209h329v-108h-456v199z" />
    <glyph glyph-name="Ccedilla" unicode="&#xc7;" horiz-adv-x="652" 
d="M258 15c-44.667 17.333 -83.168 41.833 -115.501 73.5s-57.333 70.167 -75 115.5s-26.5 96.666 -26.5 153.999s8.66699 108.833 26 154.5s41.833 84.334 73.5 116.001s69.5 55.834 113.5 72.501s93 25 147 25c48.667 0 90 -4.83301 124 -14.5s60.667 -20.167 80 -31.5
l-18 -109c-23.333 14 -50 25.5 -80 34.5s-63.667 13.5 -101 13.5c-73.333 0 -130.333 -21.833 -171 -65.5s-61 -108.834 -61 -195.501c0 -87.333 20.833 -152.5 62.5 -195.5s100.834 -64.5 177.501 -64.5c32 0 61 4.16699 87 12.5s50.667 19.833 74 34.5l33 -100
c-18.667 -13.333 -45 -26 -79 -38c-30 -10 -66.333 -15.667 -109 -17l-51 -182h-127l82 189c-22.667 4 -44.667 10 -66 18z" />
    <glyph glyph-name="Egrave" unicode="&#xc8;" horiz-adv-x="583" 
d="M78 716h440v-107h-313v-184h266v-108h-266v-209h318v-108h-445v716zM272 776l-127 136h154l79 -136h-106z" />
    <glyph glyph-name="Eacute" unicode="&#xc9;" horiz-adv-x="583" 
d="M78 716h440v-107h-313v-184h266v-108h-266v-209h318v-108h-445v716zM325 912h155l-128 -136h-105z" />
    <glyph glyph-name="Ecircumflex" unicode="&#xca;" horiz-adv-x="583" 
d="M78 716h440v-107h-313v-184h266v-108h-266v-209h318v-108h-445v716zM304 849l-75 -78h-97l107 148h129l107 -148h-97z" />
    <glyph glyph-name="Edieresis" unicode="&#xcb;" horiz-adv-x="583" 
d="M78 716h440v-107h-313v-184h266v-108h-266v-209h318v-108h-445v716zM416 779c-20.667 0 -37.834 6.83301 -51.501 20.5s-20.5 30.167 -20.5 49.5c0 20 6.83301 36.833 20.5 50.5s30.834 20.5 51.501 20.5s38 -6.83301 52 -20.5s21 -30.5 21 -50.5
c0 -19.333 -7 -35.833 -21 -49.5s-31.333 -20.5 -52 -20.5zM180 779c-20.667 0 -37.834 6.83301 -51.501 20.5s-20.5 30.167 -20.5 49.5c0 20 6.83301 36.833 20.5 50.5s30.834 20.5 51.501 20.5s38 -6.83301 52 -20.5s21 -30.5 21 -50.5c0 -19.333 -7 -35.833 -21 -49.5
s-31.333 -20.5 -52 -20.5z" />
    <glyph glyph-name="Igrave" unicode="&#xcc;" horiz-adv-x="282" 
d="M205 716v-716h-127v716h127zM94 776l-127 136h154l79 -136h-106z" />
    <glyph glyph-name="Iacute" unicode="&#xcd;" horiz-adv-x="282" 
d="M205 716v-716h-127v716h127zM158 912h155l-128 -136h-105z" />
    <glyph glyph-name="Icircumflex" unicode="&#xce;" horiz-adv-x="282" 
d="M205 716v-716h-127v716h127zM142 849l-75 -78h-97l107 148h129l107 -148h-97z" />
    <glyph glyph-name="Idieresis" unicode="&#xcf;" horiz-adv-x="282" 
d="M244 780c-21.333 0 -38.833 6.83301 -52.5 20.5s-20.5 30.167 -20.5 49.5c0 20 6.83301 36.833 20.5 50.5s31.167 20.5 52.5 20.5c20 0 37 -6.83301 51 -20.5s21 -30.5 21 -50.5c0 -19.333 -7 -35.833 -21 -49.5s-31 -20.5 -51 -20.5zM40 780
c-20.667 0 -37.667 6.83301 -51 20.5s-20 30.167 -20 49.5c0 20 6.66699 36.833 20 50.5s30.333 20.5 51 20.5c21.333 0 39 -6.83301 53 -20.5s21 -30.5 21 -50.5c0 -19.333 -7 -35.833 -21 -49.5s-31.667 -20.5 -53 -20.5zM205 716v-716h-127v716h127z" />
    <glyph glyph-name="Eth" unicode="&#xd0;" horiz-adv-x="759" 
d="M239 317v-209.001h111c34.667 0 66.5 5.16699 95.5 15.5s53.833 26.5 74.5 48.5s36.667 49.833 48 83.5s17 73.834 17 120.501c0 46 -5.66699 84 -17 114s-27 53.833 -47 71.5s-43.667 30 -71 37s-57.333 10.5 -90 10.5h-121v-192h183v-100h-183zM111 316.999h-90v100h90
v299h245c50.667 0 98.167 -5.5 142.5 -16.5s82.666 -29.5 114.999 -55.5s57.833 -60.333 76.5 -103s28 -95.667 28 -159s-9.33301 -118.833 -28 -166.5s-44.667 -87.5 -78 -119.5s-72.666 -56 -117.999 -72s-95 -24 -149 -24h-234v317z" />
    <glyph glyph-name="Ntilde" unicode="&#xd1;" horiz-adv-x="746" 
d="M192 562v-562h-114v716h164l312 -558v558h115v-716h-163zM215 775c-2.66699 20 -2.33496 38.999 0.998047 56.999s9.5 33.833 18.5 47.5s20.833 24.5 35.5 32.5s32 12 52 12c17.333 0 32.5 -2.5 45.5 -7.5s25 -10.5 36 -16.5l30.5 -16.5c9.33301 -5 19 -7.5 29 -7.5
c14 0 24.167 4.16699 30.5 12.5s9.5 22.166 9.5 41.499h75c2.66699 -20 2.33398 -39.167 -0.999023 -57.5s-9.5 -34.166 -18.5 -47.499s-20.833 -24 -35.5 -32s-32 -12 -52 -12c-17.333 0 -32.5 2.5 -45.5 7.5s-25 10.5 -36 16.5l-31 16.5c-9.66699 5 -19.5 7.5 -29.5 7.5
c-13.333 0 -23.166 -4.16699 -29.499 -12.5s-9.5 -22.166 -9.5 -41.499h-75v0z" />
    <glyph glyph-name="Ograve" unicode="&#xd2;" horiz-adv-x="779" 
d="M389 -10c-48.667 0 -94.167 7.99902 -136.5 23.999s-79.166 39.5 -110.499 70.5s-56 69.333 -74 115s-27 98.5 -27 158.5s9 112.833 27 158.5s42.667 84 74 115s68.166 54.5 110.499 70.5s87.833 24 136.5 24c49.333 0 95.166 -7.83301 137.499 -23.5
s79.166 -38.667 110.499 -69s56 -68.333 74 -114s27 -98.5 27 -158.5s-9 -113 -27 -159s-42.667 -84.667 -74 -116s-68.166 -55.166 -110.499 -71.499s-88.166 -24.5 -137.499 -24.5zM389 97.999c30.667 0 59.334 4.66699 86.001 14s49.5 24.333 68.5 45s34 47.5 45 80.5
s16.5 73.167 16.5 120.5s-5.5 87.666 -16.5 120.999s-26 60.333 -45 81s-41.833 35.667 -68.5 45s-55.334 14 -86.001 14s-59 -4.66699 -85 -14s-48.667 -24.333 -68 -45s-34.5 -47.667 -45.5 -81s-16.5 -73.666 -16.5 -120.999s5.5 -87.5 16.5 -120.5
s26.167 -59.833 45.5 -80.5s42 -35.667 68 -45s54.333 -14 85 -14zM344 775.999l-127 136h154l79 -136h-106z" />
    <glyph glyph-name="Oacute" unicode="&#xd3;" horiz-adv-x="779" 
d="M389 -10c-48.667 0 -94.167 7.99902 -136.5 23.999s-79.166 39.5 -110.499 70.5s-56 69.333 -74 115s-27 98.5 -27 158.5s9 112.833 27 158.5s42.667 84 74 115s68.166 54.5 110.499 70.5s87.833 24 136.5 24c49.333 0 95.166 -7.83301 137.499 -23.5
s79.166 -38.667 110.499 -69s56 -68.333 74 -114s27 -98.5 27 -158.5s-9 -113 -27 -159s-42.667 -84.667 -74 -116s-68.166 -55.166 -110.499 -71.499s-88.166 -24.5 -137.499 -24.5zM389 97.999c30.667 0 59.334 4.66699 86.001 14s49.5 24.333 68.5 45s34 47.5 45 80.5
s16.5 73.167 16.5 120.5s-5.5 87.666 -16.5 120.999s-26 60.333 -45 81s-41.833 35.667 -68.5 45s-55.334 14 -86.001 14s-59 -4.66699 -85 -14s-48.667 -24.333 -68 -45s-34.5 -47.667 -45.5 -81s-16.5 -73.666 -16.5 -120.999s5.5 -87.5 16.5 -120.5
s26.167 -59.833 45.5 -80.5s42 -35.667 68 -45s54.333 -14 85 -14zM406 911.999h155l-128 -136h-105z" />
    <glyph glyph-name="Ocircumflex" unicode="&#xd4;" horiz-adv-x="779" 
d="M389 -10c-48.667 0 -94.167 7.99902 -136.5 23.999s-79.166 39.5 -110.499 70.5s-56 69.333 -74 115s-27 98.5 -27 158.5s9 112.833 27 158.5s42.667 84 74 115s68.166 54.5 110.499 70.5s87.833 24 136.5 24c49.333 0 95.166 -7.83301 137.499 -23.5
s79.166 -38.667 110.499 -69s56 -68.333 74 -114s27 -98.5 27 -158.5s-9 -113 -27 -159s-42.667 -84.667 -74 -116s-68.166 -55.166 -110.499 -71.499s-88.166 -24.5 -137.499 -24.5zM389 97.999c30.667 0 59.334 4.66699 86.001 14s49.5 24.333 68.5 45s34 47.5 45 80.5
s16.5 73.167 16.5 120.5s-5.5 87.666 -16.5 120.999s-26 60.333 -45 81s-41.833 35.667 -68.5 45s-55.334 14 -86.001 14s-59 -4.66699 -85 -14s-48.667 -24.333 -68 -45s-34.5 -47.667 -45.5 -81s-16.5 -73.666 -16.5 -120.999s5.5 -87.5 16.5 -120.5
s26.167 -59.833 45.5 -80.5s42 -35.667 68 -45s54.333 -14 85 -14zM390 848.999l-75 -78h-97l107 148h129l107 -148h-97z" />
    <glyph glyph-name="Otilde" unicode="&#xd5;" horiz-adv-x="779" 
d="M389 -10c-48.667 0 -94.167 7.99902 -136.5 23.999s-79.166 39.5 -110.499 70.5s-56 69.333 -74 115s-27 98.5 -27 158.5s9 112.833 27 158.5s42.667 84 74 115s68.166 54.5 110.499 70.5s87.833 24 136.5 24c49.333 0 95.166 -7.83301 137.499 -23.5
s79.166 -38.667 110.499 -69s56 -68.333 74 -114s27 -98.5 27 -158.5s-9 -113 -27 -159s-42.667 -84.667 -74 -116s-68.166 -55.166 -110.499 -71.499s-88.166 -24.5 -137.499 -24.5zM389 97.999c30.667 0 59.334 4.66699 86.001 14s49.5 24.333 68.5 45s34 47.5 45 80.5
s16.5 73.167 16.5 120.5s-5.5 87.666 -16.5 120.999s-26 60.333 -45 81s-41.833 35.667 -68.5 45s-55.334 14 -86.001 14s-59 -4.66699 -85 -14s-48.667 -24.333 -68 -45s-34.5 -47.667 -45.5 -81s-16.5 -73.666 -16.5 -120.999s5.5 -87.5 16.5 -120.5
s26.167 -59.833 45.5 -80.5s42 -35.667 68 -45s54.333 -14 85 -14zM206 774.999c-2.66699 20 -2.33496 38.999 0.998047 56.999s9.5 33.833 18.5 47.5s20.833 24.5 35.5 32.5s32 12 52 12c17.333 0 32.5 -2.5 45.5 -7.5s25 -10.5 36 -16.5l30.5 -16.5
c9.33301 -5 19 -7.5 29 -7.5c14 0 24.167 4.16699 30.5 12.5s9.5 22.166 9.5 41.499h75c2.66699 -20 2.33398 -39.167 -0.999023 -57.5s-9.5 -34.166 -18.5 -47.499s-20.833 -24 -35.5 -32s-32 -12 -52 -12c-17.333 0 -32.5 2.5 -45.5 7.5s-25 10.5 -36 16.5l-31 16.5
c-9.66699 5 -19.5 7.5 -29.5 7.5c-13.333 0 -23.166 -4.16699 -29.499 -12.5s-9.5 -22.166 -9.5 -41.499h-75v0z" />
    <glyph glyph-name="Odieresis" unicode="&#xd6;" horiz-adv-x="779" 
d="M389 -10c-48.667 0 -94.167 7.99902 -136.5 23.999s-79.166 39.5 -110.499 70.5s-56 69.333 -74 115s-27 98.5 -27 158.5s9 112.833 27 158.5s42.667 84 74 115s68.166 54.5 110.499 70.5s87.833 24 136.5 24c49.333 0 95.166 -7.83301 137.499 -23.5
s79.166 -38.667 110.499 -69s56 -68.333 74 -114s27 -98.5 27 -158.5s-9 -113 -27 -159s-42.667 -84.667 -74 -116s-68.166 -55.166 -110.499 -71.499s-88.166 -24.5 -137.499 -24.5zM389 97.999c30.667 0 59.334 4.66699 86.001 14s49.5 24.333 68.5 45s34 47.5 45 80.5
s16.5 73.167 16.5 120.5s-5.5 87.666 -16.5 120.999s-26 60.333 -45 81s-41.833 35.667 -68.5 45s-55.334 14 -86.001 14s-59 -4.66699 -85 -14s-48.667 -24.333 -68 -45s-34.5 -47.667 -45.5 -81s-16.5 -73.666 -16.5 -120.999s5.5 -87.5 16.5 -120.5
s26.167 -59.833 45.5 -80.5s42 -35.667 68 -45s54.333 -14 85 -14zM507 778.999c-20.667 0 -37.834 6.83301 -51.501 20.5s-20.5 30.167 -20.5 49.5c0 20 6.83301 36.833 20.5 50.5s30.834 20.5 51.501 20.5s38 -6.83301 52 -20.5s21 -30.5 21 -50.5
c0 -19.333 -7 -35.833 -21 -49.5s-31.333 -20.5 -52 -20.5zM271 778.999c-20.667 0 -37.834 6.83301 -51.501 20.5s-20.5 30.167 -20.5 49.5c0 20 6.83301 36.833 20.5 50.5s30.834 20.5 51.501 20.5s38 -6.83301 52 -20.5s21 -30.5 21 -50.5
c0 -19.333 -7 -35.833 -21 -49.5s-31.333 -20.5 -52 -20.5z" />
    <glyph glyph-name="multiply" unicode="&#xd7;" 
d="M278 271l-173 -175l-66 67l173 176l-172 174l65 68l173 -175l172 175l65 -68l-172 -174l173 -176l-66 -67z" />
    <glyph glyph-name="Oslash" unicode="&#xd8;" horiz-adv-x="779" 
d="M389 -10c-48.667 0 -94.334 7.99902 -137.001 23.999c-7.33301 2.66699 -14.666 5.66699 -21.999 9l-56 -93h-103l85 141c-4.66699 4 -9.33398 8.33301 -14.001 13c-31.333 31.333 -56 69.833 -74 115.5s-27 98.5 -27 158.5s9 112.833 27 158.5s42.667 84 74 115
s68.166 54.5 110.499 70.5s87.833 24 136.5 24c49.333 0 95 -8 137 -24l11 -4l54 88h103l-81 -133c8.66699 -6 16.667 -12.667 24 -20c31.333 -30 56 -67.833 74 -113.5s27 -98.5 27 -158.5s-9 -113 -27 -159s-42.667 -84.667 -74 -116s-68.166 -55.166 -110.499 -71.499
s-88.166 -24.5 -137.499 -24.5zM389 97.999c30.667 0 59.332 4.66797 85.999 14.001s49.5 24.333 68.5 45s34 47.5 45 80.5s16.5 73.167 16.5 120.5s-5.66699 87.666 -17 120.999c-9.33301 28.667 -21.666 52.667 -36.999 72l-263 -433l16 -6c26 -9.33301 54.333 -14 85 -14
zM474.998 605c-26.667 9.33301 -55.333 13.9961 -86 13.9961s-59 -4.66699 -85 -14s-48.667 -24.333 -68 -45s-34.5 -47.667 -45.5 -81s-16.5 -73.666 -16.5 -120.999s5.33301 -87.666 16 -120.999c8 -23.333 18 -43.666 30 -60.999l260 427
c-2 0.666992 -3.66699 1.33398 -5 2.00098z" />
    <glyph glyph-name="Ugrave" unicode="&#xd9;" horiz-adv-x="697" 
d="M63 716h128.002v-460c0 -54 14.833 -93.667 44.5 -119s69.5 -38 119.5 -38c49.333 0 89.166 12.833 119.499 38.5s45.5 65.167 45.5 118.5v460h114v-464c0 -42 -6.83301 -79.333 -20.5 -112s-33 -60 -58 -82s-54.833 -38.833 -89.5 -50.5s-73 -17.5 -115 -17.5
c-41.333 0 -79.5 5.5 -114.5 16.5s-65.333 27.333 -91 49s-45.834 48.667 -60.501 81s-22 69.5 -22 111.5v468zM318.002 776l-127 136h154l79 -136h-106z" />
    <glyph glyph-name="Uacute" unicode="&#xda;" horiz-adv-x="697" 
d="M63 716h128.002v-460c0 -54 14.833 -93.667 44.5 -119s69.5 -38 119.5 -38c49.333 0 89.166 12.833 119.499 38.5s45.5 65.167 45.5 118.5v460h114v-464c0 -42 -6.83301 -79.333 -20.5 -112s-33 -60 -58 -82s-54.833 -38.833 -89.5 -50.5s-73 -17.5 -115 -17.5
c-41.333 0 -79.5 5.5 -114.5 16.5s-65.333 27.333 -91 49s-45.834 48.667 -60.501 81s-22 69.5 -22 111.5v468zM372.002 912h155l-128 -136h-105z" />
    <glyph glyph-name="Ucircumflex" unicode="&#xdb;" horiz-adv-x="697" 
d="M63 716h128.002v-460c0 -54 14.833 -93.667 44.5 -119s69.5 -38 119.5 -38c49.333 0 89.166 12.833 119.499 38.5s45.5 65.167 45.5 118.5v460h114v-464c0 -42 -6.83301 -79.333 -20.5 -112s-33 -60 -58 -82s-54.833 -38.833 -89.5 -50.5s-73 -17.5 -115 -17.5
c-41.333 0 -79.5 5.5 -114.5 16.5s-65.333 27.333 -91 49s-45.834 48.667 -60.501 81s-22 69.5 -22 111.5v468zM357.002 849l-75 -78h-97l107 148h129l107 -148h-97z" />
    <glyph glyph-name="Udieresis" unicode="&#xdc;" horiz-adv-x="697" 
d="M63 716h128.002v-460c0 -54 14.833 -93.667 44.5 -119s69.5 -38 119.5 -38c49.333 0 89.166 12.833 119.499 38.5s45.5 65.167 45.5 118.5v460h114v-464c0 -42 -6.83301 -79.333 -20.5 -112s-33 -60 -58 -82s-54.833 -38.833 -89.5 -50.5s-73 -17.5 -115 -17.5
c-41.333 0 -79.5 5.5 -114.5 16.5s-65.333 27.333 -91 49s-45.834 48.667 -60.501 81s-22 69.5 -22 111.5v468zM474.002 779c-20.667 0 -37.834 6.83301 -51.501 20.5s-20.5 30.167 -20.5 49.5c0 20 6.83301 36.833 20.5 50.5s30.834 20.5 51.501 20.5s38 -6.83301 52 -20.5
s21 -30.5 21 -50.5c0 -19.333 -7 -35.833 -21 -49.5s-31.333 -20.5 -52 -20.5zM238.002 779c-20.667 0 -37.834 6.83301 -51.501 20.5s-20.5 30.167 -20.5 49.5c0 20 6.83301 36.833 20.5 50.5s30.834 20.5 51.501 20.5s38 -6.83301 52 -20.5s21 -30.5 21 -50.5
c0 -19.333 -7 -35.833 -21 -49.5s-31.333 -20.5 -52 -20.5z" />
    <glyph glyph-name="Yacute" unicode="&#xdd;" horiz-adv-x="618" 
d="M246 0v305l-237 411h142l166 -302l170 302h123l-236 -411v-305h-128zM330 912h155l-128 -136h-105z" />
    <glyph glyph-name="Thorn" unicode="&#xde;" horiz-adv-x="627" 
d="M205 471v-225h104c48 0 85.833 8.5 113.5 25.5s41.5 47.833 41.5 92.5c0 38 -12.833 65.333 -38.5 82s-63.167 25 -112.5 25h-108zM205 138l0.00195312 -138h-127v716h127v-137h108c88 0 156.333 -16.5 205 -49.5s73 -86.833 73 -161.5c0 -40 -6.66699 -74.333 -20 -103
s-32.333 -52.5 -57 -71.5s-54.334 -33 -89.001 -42s-73.334 -13.5 -116.001 -13.5h-104z" />
    <glyph glyph-name="germandbls" unicode="&#xdf;" horiz-adv-x="618" 
d="M401 -10c-31.333 0 -58.1719 2.49902 -80.5049 7.49902s-40.166 11.167 -53.499 18.5l17 93c13.333 -8 28.833 -14.167 46.5 -18.5s35.167 -6.5 52.5 -6.5c29.333 0 51.333 5.33301 66 16s22 25.334 22 44.001c0 10.667 -2.5 19.667 -7.5 27s-11.5 14 -19.5 20
s-17.333 11.333 -28 16l-33 15c-12 5.33301 -24.167 11.333 -36.5 18s-23.333 14.834 -33 24.501s-17.5 21.167 -23.5 34.5s-9 29.666 -9 48.999c0 26.667 6.33301 48 19 64s26.834 30.333 42.501 43s29.834 25.667 42.501 39s19 31 19 53c0 14.667 -2.5 27 -7.5 37
s-12 18.167 -21 24.5s-19.5 11 -31.5 14s-24.667 4.5 -38 4.5c-38 0 -66.5 -12.167 -85.5 -36.5s-28.5 -59.5 -28.5 -105.5v-485h-125v485c0 74 20.333 132.667 61 176s99.667 65 177 65c34 0 64.5 -4 91.5 -12s49.833 -19.333 68.5 -34s33 -32.5 43 -53.5
s15 -44.5 15 -70.5c0 -30.667 -6.66699 -55.334 -20 -74.001s-27.833 -34.5 -43.5 -47.5l-43.5 -35.5c-13.333 -10.667 -20 -23.334 -20 -38.001c0 -7.33301 2.16699 -13.666 6.5 -18.999s10.333 -10.333 18 -15s16.334 -9.33398 26.001 -14.001
s19.834 -9.33398 30.501 -14.001c13.333 -6 27 -13 41 -21s26.667 -17.833 38 -29.5s20.5 -25.667 27.5 -42s10.5 -35.833 10.5 -58.5c0 -29.333 -5.5 -54.166 -16.5 -74.499s-25.667 -36.666 -44 -48.999s-39 -21.166 -62 -26.499s-46.5 -8 -70.5 -8z" />
    <glyph glyph-name="agrave" unicode="&#xe0;" horiz-adv-x="539" 
d="M233 83c16 0 30.333 2.33203 43 6.99902s24.167 10.5 34.5 17.5s19.333 14.833 27 23.5s14.167 17.334 19.5 26.001v79h-59c-50 0 -85.667 -7.33301 -107 -22s-32 -34.667 -32 -60c0 -22 6.33301 -39.333 19 -52s31 -19 55 -19zM370 -0.000976562
c-1.33301 8.66699 -2.83008 19.999 -4.49707 33.999s-2.83398 27.333 -3.50098 40c-7.33301 -10.667 -16 -21 -26 -31s-21.667 -19 -35 -27s-28.5 -14.333 -45.5 -19s-35.833 -7 -56.5 -7c-22 0 -42.833 3.16699 -62.5 9.5s-36.834 15.833 -51.501 28.5
s-26.167 28.334 -34.5 47.001s-12.5 40.667 -12.5 66c0 56 20.667 98.833 62 128.5s105.333 44.5 192 44.5h65v26c0 34 -9 57.5 -27 70.5s-45.333 19.5 -82 19.5c-32 0 -61.167 -4.33301 -87.5 -13s-50.166 -18.667 -71.499 -30l-25 96
c21.333 11.333 49.166 21.833 83.499 31.5s72.5 14.5 114.5 14.5c68.667 0 122 -14.167 160 -42.5s57 -73.833 57 -136.5v-266c0 -6 0.166992 -12.833 0.5 -20.5l1 -23.5c0.333008 -8 0.666016 -15.5 0.999023 -22.5s0.833008 -12.833 1.5 -17.5h-113zM223.003 587.998
l-119 158h134l77 -158h-92z" />
    <glyph glyph-name="aacute" unicode="&#xe1;" horiz-adv-x="539" 
d="M233 83c16 0 30.333 2.33203 43 6.99902s24.167 10.5 34.5 17.5s19.333 14.833 27 23.5s14.167 17.334 19.5 26.001v79h-59c-50 0 -85.667 -7.33301 -107 -22s-32 -34.667 -32 -60c0 -22 6.33301 -39.333 19 -52s31 -19 55 -19zM370 -0.000976562
c-1.33301 8.66699 -2.83008 19.999 -4.49707 33.999s-2.83398 27.333 -3.50098 40c-7.33301 -10.667 -16 -21 -26 -31s-21.667 -19 -35 -27s-28.5 -14.333 -45.5 -19s-35.833 -7 -56.5 -7c-22 0 -42.833 3.16699 -62.5 9.5s-36.834 15.833 -51.501 28.5
s-26.167 28.334 -34.5 47.001s-12.5 40.667 -12.5 66c0 56 20.667 98.833 62 128.5s105.333 44.5 192 44.5h65v26c0 34 -9 57.5 -27 70.5s-45.333 19.5 -82 19.5c-32 0 -61.167 -4.33301 -87.5 -13s-50.166 -18.667 -71.499 -30l-25 96
c21.333 11.333 49.166 21.833 83.499 31.5s72.5 14.5 114.5 14.5c68.667 0 122 -14.167 160 -42.5s57 -73.833 57 -136.5v-266c0 -6 0.166992 -12.833 0.5 -20.5l1 -23.5c0.333008 -8 0.666016 -15.5 0.999023 -22.5s0.833008 -12.833 1.5 -17.5h-113zM289.003 745.998h134
l-119 -158h-93z" />
    <glyph glyph-name="acircumflex" unicode="&#xe2;" horiz-adv-x="539" 
d="M233 83c16 0 30.333 2.33203 43 6.99902s24.167 10.5 34.5 17.5s19.333 14.833 27 23.5s14.167 17.334 19.5 26.001v79h-59c-50 0 -85.667 -7.33301 -107 -22s-32 -34.667 -32 -60c0 -22 6.33301 -39.333 19 -52s31 -19 55 -19zM370 -0.000976562
c-1.33301 8.66699 -2.83008 19.999 -4.49707 33.999s-2.83398 27.333 -3.50098 40c-7.33301 -10.667 -16 -21 -26 -31s-21.667 -19 -35 -27s-28.5 -14.333 -45.5 -19s-35.833 -7 -56.5 -7c-22 0 -42.833 3.16699 -62.5 9.5s-36.834 15.833 -51.501 28.5
s-26.167 28.334 -34.5 47.001s-12.5 40.667 -12.5 66c0 56 20.667 98.833 62 128.5s105.333 44.5 192 44.5h65v26c0 34 -9 57.5 -27 70.5s-45.333 19.5 -82 19.5c-32 0 -61.167 -4.33301 -87.5 -13s-50.166 -18.667 -71.499 -30l-25 96
c21.333 11.333 49.166 21.833 83.499 31.5s72.5 14.5 114.5 14.5c68.667 0 122 -14.167 160 -42.5s57 -73.833 57 -136.5v-266c0 -6 0.166992 -12.833 0.5 -20.5l1 -23.5c0.333008 -8 0.666016 -15.5 0.999023 -22.5s0.833008 -12.833 1.5 -17.5h-113zM265.003 663.998
l-70 -76h-97l102 148h129l102 -148h-97z" />
    <glyph glyph-name="atilde" unicode="&#xe3;" horiz-adv-x="539" 
d="M233 83c16 0 30.333 2.33203 43 6.99902s24.167 10.5 34.5 17.5s19.333 14.833 27 23.5s14.167 17.334 19.5 26.001v79h-59c-50 0 -85.667 -7.33301 -107 -22s-32 -34.667 -32 -60c0 -22 6.33301 -39.333 19 -52s31 -19 55 -19zM370 -0.000976562
c-1.33301 8.66699 -2.83008 19.999 -4.49707 33.999s-2.83398 27.333 -3.50098 40c-7.33301 -10.667 -16 -21 -26 -31s-21.667 -19 -35 -27s-28.5 -14.333 -45.5 -19s-35.833 -7 -56.5 -7c-22 0 -42.833 3.16699 -62.5 9.5s-36.834 15.833 -51.501 28.5
s-26.167 28.334 -34.5 47.001s-12.5 40.667 -12.5 66c0 56 20.667 98.833 62 128.5s105.333 44.5 192 44.5h65v26c0 34 -9 57.5 -27 70.5s-45.333 19.5 -82 19.5c-32 0 -61.167 -4.33301 -87.5 -13s-50.166 -18.667 -71.499 -30l-25 96
c21.333 11.333 49.166 21.833 83.499 31.5s72.5 14.5 114.5 14.5c68.667 0 122 -14.167 160 -42.5s57 -73.833 57 -136.5v-266c0 -6 0.166992 -12.833 0.5 -20.5l1 -23.5c0.333008 -8 0.666016 -15.5 0.999023 -22.5s0.833008 -12.833 1.5 -17.5h-113zM94.0029 589.998
c-1.33301 16.667 -0.333008 33.332 3 49.999s9.5 31.5 18.5 44.5s20.5 23.5 34.5 31.5s30.667 12 50 12c16 0 29.833 -2.33301 41.5 -7s22.5 -9.83398 32.5 -15.501l28.5 -15.5c9 -4.66699 18.5 -7 28.5 -7c23.333 0 35 17 35 51h69
c1.33301 -17.333 0.333008 -34.166 -3 -50.499s-9.5 -31 -18.5 -44s-20.5 -23.5 -34.5 -31.5s-30.667 -12 -50 -12c-16 0 -30 2.33301 -42 7s-23 9.83398 -33 15.501l-28.5 15.5c-9 4.66699 -18.5 7 -28.5 7c-10.667 0 -19 -4 -25 -12s-9 -21 -9 -39h-69v0z" />
    <glyph glyph-name="adieresis" unicode="&#xe4;" horiz-adv-x="539" 
d="M233 83c16 0 30.333 2.33203 43 6.99902s24.167 10.5 34.5 17.5s19.333 14.833 27 23.5s14.167 17.334 19.5 26.001v79h-59c-50 0 -85.667 -7.33301 -107 -22s-32 -34.667 -32 -60c0 -22 6.33301 -39.333 19 -52s31 -19 55 -19zM370 -0.000976562
c-1.33301 8.66699 -2.83008 19.999 -4.49707 33.999s-2.83398 27.333 -3.50098 40c-7.33301 -10.667 -16 -21 -26 -31s-21.667 -19 -35 -27s-28.5 -14.333 -45.5 -19s-35.833 -7 -56.5 -7c-22 0 -42.833 3.16699 -62.5 9.5s-36.834 15.833 -51.501 28.5
s-26.167 28.334 -34.5 47.001s-12.5 40.667 -12.5 66c0 56 20.667 98.833 62 128.5s105.333 44.5 192 44.5h65v26c0 34 -9 57.5 -27 70.5s-45.333 19.5 -82 19.5c-32 0 -61.167 -4.33301 -87.5 -13s-50.166 -18.667 -71.499 -30l-25 96
c21.333 11.333 49.166 21.833 83.499 31.5s72.5 14.5 114.5 14.5c68.667 0 122 -14.167 160 -42.5s57 -73.833 57 -136.5v-266c0 -6 0.166992 -12.833 0.5 -20.5l1 -23.5c0.333008 -8 0.666016 -15.5 0.999023 -22.5s0.833008 -12.833 1.5 -17.5h-113zM376.003 584.998
c-21.333 0 -38.833 6.83301 -52.5 20.5s-20.5 30.167 -20.5 49.5c0 20 6.83301 36.833 20.5 50.5s31.167 20.5 52.5 20.5c20 0 37.167 -6.83301 51.5 -20.5s21.5 -30.5 21.5 -50.5c0 -19.333 -7.16699 -35.833 -21.5 -49.5s-31.5 -20.5 -51.5 -20.5zM154.003 584.998
c-20 0 -36.833 6.83301 -50.5 20.5s-20.5 30.167 -20.5 49.5c0 20 6.83301 36.833 20.5 50.5s30.5 20.5 50.5 20.5c21.333 0 39 -6.83301 53 -20.5s21 -30.5 21 -50.5c0 -19.333 -7 -35.833 -21 -49.5s-31.667 -20.5 -53 -20.5z" />
    <glyph glyph-name="aring" unicode="&#xe5;" horiz-adv-x="539" 
d="M233 83c16 0 30.333 2.33203 43 6.99902s24.167 10.5 34.5 17.5s19.333 14.833 27 23.5s14.167 17.334 19.5 26.001v79h-59c-50 0 -85.667 -7.33301 -107 -22s-32 -34.667 -32 -60c0 -22 6.33301 -39.333 19 -52s31 -19 55 -19zM370 -0.000976562
c-1.33301 8.66699 -2.83008 19.999 -4.49707 33.999s-2.83398 27.333 -3.50098 40c-7.33301 -10.667 -16 -21 -26 -31s-21.667 -19 -35 -27s-28.5 -14.333 -45.5 -19s-35.833 -7 -56.5 -7c-22 0 -42.833 3.16699 -62.5 9.5s-36.834 15.833 -51.501 28.5
s-26.167 28.334 -34.5 47.001s-12.5 40.667 -12.5 66c0 56 20.667 98.833 62 128.5s105.333 44.5 192 44.5h65v26c0 34 -9 57.5 -27 70.5s-45.333 19.5 -82 19.5c-32 0 -61.167 -4.33301 -87.5 -13s-50.166 -18.667 -71.499 -30l-25 96
c21.333 11.333 49.166 21.833 83.499 31.5s72.5 14.5 114.5 14.5c68.667 0 122 -14.167 160 -42.5s57 -73.833 57 -136.5v-266c0 -6 0.166992 -12.833 0.5 -20.5l1 -23.5c0.333008 -8 0.666016 -15.5 0.999023 -22.5s0.833008 -12.833 1.5 -17.5h-113zM267.003 571.998
c-16.667 0 -32.334 2.83301 -47.001 8.5s-27.334 13.834 -38.001 24.501s-19.167 23.167 -25.5 37.5s-9.5 30.166 -9.5 47.499s3.16699 33.333 9.5 48s14.833 27.167 25.5 37.5s23.334 18.5 38.001 24.5s30.334 9 47.001 9c17.333 0 33.5 -3 48.5 -9s28 -14.167 39 -24.5
s19.667 -22.833 26 -37.5s9.5 -30.667 9.5 -48s-3.16699 -33.166 -9.5 -47.499s-15 -26.833 -26 -37.5s-24 -18.834 -39 -24.501s-31.167 -8.5 -48.5 -8.5zM267.003 637.998c15.333 0 28 4.83301 38 14.5s15 22.167 15 37.5s-5 28 -15 38s-22.667 15 -38 15
c-14.667 0 -26.5 -5 -35.5 -15s-13.5 -22.667 -13.5 -38s4.5 -27.833 13.5 -37.5s20.833 -14.5 35.5 -14.5z" />
    <glyph glyph-name="ae" unicode="&#xe6;" horiz-adv-x="873" 
d="M612 433c-34 0 -61.999 -10.167 -83.999 -30.5s-36.667 -50.5 -44 -90.5h230c1.33301 40 -7.33398 70.167 -26.001 90.5s-44 30.5 -76 30.5zM234.001 84c18 0 33.8311 2.83203 47.498 8.49902s25.834 12.834 36.501 21.501s19.5 18 26.5 28s12.5 19.667 16.5 29v61h-74
c-44.667 0 -77.167 -7 -97.5 -21s-30.5 -33.333 -30.5 -58c0 -22 6.33301 -39 19 -51s31.334 -18 56.001 -18zM827.999 40.999c-3.33301 -2.66699 -9.83203 -6.83203 -19.499 -12.499s-22.334 -11.334 -38.001 -17.001s-34.5 -10.667 -56.5 -15s-47.333 -6.5 -76 -6.5
c-55.333 0 -101.666 8.83301 -138.999 26.5s-66.333 43.167 -87 76.5c-7.33301 -12 -16.5 -24 -27.5 -36s-24.833 -23 -41.5 -33s-36.167 -18.167 -58.5 -24.5s-47.833 -9.5 -76.5 -9.5c-24.667 0 -47.334 3.16699 -68.001 9.5s-38.5 15.833 -53.5 28.5
s-26.833 28.334 -35.5 47.001s-13 40.667 -13 66c0 56.667 20.5 99.167 61.5 127.5s99.833 42.5 176.5 42.5h85v23c0 35.333 -9.33301 60.333 -28 75s-47 22 -85 22c-30.667 0 -59.5 -4.16699 -86.5 -12.5s-51.167 -18.166 -72.5 -29.499l-25 96
c22.667 12.667 51 23.5 85 32.5s70 13.5 108 13.5c44 0 81.333 -5.83301 112 -17.5s54.334 -30.834 71.001 -57.501c20 23.333 44.333 41.333 73 54s61 19 97 19c38 0 72.333 -6.33301 103 -19s56 -31.667 76 -57s33.833 -56.833 41.5 -94.5s7.5 -81.167 -0.5 -130.5h-349
c4.66699 -46 19.667 -80.5 45 -103.5s64.666 -34.5 117.999 -34.5c21.333 0 40.833 1.83301 58.5 5.5s33 8 46 13s24 10.167 33 15.5s15.5 9.66602 19.5 12.999z" />
    <glyph glyph-name="ccedilla" unicode="&#xe7;" horiz-adv-x="504" 
d="M198 8c-34 12 -62.998 29.499 -86.998 52.499s-42.667 51.167 -56 84.5s-20 71.333 -20 114c0 42 6.66699 79.833 20 113.5s32 62 56 85s52.667 40.667 86 53s69.666 18.5 108.999 18.5c36 0 67.5 -3.83301 94.5 -11.5s48.833 -17.5 65.5 -29.5l-25 -94
c-17.333 10 -36.166 18.5 -56.499 25.5s-45.5 10.5 -75.5 10.5c-46 0 -82.333 -14.167 -109 -42.5s-40 -71.166 -40 -128.499c0 -55.333 13.667 -97.333 41 -126s65.333 -43 114 -43c27.333 0 50.666 3.33301 69.999 10s37.666 15 54.999 25l25 -94
c-17.333 -11.333 -38.333 -21 -63 -29c-20 -6 -43.333 -9.66699 -70 -11l-48 -173h-127l78 180c-12.667 2 -25 5.33301 -37 10z" />
    <glyph glyph-name="egrave" unicode="&#xe8;" horiz-adv-x="561" 
d="M293 435c-34.667 0 -63.166 -10 -85.499 -30s-37.166 -50 -44.499 -90h239c1.33301 40 -7.83398 70 -27.501 90s-46.834 30 -81.501 30zM509.001 40c-3.33301 -2.66699 -9.83301 -6.66602 -19.5 -11.999s-22.334 -10.833 -38.001 -16.5s-34.5 -10.667 -56.5 -15
s-47.333 -6.5 -76 -6.5c-95.333 0 -166.5 23.667 -213.5 71s-70.5 113.666 -70.5 198.999c0 42 6.33301 79.667 19 113s30.334 61.5 53.001 84.5s49.834 40.667 81.501 53s66.5 18.5 104.5 18.5c38.667 0 73.667 -6.33301 105 -19s57.166 -31.667 77.499 -57
s34.5 -57 42.5 -95s8 -82 0 -132h-357c4.66699 -45.333 20.167 -79.333 46.5 -102s65.5 -34 117.5 -34c21.333 0 40.833 1.83301 58.5 5.5s33 8 46 13s24 10 33 15s15.5 9.16699 19.5 12.5zM244.001 588.001l-119 158h134l77 -158h-92z" />
    <glyph glyph-name="eacute" unicode="&#xe9;" horiz-adv-x="561" 
d="M293 435c-34.667 0 -63.166 -10 -85.499 -30s-37.166 -50 -44.499 -90h239c1.33301 40 -7.83398 70 -27.501 90s-46.834 30 -81.501 30zM509.001 40c-3.33301 -2.66699 -9.83301 -6.66602 -19.5 -11.999s-22.334 -10.833 -38.001 -16.5s-34.5 -10.667 -56.5 -15
s-47.333 -6.5 -76 -6.5c-95.333 0 -166.5 23.667 -213.5 71s-70.5 113.666 -70.5 198.999c0 42 6.33301 79.667 19 113s30.334 61.5 53.001 84.5s49.834 40.667 81.501 53s66.5 18.5 104.5 18.5c38.667 0 73.667 -6.33301 105 -19s57.166 -31.667 77.499 -57
s34.5 -57 42.5 -95s8 -82 0 -132h-357c4.66699 -45.333 20.167 -79.333 46.5 -102s65.5 -34 117.5 -34c21.333 0 40.833 1.83301 58.5 5.5s33 8 46 13s24 10 33 15s15.5 9.16699 19.5 12.5zM305.001 746.001h134l-119 -158h-93z" />
    <glyph glyph-name="ecircumflex" unicode="&#xea;" horiz-adv-x="561" 
d="M293 435c-34.667 0 -63.166 -10 -85.499 -30s-37.166 -50 -44.499 -90h239c1.33301 40 -7.83398 70 -27.501 90s-46.834 30 -81.501 30zM509.001 40c-3.33301 -2.66699 -9.83301 -6.66602 -19.5 -11.999s-22.334 -10.833 -38.001 -16.5s-34.5 -10.667 -56.5 -15
s-47.333 -6.5 -76 -6.5c-95.333 0 -166.5 23.667 -213.5 71s-70.5 113.666 -70.5 198.999c0 42 6.33301 79.667 19 113s30.334 61.5 53.001 84.5s49.834 40.667 81.501 53s66.5 18.5 104.5 18.5c38.667 0 73.667 -6.33301 105 -19s57.166 -31.667 77.499 -57
s34.5 -57 42.5 -95s8 -82 0 -132h-357c4.66699 -45.333 20.167 -79.333 46.5 -102s65.5 -34 117.5 -34c21.333 0 40.833 1.83301 58.5 5.5s33 8 46 13s24 10 33 15s15.5 9.16699 19.5 12.5zM287.001 664.001l-70 -76h-97l102 148h129l102 -148h-97z" />
    <glyph glyph-name="edieresis" unicode="&#xeb;" horiz-adv-x="561" 
d="M293 435c-34.667 0 -63.166 -10 -85.499 -30s-37.166 -50 -44.499 -90h239c1.33301 40 -7.83398 70 -27.501 90s-46.834 30 -81.501 30zM509.001 40c-3.33301 -2.66699 -9.83301 -6.66602 -19.5 -11.999s-22.334 -10.833 -38.001 -16.5s-34.5 -10.667 -56.5 -15
s-47.333 -6.5 -76 -6.5c-95.333 0 -166.5 23.667 -213.5 71s-70.5 113.666 -70.5 198.999c0 42 6.33301 79.667 19 113s30.334 61.5 53.001 84.5s49.834 40.667 81.501 53s66.5 18.5 104.5 18.5c38.667 0 73.667 -6.33301 105 -19s57.166 -31.667 77.499 -57
s34.5 -57 42.5 -95s8 -82 0 -132h-357c4.66699 -45.333 20.167 -79.333 46.5 -102s65.5 -34 117.5 -34c21.333 0 40.833 1.83301 58.5 5.5s33 8 46 13s24 10 33 15s15.5 9.16699 19.5 12.5zM397.001 585.001c-21.333 0 -38.833 6.83301 -52.5 20.5s-20.5 30.167 -20.5 49.5
c0 20 6.83301 36.833 20.5 50.5s31.167 20.5 52.5 20.5c20 0 37.167 -6.83301 51.5 -20.5s21.5 -30.5 21.5 -50.5c0 -19.333 -7.16699 -35.833 -21.5 -49.5s-31.5 -20.5 -51.5 -20.5zM175.001 585.001c-20 0 -36.833 6.83301 -50.5 20.5s-20.5 30.167 -20.5 49.5
c0 20 6.83301 36.833 20.5 50.5s30.5 20.5 50.5 20.5c21.333 0 39 -6.83301 53 -20.5s21 -30.5 21 -50.5c0 -19.333 -7 -35.833 -21 -49.5s-31.667 -20.5 -53 -20.5z" />
    <glyph glyph-name="igrave" unicode="&#xec;" horiz-adv-x="255" 
d="M189 519v-519h-122v519h122zM81 588l-119 158h134l77 -158h-92z" />
    <glyph glyph-name="iacute" unicode="&#xed;" horiz-adv-x="255" 
d="M189 519v-519h-122v519h122zM151 746h134l-119 -158h-93z" />
    <glyph glyph-name="icircumflex" unicode="&#xee;" horiz-adv-x="255" 
d="M189 519v-519h-122v519h122zM126 664l-70 -76h-97l102 148h129l102 -148h-97z" />
    <glyph glyph-name="idieresis" unicode="&#xef;" horiz-adv-x="255" 
d="M221 582c-20.667 0 -37.834 6.83301 -51.501 20.5s-20.5 30.167 -20.5 49.5c0 20 6.83301 36.833 20.5 50.5s30.834 20.5 51.501 20.5c20 0 37 -6.83301 51 -20.5s21 -30.5 21 -50.5c0 -19.333 -7 -35.833 -21 -49.5s-31 -20.5 -51 -20.5zM34 582
c-20.667 0 -38 6.83301 -52 20.5s-21 30.167 -21 49.5c0 20 7 36.833 21 50.5s31.333 20.5 52 20.5s38 -6.83301 52 -20.5s21 -30.5 21 -50.5c0 -19.333 -7 -35.833 -21 -49.5s-31.333 -20.5 -52 -20.5zM189 519v-519h-122v519h122z" />
    <glyph glyph-name="eth" unicode="&#xf0;" horiz-adv-x="596" 
d="M290 -10c-34 0 -66.499 5.66699 -97.499 17s-58.167 28.166 -81.5 50.499s-41.833 50 -55.5 83s-20.5 71.5 -20.5 115.5s6.5 82.5 19.5 115.5s30.167 60.667 51.5 83s46 39 74 50s57 16.5 87 16.5c28 0 51.833 -4.16699 71.5 -12.5s37.834 -22.166 54.501 -41.499
c-11.333 24 -24.666 46.333 -39.999 67s-32.333 39.667 -51 57l-167 -53l-21 68l121 39c-18.667 12.667 -37.834 24.167 -57.501 34.5s-39.5 19.833 -59.5 28.5v8h166c20 -8 41 -20 63 -36l106 34l20 -69l-60 -19c18.667 -18.667 36.667 -39.667 54 -63
s32.666 -48.833 45.999 -76.5s23.833 -57.5 31.5 -89.5s11.5 -66 11.5 -102c0 -54 -7.33301 -100.333 -22 -139s-34.334 -70.167 -59.001 -94.5s-53 -42.333 -85 -54s-65.333 -17.5 -100 -17.5zM293.001 90c19.333 0 37.333 3.66797 54 11.001s31 19 43 35s21.5 37 28.5 63
s10.5 58 10.5 96c0 29.333 -3 58 -9 86c-15.333 17.333 -32.333 29.666 -51 36.999s-43 11 -73 11c-40 0 -72.667 -14.5 -98 -43.5s-38 -71.833 -38 -128.5s12.667 -98.667 38 -126s57 -41 95 -41z" />
    <glyph glyph-name="ntilde" unicode="&#xf1;" horiz-adv-x="593" 
d="M322 430c-32 0 -58.999 -6.83398 -80.999 -20.501s-39.667 -31.167 -53 -52.5v-357h-121v519h114l5 -83h2c14 26.667 35.167 48.834 63.5 66.501s64.166 26.5 107.499 26.5c50 0 91.167 -13.667 123.5 -41s48.5 -69 48.5 -125v-363h-121v351
c0 29.333 -7.66699 49.833 -23 61.5s-37 17.5 -65 17.5zM129.001 589.999c-1.33301 16.667 -0.333008 33.332 3 49.999s9.5 31.5 18.5 44.5s20.5 23.5 34.5 31.5s30.667 12 50 12c16 0 29.833 -2.33301 41.5 -7s22.5 -9.83398 32.5 -15.501l28.5 -15.5
c9 -4.66699 18.5 -7 28.5 -7c23.333 0 35 17 35 51h69c1.33301 -17.333 0.333008 -34.166 -3 -50.499s-9.5 -31 -18.5 -44s-20.5 -23.5 -34.5 -31.5s-30.667 -12 -50 -12c-16 0 -30 2.33301 -42 7s-23 9.83398 -33 15.501l-28.5 15.5c-9 4.66699 -18.5 7 -28.5 7
c-10.667 0 -19 -4 -25 -12s-9 -21 -9 -39h-69v0z" />
    <glyph glyph-name="ograve" unicode="&#xf2;" horiz-adv-x="588" 
d="M293 -10c-36.667 0 -70.667 6 -102 18s-58.5 29.5 -81.5 52.5s-41.167 51.167 -54.5 84.5s-20 71.666 -20 114.999s6.66699 81.666 20 114.999s31.5 61.5 54.5 84.5s50.167 40.333 81.5 52s65.333 17.5 102 17.5s71 -5.83301 103 -17.5s59.667 -29 83 -52
s41.666 -51.167 54.999 -84.5s20 -71.666 20 -114.999s-6.66699 -81.666 -20 -114.999s-31.666 -61.5 -54.999 -84.5s-51 -40.5 -83 -52.5s-66.333 -18 -103 -18zM293 89c39.333 0 71.833 13.833 97.5 41.5s38.5 70.834 38.5 129.501c0 28.667 -3.5 53.667 -10.5 75
s-16.5 39 -28.5 53s-26.333 24.5 -43 31.5s-34.667 10.5 -54 10.5c-38 0 -69.667 -13.833 -95 -41.5s-38 -70.5 -38 -128.5c0 -58.667 12.667 -101.834 38 -129.501s57 -41.5 95 -41.5zM249 588l-119 158h134l77 -158h-92z" />
    <glyph glyph-name="oacute" unicode="&#xf3;" horiz-adv-x="588" 
d="M293 -10c-36.667 0 -70.667 6 -102 18s-58.5 29.5 -81.5 52.5s-41.167 51.167 -54.5 84.5s-20 71.666 -20 114.999s6.66699 81.666 20 114.999s31.5 61.5 54.5 84.5s50.167 40.333 81.5 52s65.333 17.5 102 17.5s71 -5.83301 103 -17.5s59.667 -29 83 -52
s41.666 -51.167 54.999 -84.5s20 -71.666 20 -114.999s-6.66699 -81.666 -20 -114.999s-31.666 -61.5 -54.999 -84.5s-51 -40.5 -83 -52.5s-66.333 -18 -103 -18zM293 89c39.333 0 71.833 13.833 97.5 41.5s38.5 70.834 38.5 129.501c0 28.667 -3.5 53.667 -10.5 75
s-16.5 39 -28.5 53s-26.333 24.5 -43 31.5s-34.667 10.5 -54 10.5c-38 0 -69.667 -13.833 -95 -41.5s-38 -70.5 -38 -128.5c0 -58.667 12.667 -101.834 38 -129.501s57 -41.5 95 -41.5zM317 746h134l-119 -158h-93z" />
    <glyph glyph-name="ocircumflex" unicode="&#xf4;" horiz-adv-x="588" 
d="M293 -10c-36.667 0 -70.667 6 -102 18s-58.5 29.5 -81.5 52.5s-41.167 51.167 -54.5 84.5s-20 71.666 -20 114.999s6.66699 81.666 20 114.999s31.5 61.5 54.5 84.5s50.167 40.333 81.5 52s65.333 17.5 102 17.5s71 -5.83301 103 -17.5s59.667 -29 83 -52
s41.666 -51.167 54.999 -84.5s20 -71.666 20 -114.999s-6.66699 -81.666 -20 -114.999s-31.666 -61.5 -54.999 -84.5s-51 -40.5 -83 -52.5s-66.333 -18 -103 -18zM293 89c39.333 0 71.833 13.833 97.5 41.5s38.5 70.834 38.5 129.501c0 28.667 -3.5 53.667 -10.5 75
s-16.5 39 -28.5 53s-26.333 24.5 -43 31.5s-34.667 10.5 -54 10.5c-38 0 -69.667 -13.833 -95 -41.5s-38 -70.5 -38 -128.5c0 -58.667 12.667 -101.834 38 -129.501s57 -41.5 95 -41.5zM292 664l-70 -76h-97l102 148h129l102 -148h-97z" />
    <glyph glyph-name="otilde" unicode="&#xf5;" horiz-adv-x="588" 
d="M293 -10c-36.667 0 -70.667 6 -102 18s-58.5 29.5 -81.5 52.5s-41.167 51.167 -54.5 84.5s-20 71.666 -20 114.999s6.66699 81.666 20 114.999s31.5 61.5 54.5 84.5s50.167 40.333 81.5 52s65.333 17.5 102 17.5s71 -5.83301 103 -17.5s59.667 -29 83 -52
s41.666 -51.167 54.999 -84.5s20 -71.666 20 -114.999s-6.66699 -81.666 -20 -114.999s-31.666 -61.5 -54.999 -84.5s-51 -40.5 -83 -52.5s-66.333 -18 -103 -18zM293 89c39.333 0 71.833 13.833 97.5 41.5s38.5 70.834 38.5 129.501c0 28.667 -3.5 53.667 -10.5 75
s-16.5 39 -28.5 53s-26.333 24.5 -43 31.5s-34.667 10.5 -54 10.5c-38 0 -69.667 -13.833 -95 -41.5s-38 -70.5 -38 -128.5c0 -58.667 12.667 -101.834 38 -129.501s57 -41.5 95 -41.5zM121 590c-1.33301 16.667 -0.333008 33.332 3 49.999s9.5 31.5 18.5 44.5
s20.5 23.5 34.5 31.5s30.667 12 50 12c16 0 29.833 -2.33301 41.5 -7s22.5 -9.83398 32.5 -15.501l28.5 -15.5c9 -4.66699 18.5 -7 28.5 -7c23.333 0 35 17 35 51h69c1.33301 -17.333 0.333008 -34.166 -3 -50.499s-9.5 -31 -18.5 -44s-20.5 -23.5 -34.5 -31.5
s-30.667 -12 -50 -12c-16 0 -30 2.33301 -42 7s-23 9.83398 -33 15.501l-28.5 15.5c-9 4.66699 -18.5 7 -28.5 7c-10.667 0 -19 -4 -25 -12s-9 -21 -9 -39h-69v0z" />
    <glyph glyph-name="odieresis" unicode="&#xf6;" horiz-adv-x="588" 
d="M293 -10c-36.667 0 -70.667 6 -102 18s-58.5 29.5 -81.5 52.5s-41.167 51.167 -54.5 84.5s-20 71.666 -20 114.999s6.66699 81.666 20 114.999s31.5 61.5 54.5 84.5s50.167 40.333 81.5 52s65.333 17.5 102 17.5s71 -5.83301 103 -17.5s59.667 -29 83 -52
s41.666 -51.167 54.999 -84.5s20 -71.666 20 -114.999s-6.66699 -81.666 -20 -114.999s-31.666 -61.5 -54.999 -84.5s-51 -40.5 -83 -52.5s-66.333 -18 -103 -18zM293 89c39.333 0 71.833 13.833 97.5 41.5s38.5 70.834 38.5 129.501c0 28.667 -3.5 53.667 -10.5 75
s-16.5 39 -28.5 53s-26.333 24.5 -43 31.5s-34.667 10.5 -54 10.5c-38 0 -69.667 -13.833 -95 -41.5s-38 -70.5 -38 -128.5c0 -58.667 12.667 -101.834 38 -129.501s57 -41.5 95 -41.5zM403 585c-21.333 0 -38.833 6.83301 -52.5 20.5s-20.5 30.167 -20.5 49.5
c0 20 6.83301 36.833 20.5 50.5s31.167 20.5 52.5 20.5c20 0 37.167 -6.83301 51.5 -20.5s21.5 -30.5 21.5 -50.5c0 -19.333 -7.16699 -35.833 -21.5 -49.5s-31.5 -20.5 -51.5 -20.5zM181 585c-20 0 -36.833 6.83301 -50.5 20.5s-20.5 30.167 -20.5 49.5
c0 20 6.83301 36.833 20.5 50.5s30.5 20.5 50.5 20.5c21.333 0 39 -6.83301 53 -20.5s21 -30.5 21 -50.5c0 -19.333 -7 -35.833 -21 -49.5s-31.667 -20.5 -53 -20.5z" />
    <glyph glyph-name="divide" unicode="&#xf7;" 
d="M297 44c-23.333 0 -43 8 -59 24s-24 35 -24 57c0 22.667 8 41.834 24 57.501s35.667 23.5 59 23.5s42.833 -7.83301 58.5 -23.5s23.5 -34.834 23.5 -57.501c0 -22 -7.83301 -41 -23.5 -57s-35.167 -24 -58.5 -24zM297 469c-23.333 0 -43 8 -59 24s-24 35 -24 57
c0 22.667 8 41.834 24 57.501s35.667 23.5 59 23.5s42.833 -7.83301 58.5 -23.5s23.5 -34.834 23.5 -57.501c0 -22 -7.83301 -41 -23.5 -57s-35.167 -24 -58.5 -24zM46 292v90h495v-90h-495z" />
    <glyph glyph-name="oslash" unicode="&#xf8;" horiz-adv-x="588" 
d="M160 260c0 -48 9.33301 -86 28 -114l150 277c-13.333 4.66699 -28.333 7 -45 7c-38 0 -69.667 -13.833 -95 -41.5s-38 -70.5 -38 -128.5zM293 90c19.333 0 37.334 3.5 54.001 10.5s31 17.5 43 31.5s21.5 31.667 28.5 53s10.5 46.333 10.5 75
c0 23.333 -2.33301 44.5 -7 63.5s-11.334 35.167 -20.001 48.5l-148 -277c6.66699 -1.33301 13 -2.5 19 -3.5s12.667 -1.5 20 -1.5zM293.001 -10c-32.667 0 -62 4.33203 -88 12.999l-44 -83h-95l65 121c-30 22.667 -53.5 52.334 -70.5 89.001s-25.5 80 -25.5 130
c0 43.333 6.66699 81.666 20 114.999s31.5 61.5 54.5 84.5s50.167 40.333 81.5 52s65.333 17.5 102 17.5c33.333 0 64.666 -5 93.999 -15l46 85h90l-65 -122c30 -22.667 53.5 -52 70.5 -88s25.5 -79 25.5 -129c0 -43.333 -6.66699 -81.666 -20 -114.999
s-31.666 -61.5 -54.999 -84.5s-51 -40.5 -83 -52.5s-66.333 -18 -103 -18z" />
    <glyph glyph-name="ugrave" unicode="&#xf9;" horiz-adv-x="585" 
d="M397 83c-14 -26 -34.6641 -47.9971 -61.9971 -65.9971s-63 -27 -107 -27c-49.333 0 -89.5 14.167 -120.5 42.5s-46.5 71.166 -46.5 128.499v358h123v-354c0 -14.667 2.16699 -26.834 6.5 -36.501s10.333 -17.334 18 -23.001s16.667 -9.66699 27 -12
s21.166 -3.5 32.499 -3.5c31.333 0 57.166 6.66699 77.499 20s37.166 31 50.499 53v356h122v-519h-111l-8 83h-2v0zM251.003 588.003l-119 158h134l77 -158h-92z" />
    <glyph glyph-name="uacute" unicode="&#xfa;" horiz-adv-x="585" 
d="M397 83c-14 -26 -34.6641 -47.9971 -61.9971 -65.9971s-63 -27 -107 -27c-49.333 0 -89.5 14.167 -120.5 42.5s-46.5 71.166 -46.5 128.499v358h123v-354c0 -14.667 2.16699 -26.834 6.5 -36.501s10.333 -17.334 18 -23.001s16.667 -9.66699 27 -12
s21.166 -3.5 32.499 -3.5c31.333 0 57.166 6.66699 77.499 20s37.166 31 50.499 53v356h122v-519h-111l-8 83h-2v0zM313.003 746.003h134l-119 -158h-93z" />
    <glyph glyph-name="ucircumflex" unicode="&#xfb;" horiz-adv-x="585" 
d="M397 83c-14 -26 -34.6641 -47.9971 -61.9971 -65.9971s-63 -27 -107 -27c-49.333 0 -89.5 14.167 -120.5 42.5s-46.5 71.166 -46.5 128.499v358h123v-354c0 -14.667 2.16699 -26.834 6.5 -36.501s10.333 -17.334 18 -23.001s16.667 -9.66699 27 -12
s21.166 -3.5 32.499 -3.5c31.333 0 57.166 6.66699 77.499 20s37.166 31 50.499 53v356h122v-519h-111l-8 83h-2v0zM290.003 664.003l-70 -76h-97l102 148h129l102 -148h-97z" />
    <glyph glyph-name="udieresis" unicode="&#xfc;" horiz-adv-x="585" 
d="M397 83c-14 -26 -34.6641 -47.9971 -61.9971 -65.9971s-63 -27 -107 -27c-49.333 0 -89.5 14.167 -120.5 42.5s-46.5 71.166 -46.5 128.499v358h123v-354c0 -14.667 2.16699 -26.834 6.5 -36.501s10.333 -17.334 18 -23.001s16.667 -9.66699 27 -12
s21.166 -3.5 32.499 -3.5c31.333 0 57.166 6.66699 77.499 20s37.166 31 50.499 53v356h122v-519h-111l-8 83h-2v0zM401.003 585.003c-21.333 0 -38.833 6.83301 -52.5 20.5s-20.5 30.167 -20.5 49.5c0 20 6.83301 36.833 20.5 50.5s31.167 20.5 52.5 20.5
c20 0 37.167 -6.83301 51.5 -20.5s21.5 -30.5 21.5 -50.5c0 -19.333 -7.16699 -35.833 -21.5 -49.5s-31.5 -20.5 -51.5 -20.5zM179.003 585.003c-20 0 -36.833 6.83301 -50.5 20.5s-20.5 30.167 -20.5 49.5c0 20 6.83301 36.833 20.5 50.5s30.5 20.5 50.5 20.5
c21.333 0 39 -6.83301 53 -20.5s21 -30.5 21 -50.5c0 -19.333 -7 -35.833 -21 -49.5s-31.667 -20.5 -53 -20.5z" />
    <glyph glyph-name="yacute" unicode="&#xfd;" horiz-adv-x="540" 
d="M133 -187c-15.333 0 -30.665 1.16602 -45.998 3.49902s-27.666 5.5 -36.999 9.5l15 98c7.33301 -2.66699 16 -5 26 -7s21.667 -3 35 -3c20.667 0 38 4.5 52 13.5s26.333 22.833 37 41.5l-202 550h129l136 -396l135 396h114l-181 -513
c-11.333 -31.333 -23.333 -59 -36 -83s-27.334 -44.167 -44.001 -60.5s-35.834 -28.666 -57.501 -36.999s-46.834 -12.5 -75.501 -12.5zM307.001 745.999h134l-119 -158h-93z" />
    <glyph glyph-name="thorn" unicode="&#xfe;" horiz-adv-x="622" 
d="M328 90c40 0 72.5 14.167 97.5 42.5s37.5 70.833 37.5 127.5s-12.5 99.167 -37.5 127.5s-57.5 42.5 -97.5 42.5c-20 0 -38.5 -3.5 -55.5 -10.5s-31.667 -17.5 -44 -31.5s-22.166 -31.667 -29.499 -53s-11 -46.333 -11 -75s3.66699 -53.667 11 -75s17.166 -39 29.499 -53
s27 -24.5 44 -31.5s35.5 -10.5 55.5 -10.5zM358 -10c-40 0 -74 9 -102 27s-50.667 42.333 -68 73v-267h-121v893h121v-282c17.333 30 39.833 53.333 67.5 70s61.5 25 101.5 25c31.333 0 61 -5.5 89 -16.5s52.5 -27.667 73.5 -50s37.667 -50.333 50 -84
s18.5 -73.167 18.5 -118.5c0 -46 -6.16699 -85.833 -18.5 -119.5s-29 -61.667 -50 -84s-45.5 -39 -73.5 -50s-57.333 -16.5 -88 -16.5z" />
    <glyph glyph-name="ydieresis" unicode="&#xff;" horiz-adv-x="540" 
d="M133 -187c-15.333 0 -30.665 1.16602 -45.998 3.49902s-27.666 5.5 -36.999 9.5l15 98c7.33301 -2.66699 16 -5 26 -7s21.667 -3 35 -3c20.667 0 38 4.5 52 13.5s26.333 22.833 37 41.5l-202 550h129l136 -396l135 396h114l-181 -513
c-11.333 -31.333 -23.333 -59 -36 -83s-27.334 -44.167 -44.001 -60.5s-35.834 -28.666 -57.501 -36.999s-46.834 -12.5 -75.501 -12.5zM394.001 584.999c-21.333 0 -38.833 6.83301 -52.5 20.5s-20.5 30.167 -20.5 49.5c0 20 6.83301 36.833 20.5 50.5
s31.167 20.5 52.5 20.5c20 0 37.167 -6.83301 51.5 -20.5s21.5 -30.5 21.5 -50.5c0 -19.333 -7.16699 -35.833 -21.5 -49.5s-31.5 -20.5 -51.5 -20.5zM172.001 584.999c-20 0 -36.833 6.83301 -50.5 20.5s-20.5 30.167 -20.5 49.5c0 20 6.83301 36.833 20.5 50.5
s30.5 20.5 50.5 20.5c21.333 0 39 -6.83301 53 -20.5s21 -30.5 21 -50.5c0 -19.333 -7 -35.833 -21 -49.5s-31.667 -20.5 -53 -20.5z" />
    <glyph glyph-name="Amacron" unicode="&#x100;" horiz-adv-x="674" 
d="M328 600l-103 -312h206zM465 185h-274l-61 -185h-112l238 716h162l238 -716h-130zM179 890h319v-90h-319v90z" />
    <glyph glyph-name="amacron" unicode="&#x101;" horiz-adv-x="539" 
d="M233 83c16 0 30.333 2.33203 43 6.99902s24.167 10.5 34.5 17.5s19.333 14.833 27 23.5s14.167 17.334 19.5 26.001v79h-59c-50 0 -85.667 -7.33301 -107 -22s-32 -34.667 -32 -60c0 -22 6.33301 -39.333 19 -52s31 -19 55 -19zM370 -0.000976562
c-1.33301 8.66699 -2.83008 19.999 -4.49707 33.999s-2.83398 27.333 -3.50098 40c-7.33301 -10.667 -16 -21 -26 -31s-21.667 -19 -35 -27s-28.5 -14.333 -45.5 -19s-35.833 -7 -56.5 -7c-22 0 -42.833 3.16699 -62.5 9.5s-36.834 15.833 -51.501 28.5
s-26.167 28.334 -34.5 47.001s-12.5 40.667 -12.5 66c0 56 20.667 98.833 62 128.5s105.333 44.5 192 44.5h65v26c0 34 -9 57.5 -27 70.5s-45.333 19.5 -82 19.5c-32 0 -61.167 -4.33301 -87.5 -13s-50.166 -18.667 -71.499 -30l-25 96
c21.333 11.333 49.166 21.833 83.499 31.5s72.5 14.5 114.5 14.5c68.667 0 122 -14.167 160 -42.5s57 -73.833 57 -136.5v-266c0 -6 0.166992 -12.833 0.5 -20.5l1 -23.5c0.333008 -8 0.666016 -15.5 0.999023 -22.5s0.833008 -12.833 1.5 -17.5h-113zM114.003 691.998h303
v-88h-303v88z" />
    <glyph glyph-name="Abreve" unicode="&#x102;" horiz-adv-x="674" 
d="M328 600l-103 -312h206zM465 185h-274l-61 -185h-112l238 716h162l238 -716h-130zM337 766c-28 0 -52.5 4.16699 -73.5 12.5s-38.333 19.5 -52 33.5s-24 30.333 -31 49s-10.5 38.334 -10.5 59.001h96c0.666992 -20.667 7 -36.834 19 -48.501s29.333 -17.5 52 -17.5
s39.834 5.83301 51.501 17.5s18.167 27.834 19.5 48.501h96c-0.666992 -20.667 -4.5 -40.334 -11.5 -59.001s-17.333 -35 -31 -49s-30.834 -25.167 -51.501 -33.5s-45 -12.5 -73 -12.5z" />
    <glyph glyph-name="abreve" unicode="&#x103;" horiz-adv-x="539" 
d="M233 83c16 0 30.333 2.33203 43 6.99902s24.167 10.5 34.5 17.5s19.333 14.833 27 23.5s14.167 17.334 19.5 26.001v79h-59c-50 0 -85.667 -7.33301 -107 -22s-32 -34.667 -32 -60c0 -22 6.33301 -39.333 19 -52s31 -19 55 -19zM370 -0.000976562
c-1.33301 8.66699 -2.83008 19.999 -4.49707 33.999s-2.83398 27.333 -3.50098 40c-7.33301 -10.667 -16 -21 -26 -31s-21.667 -19 -35 -27s-28.5 -14.333 -45.5 -19s-35.833 -7 -56.5 -7c-22 0 -42.833 3.16699 -62.5 9.5s-36.834 15.833 -51.501 28.5
s-26.167 28.334 -34.5 47.001s-12.5 40.667 -12.5 66c0 56 20.667 98.833 62 128.5s105.333 44.5 192 44.5h65v26c0 34 -9 57.5 -27 70.5s-45.333 19.5 -82 19.5c-32 0 -61.167 -4.33301 -87.5 -13s-50.166 -18.667 -71.499 -30l-25 96
c21.333 11.333 49.166 21.833 83.499 31.5s72.5 14.5 114.5 14.5c68.667 0 122 -14.167 160 -42.5s57 -73.833 57 -136.5v-266c0 -6 0.166992 -12.833 0.5 -20.5l1 -23.5c0.333008 -8 0.666016 -15.5 0.999023 -22.5s0.833008 -12.833 1.5 -17.5h-113zM266.003 583.998
c-26 0 -48.666 3.99902 -67.999 11.999s-35.333 18.833 -48 32.5s-22.167 29.5 -28.5 47.5s-9.83301 37 -10.5 57h93c0.666992 -21.333 6.5 -37.166 17.5 -47.499s25.833 -15.5 44.5 -15.5c39.333 0 59.666 21 60.999 63h94c0 -20 -3.16699 -39 -9.5 -57
s-16 -33.833 -29 -47.5s-29.167 -24.5 -48.5 -32.5s-42 -12 -68 -12z" />
    <glyph glyph-name="Aogonek" unicode="&#x104;" horiz-adv-x="674" 
d="M603 -187c-40 0 -69.834 8 -89.501 24s-29.5 36.667 -29.5 62c0 20 4.83301 36.5 14.5 49.5s21.167 23.833 34.5 32.5l-67 204h-275l-61 -185h-112l238 716h162l237 -715c-15.333 -9.33301 -29.666 -21 -42.999 -35s-20 -28.667 -20 -44c0 -9.33301 3 -17.166 9 -23.499
s15.667 -9.5 29 -9.5c7.33301 0 14.333 0.833008 21 2.5s12.667 3.5 18 5.5v-72c-5.33301 -2.66699 -13.5 -5.33398 -24.5 -8.00098s-24.833 -4 -41.5 -4zM328.999 600l-104 -312h207z" />
    <glyph glyph-name="aogonek" unicode="&#x105;" horiz-adv-x="539" 
d="M434 -187c-41.333 0 -72.498 7.99902 -93.498 23.999s-31.5 36.667 -31.5 62c0 23.333 6.66699 42.166 20 56.499s27.666 25.5 42.999 33.5c-1.33301 5.33301 -2.5 11.833 -3.5 19.5s-2 15.834 -3 24.501s-1.83301 17.167 -2.5 25.5s-1.33398 15.833 -2.00098 22.5
c-6 -11.333 -13.667 -22.333 -23 -33s-20.666 -20.334 -33.999 -29.001s-28.666 -15.667 -45.999 -21s-37 -8 -59 -8s-42.833 3.16699 -62.5 9.5s-36.834 15.833 -51.501 28.5s-26.167 28.334 -34.5 47.001s-12.5 40.667 -12.5 66c0 56 20.667 98.833 62 128.5
s105.333 44.5 192 44.5h65v26c0 34 -9 57.5 -27 70.5s-45.333 19.5 -82 19.5c-32 0 -61.167 -4.33301 -87.5 -13s-50.166 -18.667 -71.499 -30l-25 96c21.333 11.333 49.166 21.833 83.499 31.5s72.5 14.5 114.5 14.5c68.667 0 122 -14.167 160 -42.5s57 -73.833 57 -136.5
v-266c0 -6 0.166992 -12.833 0.5 -20.5l1 -23.5c0.333008 -8 0.666016 -15.5 0.999023 -22.5s0.833008 -12.833 1.5 -17.5c-16.667 -8 -31.667 -19.167 -45 -33.5s-20 -29.166 -20 -44.499c0 -9.33301 2.83301 -17 8.5 -23s15.167 -9 28.5 -9
c7.33301 0 13.833 0.666992 19.5 2s11.167 3 16.5 5l13 -70c-6 -3.33301 -15.167 -6.5 -27.5 -9.5s-26.5 -4.5 -42.5 -4.5zM233.002 82.999c17.333 0 32.833 2.83301 46.5 8.5s25.5 12.667 35.5 21s18.5 17.5 25.5 27.5s12.5 19.667 16.5 29v67h-59
c-50 0 -85.667 -7.33301 -107 -22s-32 -34.667 -32 -60c0 -22 6.33301 -39.333 19 -52s31 -19 55 -19z" />
    <glyph glyph-name="Cacute" unicode="&#x106;" horiz-adv-x="652" 
d="M407 -10c-54 0 -103.5 8.5 -148.5 25.5s-83.667 41.333 -116 73s-57.333 70.167 -75 115.5s-26.5 96.666 -26.5 153.999s8.66699 108.833 26 154.5s41.833 84.334 73.5 116.001s69.5 55.834 113.5 72.501s93 25 147 25c48.667 0 90 -4.83301 124 -14.5
s60.667 -20.167 80 -31.5l-18 -109c-23.333 14 -50 25.5 -80 34.5s-63.667 13.5 -101 13.5c-73.333 0 -130.333 -21.833 -171 -65.5s-61 -108.834 -61 -195.501c0 -87.333 20.833 -152.5 62.5 -195.5s100.834 -64.5 177.501 -64.5c32 0 61 4.16699 87 12.5
s50.667 19.833 74 34.5l33 -100c-18.667 -13.333 -44.834 -25.833 -78.501 -37.5s-74.5 -17.5 -122.5 -17.5zM392 912h155l-128 -136h-105z" />
    <glyph glyph-name="cacute" unicode="&#x107;" horiz-adv-x="504" 
d="M311 -10c-41.333 0 -78.998 5.99902 -112.998 17.999s-63 29.5 -87 52.5s-42.667 51.167 -56 84.5s-20 71.333 -20 114c0 42 6.66699 79.833 20 113.5s32 62 56 85s52.667 40.667 86 53s69.666 18.5 108.999 18.5c36 0 67.5 -3.83301 94.5 -11.5s48.833 -17.5 65.5 -29.5
l-25 -94c-17.333 10 -36.166 18.5 -56.499 25.5s-45.5 10.5 -75.5 10.5c-46 0 -82.333 -14.167 -109 -42.5s-40 -71.166 -40 -128.499c0 -55.333 13.667 -97.333 41 -126s65.333 -43 114 -43c27.333 0 50.666 3.33301 69.999 10s37.666 15 54.999 25l25 -94
c-17.333 -11.333 -38.333 -21 -63 -29s-55 -12 -91 -12zM310.002 745.999h134l-119 -158h-93z" />
    <glyph glyph-name="Ccircumflex" unicode="&#x108;" horiz-adv-x="652" 
d="M407 -10c-54 0 -103.5 8.5 -148.5 25.5s-83.667 41.333 -116 73s-57.333 70.167 -75 115.5s-26.5 96.666 -26.5 153.999s8.66699 108.833 26 154.5s41.833 84.334 73.5 116.001s69.5 55.834 113.5 72.501s93 25 147 25c48.667 0 90 -4.83301 124 -14.5
s60.667 -20.167 80 -31.5l-18 -109c-23.333 14 -50 25.5 -80 34.5s-63.667 13.5 -101 13.5c-73.333 0 -130.333 -21.833 -171 -65.5s-61 -108.834 -61 -195.501c0 -87.333 20.833 -152.5 62.5 -195.5s100.834 -64.5 177.501 -64.5c32 0 61 4.16699 87 12.5
s50.667 19.833 74 34.5l33 -100c-18.667 -13.333 -44.834 -25.833 -78.501 -37.5s-74.5 -17.5 -122.5 -17.5zM378 849l-75 -78h-97l107 148h129l107 -148h-97z" />
    <glyph glyph-name="ccircumflex" unicode="&#x109;" horiz-adv-x="504" 
d="M311 -10c-41.333 0 -78.998 5.99902 -112.998 17.999s-63 29.5 -87 52.5s-42.667 51.167 -56 84.5s-20 71.333 -20 114c0 42 6.66699 79.833 20 113.5s32 62 56 85s52.667 40.667 86 53s69.666 18.5 108.999 18.5c36 0 67.5 -3.83301 94.5 -11.5s48.833 -17.5 65.5 -29.5
l-25 -94c-17.333 10 -36.166 18.5 -56.499 25.5s-45.5 10.5 -75.5 10.5c-46 0 -82.333 -14.167 -109 -42.5s-40 -71.166 -40 -128.499c0 -55.333 13.667 -97.333 41 -126s65.333 -43 114 -43c27.333 0 50.666 3.33301 69.999 10s37.666 15 54.999 25l25 -94
c-17.333 -11.333 -38.333 -21 -63 -29s-55 -12 -91 -12zM288.002 663.999l-70 -76h-97l102 148h129l102 -148h-97z" />
    <glyph glyph-name="Cdotaccent" unicode="&#x10a;" horiz-adv-x="652" 
d="M407 -10c-54 0 -103.5 8.5 -148.5 25.5s-83.667 41.333 -116 73s-57.333 70.167 -75 115.5s-26.5 96.666 -26.5 153.999s8.66699 108.833 26 154.5s41.833 84.334 73.5 116.001s69.5 55.834 113.5 72.501s93 25 147 25c48.667 0 90 -4.83301 124 -14.5
s60.667 -20.167 80 -31.5l-18 -109c-23.333 14 -50 25.5 -80 34.5s-63.667 13.5 -101 13.5c-73.333 0 -130.333 -21.833 -171 -65.5s-61 -108.834 -61 -195.501c0 -87.333 20.833 -152.5 62.5 -195.5s100.834 -64.5 177.501 -64.5c32 0 61 4.16699 87 12.5
s50.667 19.833 74 34.5l33 -100c-18.667 -13.333 -44.834 -25.833 -78.501 -37.5s-74.5 -17.5 -122.5 -17.5zM378 779c-21.333 0 -39.166 7.16699 -53.499 21.5s-21.5 31.5 -21.5 51.5c0 20.667 7.16699 38.167 21.5 52.5s32.166 21.5 53.499 21.5s39.333 -7.16699 54 -21.5
s22 -31.833 22 -52.5c0 -20 -7.33301 -37.167 -22 -51.5s-32.667 -21.5 -54 -21.5z" />
    <glyph glyph-name="cdotaccent" unicode="&#x10b;" horiz-adv-x="504" 
d="M311 -10c-41.333 0 -78.998 5.99902 -112.998 17.999s-63 29.5 -87 52.5s-42.667 51.167 -56 84.5s-20 71.333 -20 114c0 42 6.66699 79.833 20 113.5s32 62 56 85s52.667 40.667 86 53s69.666 18.5 108.999 18.5c36 0 67.5 -3.83301 94.5 -11.5s48.833 -17.5 65.5 -29.5
l-25 -94c-17.333 10 -36.166 18.5 -56.499 25.5s-45.5 10.5 -75.5 10.5c-46 0 -82.333 -14.167 -109 -42.5s-40 -71.166 -40 -128.499c0 -55.333 13.667 -97.333 41 -126s65.333 -43 114 -43c27.333 0 50.666 3.33301 69.999 10s37.666 15 54.999 25l25 -94
c-17.333 -11.333 -38.333 -21 -63 -29s-55 -12 -91 -12zM289.002 581.999c-21.333 0 -39.166 7.16699 -53.499 21.5s-21.5 31.5 -21.5 51.5c0 20.667 7.16699 38 21.5 52s32.166 21 53.499 21s39.333 -7 54 -21s22 -31.333 22 -52c0 -20 -7.33301 -37.167 -22 -51.5
s-32.667 -21.5 -54 -21.5z" />
    <glyph glyph-name="Ccaron" unicode="&#x10c;" horiz-adv-x="652" 
d="M407 -10c-54 0 -103.5 8.5 -148.5 25.5s-83.667 41.333 -116 73s-57.333 70.167 -75 115.5s-26.5 96.666 -26.5 153.999s8.66699 108.833 26 154.5s41.833 84.334 73.5 116.001s69.5 55.834 113.5 72.501s93 25 147 25c48.667 0 90 -4.83301 124 -14.5
s60.667 -20.167 80 -31.5l-18 -109c-23.333 14 -50 25.5 -80 34.5s-63.667 13.5 -101 13.5c-73.333 0 -130.333 -21.833 -171 -65.5s-61 -108.834 -61 -195.501c0 -87.333 20.833 -152.5 62.5 -195.5s100.834 -64.5 177.501 -64.5c32 0 61 4.16699 87 12.5
s50.667 19.833 74 34.5l33 -100c-18.667 -13.333 -44.834 -25.833 -78.501 -37.5s-74.5 -17.5 -122.5 -17.5zM312 771l-107 148h97l74 -78l75 78h97l-108 -148h-128z" />
    <glyph glyph-name="ccaron" unicode="&#x10d;" horiz-adv-x="504" 
d="M311 -10c-41.333 0 -78.998 5.99902 -112.998 17.999s-63 29.5 -87 52.5s-42.667 51.167 -56 84.5s-20 71.333 -20 114c0 42 6.66699 79.833 20 113.5s32 62 56 85s52.667 40.667 86 53s69.666 18.5 108.999 18.5c36 0 67.5 -3.83301 94.5 -11.5s48.833 -17.5 65.5 -29.5
l-25 -94c-17.333 10 -36.166 18.5 -56.499 25.5s-45.5 10.5 -75.5 10.5c-46 0 -82.333 -14.167 -109 -42.5s-40 -71.166 -40 -128.499c0 -55.333 13.667 -97.333 41 -126s65.333 -43 114 -43c27.333 0 50.666 3.33301 69.999 10s37.666 15 54.999 25l25 -94
c-17.333 -11.333 -38.333 -21 -63 -29s-55 -12 -91 -12zM121.002 735.999h97l70 -76l69 76h97l-102 -148h-129z" />
    <glyph glyph-name="Dcaron" unicode="&#x10e;" horiz-adv-x="725" 
d="M205 609v-500.998h111c34.667 0 66.5 5.16699 95.5 15.5s53.833 26.166 74.5 47.499s36.667 48.666 48 81.999s17 73 17 119c0 46.667 -5.66699 85.167 -17 115.5s-27 54.5 -47 72.5s-43.833 30.667 -71.5 38s-57.5 11 -89.5 11h-121zM78 716.002h243.001
c51.333 0 99.166 -5.66699 143.499 -17s82.666 -30 114.999 -56s57.833 -60.667 76.5 -104s28 -97 28 -161c0 -62 -9.33301 -116.667 -28 -164s-44.667 -86.833 -78 -118.5s-72.666 -55.5 -117.999 -71.5s-95 -24 -149 -24h-233v716zM272.001 771.002l-107 148h97l74 -78
l75 78h97l-108 -148h-128z" />
    <glyph glyph-name="dcaron" unicode="&#x10f;" horiz-adv-x="623" 
d="M298 90c19.333 0 37.332 3.5 53.999 10.5s31.334 17.5 44.001 31.5s22.5 31.667 29.5 53s10.5 46.333 10.5 75c0 57.333 -13.167 100 -39.5 128s-58.833 42 -97.5 42c-40 0 -73 -14.333 -99 -43s-39 -71 -39 -127c0 -56.667 12.833 -99.167 38.5 -127.5
s58.5 -42.5 98.5 -42.5zM438.999 95c-16.667 -32 -38.998 -57.5 -66.998 -76.5s-62.667 -28.5 -104 -28.5c-30 0 -59 5.5 -87 16.5s-52.667 27.667 -74 50s-38.5 50.333 -51.5 84s-19.5 73.5 -19.5 119.5c0 45.333 6.5 84.833 19.5 118.5s30.167 61.667 51.5 84
s46.166 39 74.499 50s57.5 16.5 87.5 16.5c38.667 0 71.667 -7.5 99 -22.5s49.666 -36.167 66.999 -63.5v273h121v-716h-111zM604.001 557l19 159h119l-59 -159h-79z" />
    <glyph glyph-name="Dcroat" unicode="&#x110;" horiz-adv-x="759" 
d="M239 317v-209.001h111c34.667 0 66.5 5.16699 95.5 15.5s53.833 26.5 74.5 48.5s36.667 49.833 48 83.5s17 73.834 17 120.501c0 46 -5.66699 84 -17 114s-27 53.833 -47 71.5s-43.667 30 -71 37s-57.333 10.5 -90 10.5h-121v-192h183v-100h-183zM111 316.999h-90v100h90
v299h245c50.667 0 98.167 -5.5 142.5 -16.5s82.666 -29.5 114.999 -55.5s57.833 -60.333 76.5 -103s28 -95.667 28 -159s-9.33301 -118.833 -28 -166.5s-44.667 -87.5 -78 -119.5s-72.666 -56 -117.999 -72s-95 -24 -149 -24h-234v317z" />
    <glyph glyph-name="dcroat" unicode="&#x111;" horiz-adv-x="627" 
d="M439 95c-16.667 -32 -38.998 -57.5 -66.998 -76.5s-62.667 -28.5 -104 -28.5c-30 0 -59 5.5 -87 16.5s-52.667 27.667 -74 50s-38.5 50.333 -51.5 84s-19.5 73.5 -19.5 119.5c0 45.333 6.5 84.833 19.5 118.5s30.167 61.667 51.5 84s46.166 39 74.499 50
s57.5 16.5 87.5 16.5c38.667 0 71.667 -7.5 99 -22.5s49.666 -36.167 66.999 -63.5v126h-151v82h151v65h121v-65h71v-82h-71v-569h-111zM298.002 90c19.333 0 37.332 3.5 53.999 10.5s31.334 17.5 44.001 31.5s22.5 31.667 29.5 53s10.5 46.333 10.5 75
c0 57.333 -13.167 100 -39.5 128s-58.833 42 -97.5 42c-40 0 -73 -14.333 -99 -43s-39 -71 -39 -127c0 -56.667 12.833 -99.167 38.5 -127.5s58.5 -42.5 98.5 -42.5z" />
    <glyph glyph-name="Emacron" unicode="&#x112;" horiz-adv-x="583" 
d="M78 716h440v-107h-313v-184h266v-108h-266v-209h318v-108h-445v716zM141 890h319v-90h-319v90z" />
    <glyph glyph-name="emacron" unicode="&#x113;" horiz-adv-x="561" 
d="M293 435c-34.667 0 -63.166 -10 -85.499 -30s-37.166 -50 -44.499 -90h239c1.33301 40 -7.83398 70 -27.501 90s-46.834 30 -81.501 30zM509.001 40c-3.33301 -2.66699 -9.83301 -6.66602 -19.5 -11.999s-22.334 -10.833 -38.001 -16.5s-34.5 -10.667 -56.5 -15
s-47.333 -6.5 -76 -6.5c-95.333 0 -166.5 23.667 -213.5 71s-70.5 113.666 -70.5 198.999c0 42 6.33301 79.667 19 113s30.334 61.5 53.001 84.5s49.834 40.667 81.501 53s66.5 18.5 104.5 18.5c38.667 0 73.667 -6.33301 105 -19s57.166 -31.667 77.499 -57
s34.5 -57 42.5 -95s8 -82 0 -132h-357c4.66699 -45.333 20.167 -79.333 46.5 -102s65.5 -34 117.5 -34c21.333 0 40.833 1.83301 58.5 5.5s33 8 46 13s24 10 33 15s15.5 9.16699 19.5 12.5zM136.001 692.001h303v-88h-303v88z" />
    <glyph glyph-name="Ebreve" unicode="&#x114;" horiz-adv-x="583" 
d="M78 716h440v-107h-313v-184h266v-108h-266v-209h318v-108h-445v716zM307 766c-28 0 -52.5 4.16699 -73.5 12.5s-38.333 19.5 -52 33.5s-24 30.333 -31 49s-10.5 38.334 -10.5 59.001h96c0.666992 -20.667 7 -36.834 19 -48.501s29.333 -17.5 52 -17.5
s39.834 5.83301 51.501 17.5s18.167 27.834 19.5 48.501h96c-0.666992 -20.667 -4.5 -40.334 -11.5 -59.001s-17.333 -35 -31 -49s-30.834 -25.167 -51.501 -33.5s-45 -12.5 -73 -12.5z" />
    <glyph glyph-name="ebreve" unicode="&#x115;" horiz-adv-x="561" 
d="M293 435c-34.667 0 -63.166 -10 -85.499 -30s-37.166 -50 -44.499 -90h239c1.33301 40 -7.83398 70 -27.501 90s-46.834 30 -81.501 30zM509.001 40c-3.33301 -2.66699 -9.83301 -6.66602 -19.5 -11.999s-22.334 -10.833 -38.001 -16.5s-34.5 -10.667 -56.5 -15
s-47.333 -6.5 -76 -6.5c-95.333 0 -166.5 23.667 -213.5 71s-70.5 113.666 -70.5 198.999c0 42 6.33301 79.667 19 113s30.334 61.5 53.001 84.5s49.834 40.667 81.501 53s66.5 18.5 104.5 18.5c38.667 0 73.667 -6.33301 105 -19s57.166 -31.667 77.499 -57
s34.5 -57 42.5 -95s8 -82 0 -132h-357c4.66699 -45.333 20.167 -79.333 46.5 -102s65.5 -34 117.5 -34c21.333 0 40.833 1.83301 58.5 5.5s33 8 46 13s24 10 33 15s15.5 9.16699 19.5 12.5zM288.001 584.001c-26 0 -48.666 3.99902 -67.999 11.999s-35.333 18.833 -48 32.5
s-22.167 29.5 -28.5 47.5s-9.83301 37 -10.5 57h93c0.666992 -21.333 6.5 -37.166 17.5 -47.499s25.833 -15.5 44.5 -15.5c39.333 0 59.666 21 60.999 63h94c0 -20 -3.16699 -39 -9.5 -57s-16 -33.833 -29 -47.5s-29.167 -24.5 -48.5 -32.5s-42 -12 -68 -12z" />
    <glyph glyph-name="Edotaccent" unicode="&#x116;" horiz-adv-x="583" 
d="M78 716h440v-107h-313v-184h266v-108h-266v-209h318v-108h-445v716zM307 779c-21.333 0 -39.166 7.16699 -53.499 21.5s-21.5 31.5 -21.5 51.5c0 20.667 7.16699 38.167 21.5 52.5s32.166 21.5 53.499 21.5s39.333 -7.16699 54 -21.5s22 -31.833 22 -52.5
c0 -20 -7.33301 -37.167 -22 -51.5s-32.667 -21.5 -54 -21.5z" />
    <glyph glyph-name="edotaccent" unicode="&#x117;" horiz-adv-x="561" 
d="M293 435c-34.667 0 -63.166 -10 -85.499 -30s-37.166 -50 -44.499 -90h239c1.33301 40 -7.83398 70 -27.501 90s-46.834 30 -81.501 30zM509.001 40c-3.33301 -2.66699 -9.83301 -6.66602 -19.5 -11.999s-22.334 -10.833 -38.001 -16.5s-34.5 -10.667 -56.5 -15
s-47.333 -6.5 -76 -6.5c-95.333 0 -166.5 23.667 -213.5 71s-70.5 113.666 -70.5 198.999c0 42 6.33301 79.667 19 113s30.334 61.5 53.001 84.5s49.834 40.667 81.501 53s66.5 18.5 104.5 18.5c38.667 0 73.667 -6.33301 105 -19s57.166 -31.667 77.499 -57
s34.5 -57 42.5 -95s8 -82 0 -132h-357c4.66699 -45.333 20.167 -79.333 46.5 -102s65.5 -34 117.5 -34c21.333 0 40.833 1.83301 58.5 5.5s33 8 46 13s24 10 33 15s15.5 9.16699 19.5 12.5zM287.001 582.001c-21.333 0 -39.166 7.16699 -53.499 21.5s-21.5 31.5 -21.5 51.5
c0 20.667 7.16699 38 21.5 52s32.166 21 53.499 21s39.333 -7 54 -21s22 -31.333 22 -52c0 -20 -7.33301 -37.167 -22 -51.5s-32.667 -21.5 -54 -21.5z" />
    <glyph glyph-name="Eogonek" unicode="&#x118;" horiz-adv-x="583" 
d="M78 716h440v-107h-313v-184h266v-108h-266v-209h318v-108h-445v716zM436 -187c-41.333 0 -72.5 8 -93.5 24s-31.5 36.667 -31.5 62c0 14 2.66699 26.5 8 37.5s12.166 20.5 20.499 28.5s17.5 14.833 27.5 20.5s19.667 10.5 29 14.5h85
c-14.667 -8.66699 -28.667 -20 -42 -34s-20 -28.667 -20 -44c0 -9.33301 3 -17 9 -23s15.333 -9 28 -9c7.33301 0 13.833 0.666992 19.5 2s11.167 3 16.5 5l14 -70c-6.66699 -3.33301 -16.167 -6.5 -28.5 -9.5s-26.166 -4.5 -41.499 -4.5z" />
    <glyph glyph-name="eogonek" unicode="&#x119;" horiz-adv-x="561" 
d="M359 -78c0 -9.33301 2.99805 -16.999 8.99805 -22.999s15.333 -9 28 -9c8 0 14.833 0.666992 20.5 2s11.167 3 16.5 5l13 -70c-6 -3.33301 -15.333 -6.5 -28 -9.5s-26.667 -4.5 -42 -4.5c-41.333 0 -72.5 8 -93.5 24s-31.5 36.667 -31.5 62
c0 23.333 6.5 42.166 19.5 56.499s27.5 25.833 43.5 34.5h-6c-90.667 1.33301 -158.834 25.833 -204.501 73.5s-68.5 113.167 -68.5 196.5c0 42 6.33301 79.667 19 113s30.334 61.5 53.001 84.5s49.834 40.667 81.501 53s66.5 18.5 104.5 18.5
c38.667 0 73.667 -6.33301 105 -19s57.166 -31.667 77.499 -57s34.5 -57 42.5 -95s8 -82 0 -132h-357c4.66699 -45.333 20 -79.333 46 -102s66 -34 120 -34c21.333 0 40.5 1.83301 57.5 5.5s32 8 45 13s24 10 33 15s15.5 9.16699 19.5 12.5l27 -96
c-5.33301 -3.33301 -13.666 -8 -24.999 -14s-25.666 -12.667 -42.999 -20c-25.333 -10.667 -45.333 -23 -60 -37s-22 -29.667 -22 -47zM292.998 435.001c-34.667 0 -63.332 -10 -85.999 -30s-37.334 -50 -44.001 -90h239c1.33301 40 -8 70 -28 90s-47 30 -81 30z" />
    <glyph glyph-name="Ecaron" unicode="&#x11a;" horiz-adv-x="583" 
d="M78 716h440v-107h-313v-184h266v-108h-266v-209h318v-108h-445v716zM243 771l-107 148h97l74 -78l75 78h97l-108 -148h-128z" />
    <glyph glyph-name="ecaron" unicode="&#x11b;" horiz-adv-x="561" 
d="M293 435c-34.667 0 -63.166 -10 -85.499 -30s-37.166 -50 -44.499 -90h239c1.33301 40 -7.83398 70 -27.501 90s-46.834 30 -81.501 30zM509.001 40c-3.33301 -2.66699 -9.83301 -6.66602 -19.5 -11.999s-22.334 -10.833 -38.001 -16.5s-34.5 -10.667 -56.5 -15
s-47.333 -6.5 -76 -6.5c-95.333 0 -166.5 23.667 -213.5 71s-70.5 113.666 -70.5 198.999c0 42 6.33301 79.667 19 113s30.334 61.5 53.001 84.5s49.834 40.667 81.501 53s66.5 18.5 104.5 18.5c38.667 0 73.667 -6.33301 105 -19s57.166 -31.667 77.499 -57
s34.5 -57 42.5 -95s8 -82 0 -132h-357c4.66699 -45.333 20.167 -79.333 46.5 -102s65.5 -34 117.5 -34c21.333 0 40.833 1.83301 58.5 5.5s33 8 46 13s24 10 33 15s15.5 9.16699 19.5 12.5zM119.001 736.001h97l70 -76l69 76h97l-102 -148h-129z" />
    <glyph glyph-name="Gcircumflex" unicode="&#x11c;" horiz-adv-x="746" 
d="M703 279c0 -42 -6.3291 -80.6689 -18.9961 -116.002s-31.834 -65.833 -57.501 -91.5s-57.834 -45.667 -96.501 -60s-83.667 -21.5 -135 -21.5c-53.333 0 -101.833 8.66699 -145.5 26s-81 42 -112 74s-54.833 70.667 -71.5 116s-25 96 -25 152s8 106.667 24 152
s39.833 84 71.5 116s70.667 56.667 117 74s99.833 26 160.5 26c55.333 0 102.333 -5.83301 141 -17.5s70 -24.834 94 -39.501l-18 -113c-28 18.667 -59.833 33.834 -95.5 45.501s-74.834 17.5 -117.501 17.5s-79.334 -5.83301 -110.001 -17.5s-55.834 -28.667 -75.501 -51
s-34.167 -49.666 -43.5 -81.999s-14 -69.166 -14 -110.499c0 -82.667 18.833 -146.667 56.5 -192s92.5 -68 164.5 -68c62.667 0 108.334 15.333 137.001 46s43 71.667 43 123v9h-206v108h333v-105v0zM392.004 848.998l-75 -78h-97l107 148h129l107 -148h-97z" />
    <glyph glyph-name="gcircumflex" unicode="&#x11d;" horiz-adv-x="613" 
d="M296 121c37.333 0 68.5 12.666 93.5 37.999s37.5 63.666 37.5 114.999c0 52.667 -12.5 91.834 -37.5 117.501s-56.5 38.5 -94.5 38.5s-70 -13 -96 -39s-39 -65 -39 -117c0 -51.333 13 -89.666 39 -114.999s58.333 -38 97 -38zM264 -179.001
c-48 0 -88.665 3.8291 -121.998 11.4961s-59.333 16.834 -78 27.501l24 103c16.667 -9.33301 39.667 -18.666 69 -27.999s65 -14 107 -14c57.333 0 98.666 11.167 123.999 33.5s38 56.5 38 102.5v60c-16 -28.667 -37.333 -51.5 -64 -68.5s-59.334 -25.5 -98.001 -25.5
c-30 0 -58.833 5.16699 -86.5 15.5s-52 26 -73 47s-37.667 47.167 -50 78.5s-18.5 68 -18.5 110c0 42.667 6.16699 79.834 18.5 111.501s29 58.167 50 79.5s45.5 37.333 73.5 48s57.333 16 88 16c40 0 73.667 -8.5 101 -25.5s49 -40.5 65 -70.5v3
c0 12 0.833008 26.5 2.5 43.5s3.5 30.167 5.5 39.5h112c-1.33301 -9.33301 -2.5 -22.666 -3.5 -39.999s-1.5 -31.666 -1.5 -42.999v-374c0 -36.667 -5.33301 -69.834 -16 -99.501s-27.5 -55 -50.5 -76s-52.333 -37.167 -88 -48.5s-78.5 -17 -128.5 -17zM287.002 663.995
l-70 -76h-97l102 148h129l102 -148h-97z" />
    <glyph glyph-name="Gbreve" unicode="&#x11e;" horiz-adv-x="746" 
d="M703 279c0 -42 -6.3291 -80.6689 -18.9961 -116.002s-31.834 -65.833 -57.501 -91.5s-57.834 -45.667 -96.501 -60s-83.667 -21.5 -135 -21.5c-53.333 0 -101.833 8.66699 -145.5 26s-81 42 -112 74s-54.833 70.667 -71.5 116s-25 96 -25 152s8 106.667 24 152
s39.833 84 71.5 116s70.667 56.667 117 74s99.833 26 160.5 26c55.333 0 102.333 -5.83301 141 -17.5s70 -24.834 94 -39.501l-18 -113c-28 18.667 -59.833 33.834 -95.5 45.501s-74.834 17.5 -117.501 17.5s-79.334 -5.83301 -110.001 -17.5s-55.834 -28.667 -75.501 -51
s-34.167 -49.666 -43.5 -81.999s-14 -69.166 -14 -110.499c0 -82.667 18.833 -146.667 56.5 -192s92.5 -68 164.5 -68c62.667 0 108.334 15.333 137.001 46s43 71.667 43 123v9h-206v108h333v-105v0zM392.004 765.998c-28 0 -52.5 4.16699 -73.5 12.5s-38.333 19.5 -52 33.5
s-24 30.333 -31 49s-10.5 38.334 -10.5 59.001h96c0.666992 -20.667 7 -36.834 19 -48.501s29.333 -17.5 52 -17.5s39.834 5.83301 51.501 17.5s18.167 27.834 19.5 48.501h96c-0.666992 -20.667 -4.5 -40.334 -11.5 -59.001s-17.333 -35 -31 -49
s-30.834 -25.167 -51.501 -33.5s-45 -12.5 -73 -12.5z" />
    <glyph glyph-name="gbreve" unicode="&#x11f;" horiz-adv-x="613" 
d="M296 121c37.333 0 68.5 12.666 93.5 37.999s37.5 63.666 37.5 114.999c0 52.667 -12.5 91.834 -37.5 117.501s-56.5 38.5 -94.5 38.5s-70 -13 -96 -39s-39 -65 -39 -117c0 -51.333 13 -89.666 39 -114.999s58.333 -38 97 -38zM264 -179.001
c-48 0 -88.665 3.8291 -121.998 11.4961s-59.333 16.834 -78 27.501l24 103c16.667 -9.33301 39.667 -18.666 69 -27.999s65 -14 107 -14c57.333 0 98.666 11.167 123.999 33.5s38 56.5 38 102.5v60c-16 -28.667 -37.333 -51.5 -64 -68.5s-59.334 -25.5 -98.001 -25.5
c-30 0 -58.833 5.16699 -86.5 15.5s-52 26 -73 47s-37.667 47.167 -50 78.5s-18.5 68 -18.5 110c0 42.667 6.16699 79.834 18.5 111.501s29 58.167 50 79.5s45.5 37.333 73.5 48s57.333 16 88 16c40 0 73.667 -8.5 101 -25.5s49 -40.5 65 -70.5v3
c0 12 0.833008 26.5 2.5 43.5s3.5 30.167 5.5 39.5h112c-1.33301 -9.33301 -2.5 -22.666 -3.5 -39.999s-1.5 -31.666 -1.5 -42.999v-374c0 -36.667 -5.33301 -69.834 -16 -99.501s-27.5 -55 -50.5 -76s-52.333 -37.167 -88 -48.5s-78.5 -17 -128.5 -17zM288.002 583.995
c-26 0 -48.666 3.99902 -67.999 11.999s-35.333 18.833 -48 32.5s-22.167 29.5 -28.5 47.5s-9.83301 37 -10.5 57h93c0.666992 -21.333 6.5 -37.166 17.5 -47.499s25.833 -15.5 44.5 -15.5c39.333 0 59.666 21 60.999 63h94c0 -20 -3.16699 -39 -9.5 -57
s-16 -33.833 -29 -47.5s-29.167 -24.5 -48.5 -32.5s-42 -12 -68 -12z" />
    <glyph glyph-name="Gdotaccent" unicode="&#x120;" horiz-adv-x="746" 
d="M703 279c0 -42 -6.3291 -80.6689 -18.9961 -116.002s-31.834 -65.833 -57.501 -91.5s-57.834 -45.667 -96.501 -60s-83.667 -21.5 -135 -21.5c-53.333 0 -101.833 8.66699 -145.5 26s-81 42 -112 74s-54.833 70.667 -71.5 116s-25 96 -25 152s8 106.667 24 152
s39.833 84 71.5 116s70.667 56.667 117 74s99.833 26 160.5 26c55.333 0 102.333 -5.83301 141 -17.5s70 -24.834 94 -39.501l-18 -113c-28 18.667 -59.833 33.834 -95.5 45.501s-74.834 17.5 -117.501 17.5s-79.334 -5.83301 -110.001 -17.5s-55.834 -28.667 -75.501 -51
s-34.167 -49.666 -43.5 -81.999s-14 -69.166 -14 -110.499c0 -82.667 18.833 -146.667 56.5 -192s92.5 -68 164.5 -68c62.667 0 108.334 15.333 137.001 46s43 71.667 43 123v9h-206v108h333v-105v0zM392.004 778.998c-21.333 0 -39.166 7.16699 -53.499 21.5
s-21.5 31.5 -21.5 51.5c0 20.667 7.16699 38.167 21.5 52.5s32.166 21.5 53.499 21.5s39.333 -7.16699 54 -21.5s22 -31.833 22 -52.5c0 -20 -7.33301 -37.167 -22 -51.5s-32.667 -21.5 -54 -21.5z" />
    <glyph glyph-name="gdotaccent" unicode="&#x121;" horiz-adv-x="613" 
d="M296 121c37.333 0 68.5 12.666 93.5 37.999s37.5 63.666 37.5 114.999c0 52.667 -12.5 91.834 -37.5 117.501s-56.5 38.5 -94.5 38.5s-70 -13 -96 -39s-39 -65 -39 -117c0 -51.333 13 -89.666 39 -114.999s58.333 -38 97 -38zM264 -179.001
c-48 0 -88.665 3.8291 -121.998 11.4961s-59.333 16.834 -78 27.501l24 103c16.667 -9.33301 39.667 -18.666 69 -27.999s65 -14 107 -14c57.333 0 98.666 11.167 123.999 33.5s38 56.5 38 102.5v60c-16 -28.667 -37.333 -51.5 -64 -68.5s-59.334 -25.5 -98.001 -25.5
c-30 0 -58.833 5.16699 -86.5 15.5s-52 26 -73 47s-37.667 47.167 -50 78.5s-18.5 68 -18.5 110c0 42.667 6.16699 79.834 18.5 111.501s29 58.167 50 79.5s45.5 37.333 73.5 48s57.333 16 88 16c40 0 73.667 -8.5 101 -25.5s49 -40.5 65 -70.5v3
c0 12 0.833008 26.5 2.5 43.5s3.5 30.167 5.5 39.5h112c-1.33301 -9.33301 -2.5 -22.666 -3.5 -39.999s-1.5 -31.666 -1.5 -42.999v-374c0 -36.667 -5.33301 -69.834 -16 -99.501s-27.5 -55 -50.5 -76s-52.333 -37.167 -88 -48.5s-78.5 -17 -128.5 -17zM288.002 581.995
c-21.333 0 -39.166 7.16699 -53.499 21.5s-21.5 31.5 -21.5 51.5c0 20.667 7.16699 38 21.5 52s32.166 21 53.499 21s39.333 -7 54 -21s22 -31.333 22 -52c0 -20 -7.33301 -37.167 -22 -51.5s-32.667 -21.5 -54 -21.5z" />
    <glyph glyph-name="uni0122" unicode="&#x122;" horiz-adv-x="746" 
d="M703 279c0 -42 -6.3291 -80.6689 -18.9961 -116.002s-31.834 -65.833 -57.501 -91.5s-57.834 -45.667 -96.501 -60s-83.667 -21.5 -135 -21.5c-53.333 0 -101.833 8.66699 -145.5 26s-81 42 -112 74s-54.833 70.667 -71.5 116s-25 96 -25 152s8 106.667 24 152
s39.833 84 71.5 116s70.667 56.667 117 74s99.833 26 160.5 26c55.333 0 102.333 -5.83301 141 -17.5s70 -24.834 94 -39.501l-18 -113c-28 18.667 -59.833 33.834 -95.5 45.501s-74.834 17.5 -117.501 17.5s-79.334 -5.83301 -110.001 -17.5s-55.834 -28.667 -75.501 -51
s-34.167 -49.666 -43.5 -81.999s-14 -69.166 -14 -110.499c0 -82.667 18.833 -146.667 56.5 -192s92.5 -68 164.5 -68c62.667 0 108.334 15.333 137.001 46s43 71.667 43 123v9h-206v108h333v-105v0zM314.004 -233.002c22.667 18.667 40.666 41.333 53.999 68
c-13.333 2.66699 -24.166 9 -32.499 19s-12.5 22.333 -12.5 37c0 16.667 5.5 30.667 16.5 42s25.833 17 44.5 17s34.5 -5.66699 47.5 -17s19.5 -28.333 19.5 -51c0 -24.667 -6.5 -46.5 -19.5 -65.5s-26.833 -35.5 -41.5 -49.5h-76z" />
    <glyph glyph-name="uni0123" unicode="&#x123;" horiz-adv-x="613" 
d="M296 121c37.333 0 68.5 12.666 93.5 37.999s37.5 63.666 37.5 114.999c0 52.667 -12.5 91.834 -37.5 117.501s-56.5 38.5 -94.5 38.5s-70 -13 -96 -39s-39 -65 -39 -117c0 -51.333 13 -89.666 39 -114.999s58.333 -38 97 -38zM264 -179.001
c-48 0 -88.665 3.8291 -121.998 11.4961s-59.333 16.834 -78 27.501l24 103c16.667 -9.33301 39.667 -18.666 69 -27.999s65 -14 107 -14c57.333 0 98.666 11.167 123.999 33.5s38 56.5 38 102.5v60c-16 -28.667 -37.333 -51.5 -64 -68.5s-59.334 -25.5 -98.001 -25.5
c-30 0 -58.833 5.16699 -86.5 15.5s-52 26 -73 47s-37.667 47.167 -50 78.5s-18.5 68 -18.5 110c0 42.667 6.16699 79.834 18.5 111.501s29 58.167 50 79.5s45.5 37.333 73.5 48s57.333 16 88 16c40 0 73.667 -8.5 101 -25.5s49 -40.5 65 -70.5v3
c0 12 0.833008 26.5 2.5 43.5s3.5 30.167 5.5 39.5h112c-1.33301 -9.33301 -2.5 -22.666 -3.5 -39.999s-1.5 -31.666 -1.5 -42.999v-374c0 -36.667 -5.33301 -69.834 -16 -99.501s-27.5 -55 -50.5 -76s-52.333 -37.167 -88 -48.5s-78.5 -17 -128.5 -17zM291.002 583.995
c-18.667 0 -34.667 5.66602 -48 16.999s-20 28 -20 50c0 25.333 6.66699 47.5 20 66.5s27.333 35.5 42 49.5h75c-22.667 -19.333 -40.667 -41.666 -54 -66.999c13.333 -3.33301 24.333 -10 33 -20s13 -22.333 13 -37c0 -16.667 -5.66699 -30.667 -17 -42s-26 -17 -44 -17z
" />
    <glyph glyph-name="Hcircumflex" unicode="&#x124;" horiz-adv-x="739" 
d="M534 303h-329v-303h-127v716h127v-306h329v306h127v-716h-127v303zM370 849l-75 -78h-97l107 148h129l107 -148h-97z" />
    <glyph glyph-name="hcircumflex" unicode="&#x125;" horiz-adv-x="593" 
d="M322 430c-32 0 -59 -6.83301 -81 -20.5s-39.667 -31.167 -53 -52.5v-357h-121v716h121v-189l-1 -91h1c14.667 26 36 48 64 66s63.667 27 107 27c50 0 91.167 -13.667 123.5 -41s48.5 -69 48.5 -125v-363h-121v351c0 29.333 -7.66699 49.833 -23 61.5s-37 17.5 -65 17.5z
M310 849l-75 -78h-97l107 148h129l107 -148h-97z" />
    <glyph glyph-name="Hbar" unicode="&#x126;" horiz-adv-x="755" 
d="M542 303h-329v-303h-127v504h-92v92h92v120h127v-120h329v120h127v-120h92v-92h-92v-504h-127v303zM542 410v94h-329v-94h329z" />
    <glyph glyph-name="hbar" unicode="&#x127;" horiz-adv-x="598" 
d="M327 430c-32 0 -59 -6.83301 -81 -20.5s-39.667 -31.167 -53 -52.5v-357h-121v569h-72v82h72v65h121v-65h151v-82h-151v-42l-1 -91h1c14.667 26 36 48 64 66s63.667 27 107 27c50 0 91.167 -13.667 123.5 -41s48.5 -69 48.5 -125v-363h-121v351
c0 29.333 -7.66699 49.833 -23 61.5s-37 17.5 -65 17.5z" />
    <glyph glyph-name="Itilde" unicode="&#x128;" horiz-adv-x="282" 
d="M205 716v-716h-127v716h127zM-42 775c-2.66699 20 -2.33496 38.999 0.998047 56.999s9.5 33.833 18.5 47.5s20.833 24.5 35.5 32.5s32 12 52 12c17.333 0 32.5 -2.5 45.5 -7.5s25 -10.5 36 -16.5l30.5 -16.5c9.33301 -5 19 -7.5 29 -7.5c14 0 24.167 4.16699 30.5 12.5
s9.5 22.166 9.5 41.499h75c2.66699 -20 2.33398 -39.167 -0.999023 -57.5s-9.5 -34.166 -18.5 -47.499s-20.833 -24 -35.5 -32s-32 -12 -52 -12c-17.333 0 -32.5 2.5 -45.5 7.5s-25 10.5 -36 16.5l-31 16.5c-9.66699 5 -19.5 7.5 -29.5 7.5
c-13.333 0 -23.166 -4.16699 -29.499 -12.5s-9.5 -22.166 -9.5 -41.499h-75v0z" />
    <glyph glyph-name="itilde" unicode="&#x129;" horiz-adv-x="255" 
d="M189 519v-519h-122v519h122zM-45 590c-1.33301 16.667 -0.333008 33.332 3 49.999s9.5 31.5 18.5 44.5s20.5 23.5 34.5 31.5s30.667 12 50 12c16 0 29.833 -2.33301 41.5 -7s22.5 -9.83398 32.5 -15.501l28.5 -15.5c9 -4.66699 18.5 -7 28.5 -7c23.333 0 35 17 35 51h69
c1.33301 -17.333 0.333008 -34.166 -3 -50.499s-9.5 -31 -18.5 -44s-20.5 -23.5 -34.5 -31.5s-30.667 -12 -50 -12c-16 0 -30 2.33301 -42 7s-23 9.83398 -33 15.501l-28.5 15.5c-9 4.66699 -18.5 7 -28.5 7c-10.667 0 -19 -4 -25 -12s-9 -21 -9 -39h-69v0z" />
    <glyph glyph-name="Imacron" unicode="&#x12a;" horiz-adv-x="282" 
d="M205 716v-716h-127v716h127zM-19 890h319v-90h-319v90z" />
    <glyph glyph-name="imacron" unicode="&#x12b;" horiz-adv-x="255" 
d="M2 692h251v-88h-251v88zM189 519v-519h-122v519h122z" />
    <glyph glyph-name="Ibreve" unicode="&#x12c;" horiz-adv-x="282" 
d="M205 716v-716h-127v716h127zM142 766c-28 0 -52.5 4.16699 -73.5 12.5s-38.333 19.5 -52 33.5s-24 30.333 -31 49s-10.5 38.334 -10.5 59.001h96c0.666992 -20.667 7 -36.834 19 -48.501s29.333 -17.5 52 -17.5s39.834 5.83301 51.501 17.5s18.167 27.834 19.5 48.501h96
c-0.666992 -20.667 -4.5 -40.334 -11.5 -59.001s-17.333 -35 -31 -49s-30.834 -25.167 -51.501 -33.5s-45 -12.5 -73 -12.5z" />
    <glyph glyph-name="ibreve" unicode="&#x12d;" horiz-adv-x="255" 
d="M189 519v-519h-122v519h122zM127 584c-26 0 -48.666 3.99902 -67.999 11.999s-35.333 18.833 -48 32.5s-22.167 29.5 -28.5 47.5s-9.83301 37 -10.5 57h93c0.666992 -21.333 6.5 -37.166 17.5 -47.499s25.833 -15.5 44.5 -15.5c39.333 0 59.666 21 60.999 63h94
c0 -20 -3.16699 -39 -9.5 -57s-16 -33.833 -29 -47.5s-29.167 -24.5 -48.5 -32.5s-42 -12 -68 -12z" />
    <glyph glyph-name="Iogonek" unicode="&#x12e;" horiz-adv-x="282" 
d="M142 -78c0 -9.33301 2.99902 -16.999 8.99902 -22.999s15.333 -9 28 -9c7.33301 0 13.833 0.666992 19.5 2s11.167 3 16.5 5l13 -70c-6 -3.33301 -15.167 -6.5 -27.5 -9.5s-26.5 -4.5 -42.5 -4.5c-40.667 0 -71.5 8 -92.5 24s-31.5 36.667 -31.5 62
c0 13.333 2.33301 25.166 7 35.499s10.834 19.5 18.501 27.5s16.167 14.833 25.5 20.5s18.666 10.5 27.999 14.5h-35v719h127v-715c-15.333 -10 -29.666 -21.833 -42.999 -35.5s-20 -28.167 -20 -43.5z" />
    <glyph glyph-name="iogonek" unicode="&#x12f;" horiz-adv-x="255" 
d="M128 582c-21.333 0 -39.333 7.16699 -54 21.5s-22 31.5 -22 51.5c0 20.667 7.33301 38.167 22 52.5s32.667 21.5 54 21.5s39.166 -7.16699 53.499 -21.5s21.5 -31.833 21.5 -52.5c0 -20 -7.16699 -37.167 -21.5 -51.5s-32.166 -21.5 -53.499 -21.5zM144 -187
c-41.333 0 -72.501 8 -93.501 24s-31.5 36.667 -31.5 62c0 14 2.5 26.167 7.5 36.5s11.333 19.5 19 27.5s16.334 14.833 26.001 20.5s19.167 10.5 28.5 14.5h-33v521h122v-519c-14.667 -8.66699 -28.5 -20 -41.5 -34s-19.5 -28.667 -19.5 -44
c0 -9.33301 2.83301 -17 8.5 -23s15.167 -9 28.5 -9c7.33301 0 13.833 0.666992 19.5 2s11.167 3 16.5 5l13 -70c-6 -3.33301 -15.167 -6.5 -27.5 -9.5s-26.5 -4.5 -42.5 -4.5z" />
    <glyph glyph-name="Idotaccent" unicode="&#x130;" horiz-adv-x="282" 
d="M205 716v-716h-127v716h127zM142 779c-21.333 0 -39.166 7.16699 -53.499 21.5s-21.5 31.5 -21.5 51.5c0 20.667 7.16699 38.167 21.5 52.5s32.166 21.5 53.499 21.5s39.333 -7.16699 54 -21.5s22 -31.833 22 -52.5c0 -20 -7.33301 -37.167 -22 -51.5
s-32.667 -21.5 -54 -21.5z" />
    <glyph glyph-name="dotlessi" unicode="&#x131;" horiz-adv-x="255" 
d="M189 519v-519h-122v519h122z" />
    <glyph glyph-name="IJ" unicode="&#x132;" horiz-adv-x="644" 
d="M205 716v-716h-127v716h127zM573 716l-0.00292969 -563.001c0 -22 -3.66699 -42.833 -11 -62.5s-18.666 -37 -33.999 -52s-34.666 -26.833 -57.999 -35.5s-51.333 -13 -84 -13c-18.667 0 -37.667 1.5 -57 4.5s-37.666 8.16699 -54.999 15.5v105
c15.333 -6 29.5 -10.333 42.5 -13s26.833 -4 41.5 -4c34.667 0 58.167 7.83301 70.5 23.5s18.5 37.834 18.5 66.501v528h126z" />
    <glyph glyph-name="ij" unicode="&#x133;" horiz-adv-x="496" 
d="M128 582c-21.333 0 -39.333 7.16699 -54 21.5s-22 31.5 -22 51.5c0 20.667 7.33301 38.167 22 52.5s32.667 21.5 54 21.5s39.166 -7.16699 53.499 -21.5s21.5 -31.833 21.5 -52.5c0 -20 -7.16699 -37.167 -21.5 -51.5s-32.166 -21.5 -53.499 -21.5zM189 519v-519h-122
v519h122zM370 582c-21.333 0 -39.333 7.16699 -54 21.5s-22 31.5 -22 51.5c0 20.667 7.33301 38.167 22 52.5s32.667 21.5 54 21.5s39.333 -7.16699 54 -21.5s22 -31.833 22 -52.5c0 -20 -7.33301 -37.167 -22 -51.5s-32.667 -21.5 -54 -21.5zM211 -87
c38 2.66699 64 14.332 78 34.999s21 46.334 21 77.001v494h121v-501c0 -62 -17.167 -110.833 -51.5 -146.5s-84.833 -55.167 -151.5 -58.5z" />
    <glyph glyph-name="Jcircumflex" unicode="&#x134;" horiz-adv-x="396" 
d="M325 716l-0.00195312 -551.002c0 -25.333 -3.66699 -48.666 -11 -69.999s-18.666 -39.666 -33.999 -54.999s-35 -27.5 -59 -36.5s-52.667 -13.5 -86 -13.5c-20 0 -39.833 1.66699 -59.5 5s-37.167 8.33301 -52.5 15l20 105c6.66699 -3.33301 16.834 -7 30.501 -11
s29.167 -6 46.5 -6c28 0 48.167 7.5 60.5 22.5s18.5 37.5 18.5 67.5v528h126zM259.998 848.998l-75 -78h-97l107 148h129l107 -148h-97z" />
    <glyph glyph-name="jcircumflex" unicode="&#x135;" horiz-adv-x="261" 
d="M-23 -87c38 2.66699 64 14.332 78 34.999s21 46.334 21 77.001v494h121v-501c0 -62 -17.167 -110.833 -51.5 -146.5s-84.833 -55.167 -151.5 -58.5zM133 663.998l-70 -76h-97l102 148h129l102 -148h-97z" />
    <glyph glyph-name="uni0136" unicode="&#x136;" horiz-adv-x="651" 
d="M257 301h-52v-301h-127v716h127v-307h56l228 307h135l-262 -352l272 -364h-150zM265 -233c22.667 18.667 40.666 41.333 53.999 68c-13.333 2.66699 -24.166 9 -32.499 19s-12.5 22.333 -12.5 37c0 16.667 5.5 30.667 16.5 42s25.833 17 44.5 17s34.5 -5.66699 47.5 -17
s19.5 -28.333 19.5 -51c0 -24.667 -6.5 -46.5 -19.5 -65.5s-26.833 -35.5 -41.5 -49.5h-76z" />
    <glyph glyph-name="uni0137" unicode="&#x137;" horiz-adv-x="543" 
d="M234 209h-46v-209h-121v716h121v-410h48l162 213h126l-193 -250l203 -269h-142zM211 -233c22.667 18.667 40.666 41.333 53.999 68c-13.333 2.66699 -24.166 9 -32.499 19s-12.5 22.333 -12.5 37c0 16.667 5.5 30.667 16.5 42s25.833 17 44.5 17s34.5 -5.66699 47.5 -17
s19.5 -28.333 19.5 -51c0 -24.667 -6.5 -46.5 -19.5 -65.5s-26.833 -35.5 -41.5 -49.5h-76z" />
    <glyph glyph-name="Lacute" unicode="&#x139;" horiz-adv-x="549" 
d="M78 716h127v-608h303v-108h-430v716zM163 912h155l-128 -136h-105z" />
    <glyph glyph-name="lacute" unicode="&#x13a;" horiz-adv-x="255" 
d="M188 716v-716h-121v716h121zM144 912h155l-128 -136h-105z" />
    <glyph glyph-name="uni013B" unicode="&#x13b;" horiz-adv-x="549" 
d="M78 716h127v-608h303v-108h-430v716zM233 -233c22.667 18.667 40.666 41.333 53.999 68c-13.333 2.66699 -24.166 9 -32.499 19s-12.5 22.333 -12.5 37c0 16.667 5.5 30.667 16.5 42s25.833 17 44.5 17s34.5 -5.66699 47.5 -17s19.5 -28.333 19.5 -51
c0 -24.667 -6.5 -46.5 -19.5 -65.5s-26.833 -35.5 -41.5 -49.5h-76z" />
    <glyph glyph-name="uni013C" unicode="&#x13c;" horiz-adv-x="255" 
d="M188 716v-716h-121v716h121zM50 -233c22.667 18.667 40.666 41.333 53.999 68c-13.333 2.66699 -24.166 9 -32.499 19s-12.5 22.333 -12.5 37c0 16.667 5.5 30.667 16.5 42s25.833 17 44.5 17s34.5 -5.66699 47.5 -17s19.5 -28.333 19.5 -51
c0 -24.667 -6.5 -46.5 -19.5 -65.5s-26.833 -35.5 -41.5 -49.5h-76z" />
    <glyph glyph-name="Lcaron" unicode="&#x13d;" horiz-adv-x="549" 
d="M78 716h127v-608h303v-108h-430v716zM280 557l19 159h119l-59 -159h-79z" />
    <glyph glyph-name="lcaron" unicode="&#x13e;" horiz-adv-x="255" 
d="M236 557l19 159h119l-59 -159h-79zM188 716v-716h-121v716h121z" />
    <glyph glyph-name="Ldot" unicode="&#x13f;" horiz-adv-x="557" 
d="M78 716h127v-608h303v-108h-430v716zM452 312c-23.333 0 -43 8 -59 24s-24 35 -24 57c0 22.667 8 41.834 24 57.501s35.667 23.5 59 23.5s42.833 -7.83301 58.5 -23.5s23.5 -34.834 23.5 -57.501c0 -22 -7.83301 -41 -23.5 -57s-35.167 -24 -58.5 -24z" />
    <glyph glyph-name="ldot" unicode="&#x140;" horiz-adv-x="423" 
d="M188 716v-716h-121v716h121zM339.672 274.175c-22.749 0 -41.9238 7.7998 -57.5234 23.3994s-23.3994 34.124 -23.3994 55.5742c0 22.0986 7.7998 40.7852 23.3994 56.0596s34.7744 22.9121 57.5234 22.9121s41.7607 -7.6377 57.0352 -22.9121
s22.9121 -33.9609 22.9121 -56.0596c0 -21.4502 -7.6377 -39.9746 -22.9121 -55.5742s-34.2861 -23.3994 -57.0352 -23.3994z" />
    <glyph glyph-name="Lslash" unicode="&#x141;" horiz-adv-x="572" 
d="M13 293l78 40v383h127v-317l229 120v-110l-229 -120v-181h303v-108h-430v223l-78 -40v110z" />
    <glyph glyph-name="lslash" unicode="&#x142;" horiz-adv-x="313" 
d="M19 312l78 61v343h121v-247l80 63v-104l-80 -63v-365h-121v269l-78 -61v104z" />
    <glyph glyph-name="Nacute" unicode="&#x143;" horiz-adv-x="746" 
d="M192 562v-562h-114v716h164l312 -558v558h115v-716h-163zM414 912h155l-128 -136h-105z" />
    <glyph glyph-name="nacute" unicode="&#x144;" horiz-adv-x="593" 
d="M322 430c-32 0 -58.999 -6.83398 -80.999 -20.501s-39.667 -31.167 -53 -52.5v-357h-121v519h114l5 -83h2c14 26.667 35.167 48.834 63.5 66.501s64.166 26.5 107.499 26.5c50 0 91.167 -13.667 123.5 -41s48.5 -69 48.5 -125v-363h-121v351
c0 29.333 -7.66699 49.833 -23 61.5s-37 17.5 -65 17.5zM321.001 745.999h134l-119 -158h-93z" />
    <glyph glyph-name="uni0145" unicode="&#x145;" horiz-adv-x="746" 
d="M192 562v-562h-114v716h164l312 -558v558h115v-716h-163zM288 -233c22.667 18.667 40.666 41.333 53.999 68c-13.333 2.66699 -24.166 9 -32.499 19s-12.5 22.333 -12.5 37c0 16.667 5.5 30.667 16.5 42s25.833 17 44.5 17s34.5 -5.66699 47.5 -17s19.5 -28.333 19.5 -51
c0 -24.667 -6.5 -46.5 -19.5 -65.5s-26.833 -35.5 -41.5 -49.5h-76z" />
    <glyph glyph-name="uni0146" unicode="&#x146;" horiz-adv-x="593" 
d="M322 430c-32 0 -58.999 -6.83398 -80.999 -20.501s-39.667 -31.167 -53 -52.5v-357h-121v519h114l5 -83h2c14 26.667 35.167 48.834 63.5 66.501s64.166 26.5 107.499 26.5c50 0 91.167 -13.667 123.5 -41s48.5 -69 48.5 -125v-363h-121v351
c0 29.333 -7.66699 49.833 -23 61.5s-37 17.5 -65 17.5zM223.001 -233.001c22.667 18.667 40.666 41.333 53.999 68c-13.333 2.66699 -24.166 9 -32.499 19s-12.5 22.333 -12.5 37c0 16.667 5.5 30.667 16.5 42s25.833 17 44.5 17s34.5 -5.66699 47.5 -17
s19.5 -28.333 19.5 -51c0 -24.667 -6.5 -46.5 -19.5 -65.5s-26.833 -35.5 -41.5 -49.5h-76z" />
    <glyph glyph-name="Ncaron" unicode="&#x147;" horiz-adv-x="746" 
d="M192 562v-562h-114v716h164l312 -558v558h115v-716h-163zM332 771l-107 148h97l74 -78l75 78h97l-108 -148h-128z" />
    <glyph glyph-name="ncaron" unicode="&#x148;" horiz-adv-x="593" 
d="M322 430c-32 0 -58.999 -6.83398 -80.999 -20.501s-39.667 -31.167 -53 -52.5v-357h-121v519h114l5 -83h2c14 26.667 35.167 48.834 63.5 66.501s64.166 26.5 107.499 26.5c50 0 91.167 -13.667 123.5 -41s48.5 -69 48.5 -125v-363h-121v351
c0 29.333 -7.66699 49.833 -23 61.5s-37 17.5 -65 17.5zM133.001 735.999h97l70 -76l69 76h97l-102 -148h-129z" />
    <glyph glyph-name="Eng" unicode="&#x14a;" horiz-adv-x="746" 
d="M485 -200c-19.333 0 -38.5 1.83301 -57.5 5.5s-36.167 8.5 -51.5 14.5l24 101c24.667 -10 50.667 -15 78 -15c26.667 0 46 7.83301 58 23.5s18 38.5 18 68.5v2h-48l-314 562v-562h-114v716h164l312 -558v558h115v-719c0 -60.667 -14.833 -108.667 -44.5 -144
s-76.167 -53 -139.5 -53z" />
    <glyph glyph-name="eng" unicode="&#x14b;" horiz-adv-x="588" 
d="M531 18c0 -62 -16.999 -110.835 -50.999 -146.502s-84.333 -55.167 -151 -58.5l-17 100c37.333 2.66699 63 14.334 77 35.001s21 46.334 21 77.001v326c0 29.333 -7.66699 49.833 -23 61.5s-37 17.5 -65 17.5c-32 0 -59 -6.83301 -81 -20.5s-39.667 -31.167 -53 -52.5
v-357h-121v519h114l5 -83h2c14 26 35.167 48 63.5 66s64.166 27 107.499 27c50 0 91.167 -13.667 123.5 -41s48.5 -69 48.5 -125v-345v0z" />
    <glyph glyph-name="Omacron" unicode="&#x14c;" horiz-adv-x="779" 
d="M389 -10c-48.667 0 -94.167 7.99902 -136.5 23.999s-79.166 39.5 -110.499 70.5s-56 69.333 -74 115s-27 98.5 -27 158.5s9 112.833 27 158.5s42.667 84 74 115s68.166 54.5 110.499 70.5s87.833 24 136.5 24c49.333 0 95.166 -7.83301 137.499 -23.5
s79.166 -38.667 110.499 -69s56 -68.333 74 -114s27 -98.5 27 -158.5s-9 -113 -27 -159s-42.667 -84.667 -74 -116s-68.166 -55.166 -110.499 -71.499s-88.166 -24.5 -137.499 -24.5zM389 97.999c30.667 0 59.334 4.66699 86.001 14s49.5 24.333 68.5 45s34 47.5 45 80.5
s16.5 73.167 16.5 120.5s-5.5 87.666 -16.5 120.999s-26 60.333 -45 81s-41.833 35.667 -68.5 45s-55.334 14 -86.001 14s-59 -4.66699 -85 -14s-48.667 -24.333 -68 -45s-34.5 -47.667 -45.5 -81s-16.5 -73.666 -16.5 -120.999s5.5 -87.5 16.5 -120.5
s26.167 -59.833 45.5 -80.5s42 -35.667 68 -45s54.333 -14 85 -14zM232 889.999h319v-90h-319v90z" />
    <glyph glyph-name="omacron" unicode="&#x14d;" horiz-adv-x="588" 
d="M293 -10c-36.667 0 -70.667 6 -102 18s-58.5 29.5 -81.5 52.5s-41.167 51.167 -54.5 84.5s-20 71.666 -20 114.999s6.66699 81.666 20 114.999s31.5 61.5 54.5 84.5s50.167 40.333 81.5 52s65.333 17.5 102 17.5s71 -5.83301 103 -17.5s59.667 -29 83 -52
s41.666 -51.167 54.999 -84.5s20 -71.666 20 -114.999s-6.66699 -81.666 -20 -114.999s-31.666 -61.5 -54.999 -84.5s-51 -40.5 -83 -52.5s-66.333 -18 -103 -18zM293 89c39.333 0 71.833 13.833 97.5 41.5s38.5 70.834 38.5 129.501c0 28.667 -3.5 53.667 -10.5 75
s-16.5 39 -28.5 53s-26.333 24.5 -43 31.5s-34.667 10.5 -54 10.5c-38 0 -69.667 -13.833 -95 -41.5s-38 -70.5 -38 -128.5c0 -58.667 12.667 -101.834 38 -129.501s57 -41.5 95 -41.5zM141 692h303v-88h-303v88z" />
    <glyph glyph-name="Obreve" unicode="&#x14e;" horiz-adv-x="779" 
d="M389 -10c-48.667 0 -94.167 7.99902 -136.5 23.999s-79.166 39.5 -110.499 70.5s-56 69.333 -74 115s-27 98.5 -27 158.5s9 112.833 27 158.5s42.667 84 74 115s68.166 54.5 110.499 70.5s87.833 24 136.5 24c49.333 0 95.166 -7.83301 137.499 -23.5
s79.166 -38.667 110.499 -69s56 -68.333 74 -114s27 -98.5 27 -158.5s-9 -113 -27 -159s-42.667 -84.667 -74 -116s-68.166 -55.166 -110.499 -71.499s-88.166 -24.5 -137.499 -24.5zM389 97.999c30.667 0 59.334 4.66699 86.001 14s49.5 24.333 68.5 45s34 47.5 45 80.5
s16.5 73.167 16.5 120.5s-5.5 87.666 -16.5 120.999s-26 60.333 -45 81s-41.833 35.667 -68.5 45s-55.334 14 -86.001 14s-59 -4.66699 -85 -14s-48.667 -24.333 -68 -45s-34.5 -47.667 -45.5 -81s-16.5 -73.666 -16.5 -120.999s5.5 -87.5 16.5 -120.5
s26.167 -59.833 45.5 -80.5s42 -35.667 68 -45s54.333 -14 85 -14zM390 765.999c-28 0 -52.5 4.16699 -73.5 12.5s-38.333 19.5 -52 33.5s-24 30.333 -31 49s-10.5 38.334 -10.5 59.001h96c0.666992 -20.667 7 -36.834 19 -48.501s29.333 -17.5 52 -17.5
s39.834 5.83301 51.501 17.5s18.167 27.834 19.5 48.501h96c-0.666992 -20.667 -4.5 -40.334 -11.5 -59.001s-17.333 -35 -31 -49s-30.834 -25.167 -51.501 -33.5s-45 -12.5 -73 -12.5z" />
    <glyph glyph-name="obreve" unicode="&#x14f;" horiz-adv-x="588" 
d="M293 -10c-36.667 0 -70.667 6 -102 18s-58.5 29.5 -81.5 52.5s-41.167 51.167 -54.5 84.5s-20 71.666 -20 114.999s6.66699 81.666 20 114.999s31.5 61.5 54.5 84.5s50.167 40.333 81.5 52s65.333 17.5 102 17.5s71 -5.83301 103 -17.5s59.667 -29 83 -52
s41.666 -51.167 54.999 -84.5s20 -71.666 20 -114.999s-6.66699 -81.666 -20 -114.999s-31.666 -61.5 -54.999 -84.5s-51 -40.5 -83 -52.5s-66.333 -18 -103 -18zM293 89c39.333 0 71.833 13.833 97.5 41.5s38.5 70.834 38.5 129.501c0 28.667 -3.5 53.667 -10.5 75
s-16.5 39 -28.5 53s-26.333 24.5 -43 31.5s-34.667 10.5 -54 10.5c-38 0 -69.667 -13.833 -95 -41.5s-38 -70.5 -38 -128.5c0 -58.667 12.667 -101.834 38 -129.501s57 -41.5 95 -41.5zM293 584c-26 0 -48.666 3.99902 -67.999 11.999s-35.333 18.833 -48 32.5
s-22.167 29.5 -28.5 47.5s-9.83301 37 -10.5 57h93c0.666992 -21.333 6.5 -37.166 17.5 -47.499s25.833 -15.5 44.5 -15.5c39.333 0 59.666 21 60.999 63h94c0 -20 -3.16699 -39 -9.5 -57s-16 -33.833 -29 -47.5s-29.167 -24.5 -48.5 -32.5s-42 -12 -68 -12z" />
    <glyph glyph-name="Ohungarumlaut" unicode="&#x150;" horiz-adv-x="779" 
d="M389 -10c-48.667 0 -94.167 7.99902 -136.5 23.999s-79.166 39.5 -110.499 70.5s-56 69.333 -74 115s-27 98.5 -27 158.5s9 112.833 27 158.5s42.667 84 74 115s68.166 54.5 110.499 70.5s87.833 24 136.5 24c49.333 0 95.166 -7.83301 137.499 -23.5
s79.166 -38.667 110.499 -69s56 -68.333 74 -114s27 -98.5 27 -158.5s-9 -113 -27 -159s-42.667 -84.667 -74 -116s-68.166 -55.166 -110.499 -71.499s-88.166 -24.5 -137.499 -24.5zM389 97.999c30.667 0 59.334 4.66699 86.001 14s49.5 24.333 68.5 45s34 47.5 45 80.5
s16.5 73.167 16.5 120.5s-5.5 87.666 -16.5 120.999s-26 60.333 -45 81s-41.833 35.667 -68.5 45s-55.334 14 -86.001 14s-59 -4.66699 -85 -14s-48.667 -24.333 -68 -45s-34.5 -47.667 -45.5 -81s-16.5 -73.666 -16.5 -120.999s5.5 -87.5 16.5 -120.5
s26.167 -59.833 45.5 -80.5s42 -35.667 68 -45s54.333 -14 85 -14zM435 775.999l52 136h132l-92 -136h-92zM240 775.999l51 136h133l-92 -136h-92z" />
    <glyph glyph-name="ohungarumlaut" unicode="&#x151;" horiz-adv-x="588" 
d="M293 -10c-36.667 0 -70.667 6 -102 18s-58.5 29.5 -81.5 52.5s-41.167 51.167 -54.5 84.5s-20 71.666 -20 114.999s6.66699 81.666 20 114.999s31.5 61.5 54.5 84.5s50.167 40.333 81.5 52s65.333 17.5 102 17.5s71 -5.83301 103 -17.5s59.667 -29 83 -52
s41.666 -51.167 54.999 -84.5s20 -71.666 20 -114.999s-6.66699 -81.666 -20 -114.999s-31.666 -61.5 -54.999 -84.5s-51 -40.5 -83 -52.5s-66.333 -18 -103 -18zM293 89c39.333 0 71.833 13.833 97.5 41.5s38.5 70.834 38.5 129.501c0 28.667 -3.5 53.667 -10.5 75
s-16.5 39 -28.5 53s-26.333 24.5 -43 31.5s-34.667 10.5 -54 10.5c-38 0 -69.667 -13.833 -95 -41.5s-38 -70.5 -38 -128.5c0 -58.667 12.667 -101.834 38 -129.501s57 -41.5 95 -41.5zM339 588l59 158h118l-87 -158h-90zM160 588l59 158h118l-87 -158h-90z" />
    <glyph glyph-name="OE" unicode="&#x152;" horiz-adv-x="982" 
d="M476 108l-0.000976562 501h-62c-34.667 0 -66.667 -4 -96 -12s-54.666 -21.333 -75.999 -40s-38 -43.667 -50 -75s-18 -70.333 -18 -117c0 -46 6 -85.333 18 -118s29 -59.167 51 -79.5s48.333 -35.333 79 -45s64.667 -14.5 102 -14.5h52zM418.999 0
c-54.667 0 -105 7.66895 -151 23.002s-85.833 38.166 -119.5 68.499s-60 68.5 -79 114.5s-28.5 100 -28.5 162c0 64.667 9.66699 119.167 29 163.5s46 80.166 80 107.499s74 47 120 59s95.667 18 149 18h499v-107h-315v-184h268v-108h-268v-209h320v-108h-504z" />
    <glyph glyph-name="oe" unicode="&#x153;" horiz-adv-x="958" 
d="M688 433c-34 0 -62.167 -9.83301 -84.5 -29.5s-37.166 -49.167 -44.499 -88.5h237c1.33301 40 -7.83398 69.667 -27.501 89s-46.5 29 -80.5 29zM293 90c19.333 0 37.333 3.5 54 10.5s31 17.5 43 31.5s21.5 31.667 28.5 53s10.5 46.333 10.5 75s-3.5 53.667 -10.5 75
s-16.5 39 -28.5 53s-26.333 24.5 -43 31.5s-34.667 10.5 -54 10.5c-38 0 -69.667 -13.833 -95 -41.5s-38 -70.5 -38 -128.5s12.667 -100.833 38 -128.5s57 -41.5 95 -41.5zM908 41c-3.33301 -2.66699 -9.66797 -6.83008 -19.001 -12.4971s-21.833 -11.334 -37.5 -17.001
s-34.334 -10.667 -56.001 -15s-46.5 -6.5 -74.5 -6.5c-58 0 -105.833 9.16699 -143.5 27.5s-66.834 44.5 -87.501 78.5c-20.667 -34.667 -48.167 -61 -82.5 -79s-73.833 -27 -118.5 -27c-35.333 0 -68.5 6 -99.5 18s-58 29.5 -81 52.5s-41 51.167 -54 84.5
s-19.5 71.666 -19.5 114.999s6.5 81.666 19.5 114.999s31 61.5 54 84.5s50 40.333 81 52s64.167 17.5 99.5 17.5c44.667 0 84.334 -9 119.001 -27s62.334 -44.667 83.001 -80c20 34.667 47 61.167 81 79.5s74 27.5 120 27.5c38 0 72.167 -6.33301 102.5 -19
s55.5 -31.667 75.5 -57s34 -56.666 42 -93.999s8 -81 0 -131h-357c4.66699 -46 20.167 -80.5 46.5 -103.5s67.833 -34.5 124.5 -34.5c22 0 42.333 1.83301 61 5.5s35 8 49 13s25.833 10.167 35.5 15.5s16.834 9.66602 21.501 12.999z" />
    <glyph glyph-name="Racute" unicode="&#x154;" horiz-adv-x="649" 
d="M205 609v-223h103c47.333 0 84.333 8.5 111 25.5s40 47.5 40 91.5c0 38.667 -12.667 66 -38 82s-62 24 -110 24h-106zM302 282l-96.998 -0.000976562v-282h-127v716h233c91.333 0 160.166 -17 206.499 -51s69.5 -88.333 69.5 -163
c0 -59.333 -13.333 -105.166 -40 -137.499s-63.334 -54.833 -110.001 -67.5l182 -297h-145zM347.002 911.999h155l-128 -136h-105z" />
    <glyph glyph-name="racute" unicode="&#x155;" horiz-adv-x="390" 
d="M361 402c-38 1.33301 -72.167 -4.16797 -102.5 -16.501s-53.833 -31.166 -70.5 -56.499v-329h-121v519h112l7 -108h2c17.333 33.333 40.5 60.5 69.5 81.5s63.5 33.167 103.5 36.5v-127v0zM245 745.999h134l-119 -158h-93z" />
    <glyph glyph-name="uni0156" unicode="&#x156;" horiz-adv-x="649" 
d="M205 609v-223h103c47.333 0 84.333 8.5 111 25.5s40 47.5 40 91.5c0 38.667 -12.667 66 -38 82s-62 24 -110 24h-106zM302 282l-96.998 -0.000976562v-282h-127v716h233c91.333 0 160.166 -17 206.499 -51s69.5 -88.333 69.5 -163
c0 -59.333 -13.333 -105.166 -40 -137.499s-63.334 -54.833 -110.001 -67.5l182 -297h-145zM260.002 -233.001c22.667 18.667 40.666 41.333 53.999 68c-13.333 2.66699 -24.166 9 -32.499 19s-12.5 22.333 -12.5 37c0 16.667 5.5 30.667 16.5 42s25.833 17 44.5 17
s34.5 -5.66699 47.5 -17s19.5 -28.333 19.5 -51c0 -24.667 -6.5 -46.5 -19.5 -65.5s-26.833 -35.5 -41.5 -49.5h-76z" />
    <glyph glyph-name="uni0157" unicode="&#x157;" horiz-adv-x="390" 
d="M361 402c-38 1.33301 -72.167 -4.16797 -102.5 -16.501s-53.833 -31.166 -70.5 -56.499v-329h-121v519h112l7 -108h2c17.333 33.333 40.5 60.5 69.5 81.5s63.5 33.167 103.5 36.5v-127v0zM50 -233.001c22.667 18.667 40.666 41.333 53.999 68
c-13.333 2.66699 -24.166 9 -32.499 19s-12.5 22.333 -12.5 37c0 16.667 5.5 30.667 16.5 42s25.833 17 44.5 17s34.5 -5.66699 47.5 -17s19.5 -28.333 19.5 -51c0 -24.667 -6.5 -46.5 -19.5 -65.5s-26.833 -35.5 -41.5 -49.5h-76z" />
    <glyph glyph-name="Rcaron" unicode="&#x158;" horiz-adv-x="649" 
d="M205 609v-223h103c47.333 0 84.333 8.5 111 25.5s40 47.5 40 91.5c0 38.667 -12.667 66 -38 82s-62 24 -110 24h-106zM302 282l-96.998 -0.000976562v-282h-127v716h233c91.333 0 160.166 -17 206.499 -51s69.5 -88.333 69.5 -163
c0 -59.333 -13.333 -105.166 -40 -137.499s-63.334 -54.833 -110.001 -67.5l182 -297h-145zM264.002 770.999l-107 148h97l74 -78l75 78h97l-108 -148h-128z" />
    <glyph glyph-name="rcaron" unicode="&#x159;" horiz-adv-x="390" 
d="M361 402c-38 1.33301 -72.167 -4.16797 -102.5 -16.501s-53.833 -31.166 -70.5 -56.499v-329h-121v519h112l7 -108h2c17.333 33.333 40.5 60.5 69.5 81.5s63.5 33.167 103.5 36.5v-127v0zM52 735.999h97l70 -76l69 76h97l-102 -148h-129z" />
    <glyph glyph-name="Sacute" unicode="&#x15a;" horiz-adv-x="596" 
d="M277 -10c-56 0 -103.666 7.17188 -142.999 21.5049s-69.666 29.166 -90.999 44.499l18 110c10 -7.33301 22.5 -15 37.5 -23s31.833 -15.333 50.5 -22s38.667 -12.167 60 -16.5s43.333 -6.5 66 -6.5c46.667 0 84.334 7.5 113.001 22.5s43 39.833 43 74.5
c0 18 -3.66699 33 -11 45s-17.833 22 -31.5 30s-30.334 14.833 -50.001 20.5s-41.834 11.5 -66.501 17.5c-27.333 6.66699 -54.5 14.5 -81.5 23.5s-51.333 21.167 -73 36.5s-39.334 35.166 -53.001 59.499s-20.5 55.166 -20.5 92.499c0 66.667 24 117.667 72 153
s115.333 53 202 53c53.333 0 95.5 -5 126.5 -15s54.833 -19.667 71.5 -29l-17 -110c-23.333 14 -50 25.333 -80 34s-63.333 13 -100 13c-53.333 0 -92 -7.83301 -116 -23.5s-36 -38.167 -36 -67.5c0 -17.333 4.16699 -31.5 12.5 -42.5s19.333 -20.333 33 -28
s29.5 -14 47.5 -19s37 -9.83301 57 -14.5c28 -6.66699 56.333 -14.334 85 -23.001s54.5 -20.834 77.5 -36.501s41.833 -36 56.5 -61s22 -57.167 22 -96.5c0 -41.333 -7.83301 -76 -23.5 -104s-36.667 -50.333 -63 -67s-56.333 -28.5 -90 -35.5s-68.5 -10.5 -104.5 -10.5z
M319.001 912.005h155l-128 -136h-105z" />
    <glyph glyph-name="sacute" unicode="&#x15b;" horiz-adv-x="483" 
d="M240 -9c-50 0 -91.166 5.00488 -123.499 15.0049s-57.166 21 -74.499 33l24 94c17.333 -12.667 40.666 -23.834 69.999 -33.501s63.666 -14.5 102.999 -14.5c29.333 0 52.5 5.16699 69.5 15.5s25.5 26.5 25.5 48.5c0 13.333 -3.16699 23.666 -9.5 30.999
s-14.833 13.166 -25.5 17.499s-23.167 7.66602 -37.5 9.99902l-45.5 7.5c-20 3.33301 -40 8.16602 -60 14.499s-38 15.333 -54 27s-29 26.5 -39 44.5s-15 40.667 -15 68c0 50 17.833 89 53.5 117s86.5 42 152.5 42c39.333 0 73.333 -3.5 102 -10.5
s51.334 -15.167 68.001 -24.5l-26 -90c-16.667 9.33301 -36.167 17 -58.5 23s-49.5 9 -81.5 9c-34 0 -59 -4.5 -75 -13.5s-24 -23.833 -24 -44.5c0 -10.667 3 -19.167 9 -25.5s14 -11.5 24 -15.5s21.833 -7.33301 35.5 -10s28.5 -5.33398 44.5 -8.00098
c20 -4 40.5 -8.83301 61.5 -14.5s40 -14.167 57 -25.5s30.833 -26.5 41.5 -45.5s16 -43.833 16 -74.5c0 -31.333 -6.16699 -57.666 -18.5 -78.999s-28.333 -38.5 -48 -51.5s-41.834 -22.333 -66.501 -28s-49.667 -8.5 -75 -8.5zM265.001 746.005h134l-119 -158h-93z" />
    <glyph glyph-name="Scircumflex" unicode="&#x15c;" horiz-adv-x="596" 
d="M277 -10c-56 0 -103.666 7.17188 -142.999 21.5049s-69.666 29.166 -90.999 44.499l18 110c10 -7.33301 22.5 -15 37.5 -23s31.833 -15.333 50.5 -22s38.667 -12.167 60 -16.5s43.333 -6.5 66 -6.5c46.667 0 84.334 7.5 113.001 22.5s43 39.833 43 74.5
c0 18 -3.66699 33 -11 45s-17.833 22 -31.5 30s-30.334 14.833 -50.001 20.5s-41.834 11.5 -66.501 17.5c-27.333 6.66699 -54.5 14.5 -81.5 23.5s-51.333 21.167 -73 36.5s-39.334 35.166 -53.001 59.499s-20.5 55.166 -20.5 92.499c0 66.667 24 117.667 72 153
s115.333 53 202 53c53.333 0 95.5 -5 126.5 -15s54.833 -19.667 71.5 -29l-17 -110c-23.333 14 -50 25.333 -80 34s-63.333 13 -100 13c-53.333 0 -92 -7.83301 -116 -23.5s-36 -38.167 -36 -67.5c0 -17.333 4.16699 -31.5 12.5 -42.5s19.333 -20.333 33 -28
s29.5 -14 47.5 -19s37 -9.83301 57 -14.5c28 -6.66699 56.333 -14.334 85 -23.001s54.5 -20.834 77.5 -36.501s41.833 -36 56.5 -61s22 -57.167 22 -96.5c0 -41.333 -7.83301 -76 -23.5 -104s-36.667 -50.333 -63 -67s-56.333 -28.5 -90 -35.5s-68.5 -10.5 -104.5 -10.5z
M303.001 849.005l-75 -78h-97l107 148h129l107 -148h-97z" />
    <glyph glyph-name="scircumflex" unicode="&#x15d;" horiz-adv-x="483" 
d="M240 -9c-50 0 -91.166 5.00488 -123.499 15.0049s-57.166 21 -74.499 33l24 94c17.333 -12.667 40.666 -23.834 69.999 -33.501s63.666 -14.5 102.999 -14.5c29.333 0 52.5 5.16699 69.5 15.5s25.5 26.5 25.5 48.5c0 13.333 -3.16699 23.666 -9.5 30.999
s-14.833 13.166 -25.5 17.499s-23.167 7.66602 -37.5 9.99902l-45.5 7.5c-20 3.33301 -40 8.16602 -60 14.499s-38 15.333 -54 27s-29 26.5 -39 44.5s-15 40.667 -15 68c0 50 17.833 89 53.5 117s86.5 42 152.5 42c39.333 0 73.333 -3.5 102 -10.5
s51.334 -15.167 68.001 -24.5l-26 -90c-16.667 9.33301 -36.167 17 -58.5 23s-49.5 9 -81.5 9c-34 0 -59 -4.5 -75 -13.5s-24 -23.833 -24 -44.5c0 -10.667 3 -19.167 9 -25.5s14 -11.5 24 -15.5s21.833 -7.33301 35.5 -10s28.5 -5.33398 44.5 -8.00098
c20 -4 40.5 -8.83301 61.5 -14.5s40 -14.167 57 -25.5s30.833 -26.5 41.5 -45.5s16 -43.833 16 -74.5c0 -31.333 -6.16699 -57.666 -18.5 -78.999s-28.333 -38.5 -48 -51.5s-41.834 -22.333 -66.501 -28s-49.667 -8.5 -75 -8.5zM243.001 664.005l-70 -76h-97l102 148h129
l102 -148h-97z" />
    <glyph glyph-name="uni015E" unicode="&#x15e;" horiz-adv-x="596" 
d="M134 11c-39.333 14.667 -69.666 29.6709 -90.999 45.0039l18 110c10 -7.33301 22.5 -15 37.5 -23s31.833 -15.333 50.5 -22s38.667 -12.167 60 -16.5s43.333 -6.5 66 -6.5c46.667 0 84.334 7.5 113.001 22.5s43 39.833 43 74.5c0 18 -3.66699 33 -11 45
s-17.833 22 -31.5 30s-30.334 14.833 -50.001 20.5s-41.834 11.5 -66.501 17.5c-27.333 6.66699 -54.5 14.5 -81.5 23.5s-51.333 21.167 -73 36.5s-39.334 35.166 -53.001 59.499s-20.5 55.166 -20.5 92.499c0 66.667 24 117.667 72 153s115.333 53 202 53
c53.333 0 95.5 -5 126.5 -15s54.833 -19.667 71.5 -29l-17 -110c-23.333 14 -50 25.333 -80 34s-63.333 13 -100 13c-53.333 0 -92 -7.83301 -116 -23.5s-36 -38.167 -36 -67.5c0 -17.333 4.16699 -31.5 12.5 -42.5s19.333 -20.333 33 -28s29.5 -14 47.5 -19
s37 -9.83301 57 -14.5c28 -6.66699 56.333 -14.334 85 -23.001s54.5 -20.834 77.5 -36.501s41.833 -36 56.5 -61s22 -57.167 22 -96.5c0 -41.333 -7.83301 -76 -23.5 -104s-36.667 -50.333 -63 -67s-56.5 -28.667 -90.5 -36c-11.333 -2 -22.666 -3.66699 -33.999 -5
l-50 -177h-127l75 173c-42.667 2 -79.667 8.66699 -111 20z" />
    <glyph glyph-name="uni015F" unicode="&#x15f;" horiz-adv-x="483" 
d="M116 6c-32 10 -56.665 21.0049 -73.998 33.0049l24 94c17.333 -12.667 40.666 -23.834 69.999 -33.501s63.666 -14.5 102.999 -14.5c29.333 0 52.5 5.16699 69.5 15.5s25.5 26.5 25.5 48.5c0 13.333 -3.16699 23.666 -9.5 30.999s-14.833 13.166 -25.5 17.499
s-23.167 7.66602 -37.5 9.99902l-45.5 7.5c-20 3.33301 -40 8.16602 -60 14.499s-38 15.333 -54 27s-29 26.5 -39 44.5s-15 40.667 -15 68c0 50 17.833 89 53.5 117s86.5 42 152.5 42c39.333 0 73.333 -3.5 102 -10.5s51.334 -15.167 68.001 -24.5l-26 -90
c-16.667 9.33301 -36.167 17 -58.5 23s-49.5 9 -81.5 9c-34 0 -59 -4.5 -75 -13.5s-24 -23.833 -24 -44.5c0 -10.667 3 -19.167 9 -25.5s14 -11.5 24 -15.5s21.833 -7.33301 35.5 -10s28.5 -5.33398 44.5 -8.00098c20 -4 40.5 -8.83301 61.5 -14.5s40 -14.167 57 -25.5
s30.833 -26.5 41.5 -45.5s16 -43.833 16 -74.5c0 -31.333 -6.16699 -57.666 -18.5 -78.999s-28.333 -38.5 -48 -51.5s-41.834 -22.167 -66.501 -27.5c-9.33301 -2 -18.333 -3.66699 -27 -5l-50 -177h-127l76 175c-27.333 2.66699 -51 7 -71 13z" />
    <glyph glyph-name="Scaron" unicode="&#x160;" horiz-adv-x="596" 
d="M277 -10c-56 0 -103.666 7.17188 -142.999 21.5049s-69.666 29.166 -90.999 44.499l18 110c10 -7.33301 22.5 -15 37.5 -23s31.833 -15.333 50.5 -22s38.667 -12.167 60 -16.5s43.333 -6.5 66 -6.5c46.667 0 84.334 7.5 113.001 22.5s43 39.833 43 74.5
c0 18 -3.66699 33 -11 45s-17.833 22 -31.5 30s-30.334 14.833 -50.001 20.5s-41.834 11.5 -66.501 17.5c-27.333 6.66699 -54.5 14.5 -81.5 23.5s-51.333 21.167 -73 36.5s-39.334 35.166 -53.001 59.499s-20.5 55.166 -20.5 92.499c0 66.667 24 117.667 72 153
s115.333 53 202 53c53.333 0 95.5 -5 126.5 -15s54.833 -19.667 71.5 -29l-17 -110c-23.333 14 -50 25.333 -80 34s-63.333 13 -100 13c-53.333 0 -92 -7.83301 -116 -23.5s-36 -38.167 -36 -67.5c0 -17.333 4.16699 -31.5 12.5 -42.5s19.333 -20.333 33 -28
s29.5 -14 47.5 -19s37 -9.83301 57 -14.5c28 -6.66699 56.333 -14.334 85 -23.001s54.5 -20.834 77.5 -36.501s41.833 -36 56.5 -61s22 -57.167 22 -96.5c0 -41.333 -7.83301 -76 -23.5 -104s-36.667 -50.333 -63 -67s-56.333 -28.5 -90 -35.5s-68.5 -10.5 -104.5 -10.5z
M236.001 771.005l-107 148h97l74 -78l75 78h97l-108 -148h-128z" />
    <glyph glyph-name="scaron" unicode="&#x161;" horiz-adv-x="483" 
d="M240 -9c-50 0 -91.166 5.00488 -123.499 15.0049s-57.166 21 -74.499 33l24 94c17.333 -12.667 40.666 -23.834 69.999 -33.501s63.666 -14.5 102.999 -14.5c29.333 0 52.5 5.16699 69.5 15.5s25.5 26.5 25.5 48.5c0 13.333 -3.16699 23.666 -9.5 30.999
s-14.833 13.166 -25.5 17.499s-23.167 7.66602 -37.5 9.99902l-45.5 7.5c-20 3.33301 -40 8.16602 -60 14.499s-38 15.333 -54 27s-29 26.5 -39 44.5s-15 40.667 -15 68c0 50 17.833 89 53.5 117s86.5 42 152.5 42c39.333 0 73.333 -3.5 102 -10.5
s51.334 -15.167 68.001 -24.5l-26 -90c-16.667 9.33301 -36.167 17 -58.5 23s-49.5 9 -81.5 9c-34 0 -59 -4.5 -75 -13.5s-24 -23.833 -24 -44.5c0 -10.667 3 -19.167 9 -25.5s14 -11.5 24 -15.5s21.833 -7.33301 35.5 -10s28.5 -5.33398 44.5 -8.00098
c20 -4 40.5 -8.83301 61.5 -14.5s40 -14.167 57 -25.5s30.833 -26.5 41.5 -45.5s16 -43.833 16 -74.5c0 -31.333 -6.16699 -57.666 -18.5 -78.999s-28.333 -38.5 -48 -51.5s-41.834 -22.333 -66.501 -28s-49.667 -8.5 -75 -8.5zM76.001 736.005h97l70 -76l69 76h97
l-102 -148h-129z" />
    <glyph glyph-name="Tcommaaccent" unicode="&#x162;" horiz-adv-x="601" 
d="M362 608v-608h-128v608h-206v108h541v-108h-207zM231 -233c22.667 18.667 40.666 41.333 53.999 68c-13.333 2.66699 -24.166 9 -32.499 19s-12.5 22.333 -12.5 37c0 16.667 5.5 30.667 16.5 42s25.833 17 44.5 17s34.5 -5.66699 47.5 -17s19.5 -28.333 19.5 -51
c0 -24.667 -6.5 -46.5 -19.5 -65.5s-26.833 -35.5 -41.5 -49.5h-76z" />
    <glyph glyph-name="tcommaaccent" unicode="&#x163;" horiz-adv-x="394" 
d="M363 15c-12.667 -7.33301 -29.5 -13.333 -50.5 -18s-42.833 -7 -65.5 -7c-28 0 -52.167 3.83301 -72.5 11.5s-36.833 18.167 -49.5 31.5s-22 29 -28 47s-9 37.667 -9 59v282h-62v98h62v109h122v-109h148v-98h-148v-269c0 -41.333 19.667 -62 59 -62c14 0 27.333 2 40 6
s24 8.66699 34 14l20 -95v0zM138 -233c22.667 18.667 40.666 41.333 53.999 68c-13.333 2.66699 -24.166 9 -32.499 19s-12.5 22.333 -12.5 37c0 16.667 5.5 30.667 16.5 42s25.833 17 44.5 17s34.5 -5.66699 47.5 -17s19.5 -28.333 19.5 -51
c0 -24.667 -6.5 -46.5 -19.5 -65.5s-26.833 -35.5 -41.5 -49.5h-76z" />
    <glyph glyph-name="Tcaron" unicode="&#x164;" horiz-adv-x="601" 
d="M362 608v-608h-128v608h-206v108h541v-108h-207zM243 771l-107 148h97l74 -78l75 78h97l-108 -148h-128z" />
    <glyph glyph-name="tcaron" unicode="&#x165;" horiz-adv-x="394" 
d="M363 15c-12.667 -7.33301 -29.5 -13.333 -50.5 -18s-42.833 -7 -65.5 -7c-28 0 -52.167 3.83301 -72.5 11.5s-36.833 18.167 -49.5 31.5s-22 29 -28 47s-9 37.667 -9 59v282h-62v98h62v109h122v-109h148v-98h-148v-269c0 -41.333 19.667 -62 59 -62c14 0 27.333 2 40 6
s24 8.66699 34 14l20 -95v0zM263 573l19 159h119l-59 -159h-79z" />
    <glyph glyph-name="Tbar" unicode="&#x166;" horiz-adv-x="596" 
d="M78 436h156v172h-206v108h541v-108h-207v-172h156v-95h-156v-341h-128v341h-156v95z" />
    <glyph glyph-name="tbar" unicode="&#x167;" horiz-adv-x="394" 
d="M364 15c-12.667 -7.33301 -29.5 -13.333 -50.5 -18s-42.833 -7 -65.5 -7c-28 0 -52.167 3.83301 -72.5 11.5s-36.833 18.167 -49.5 31.5s-22 29 -28 47s-9 37.667 -9 59v110h-63v90h63v82h-62v98h62v109h122v-109h148v-98h-148v-82h147v-90h-147v-97
c0 -41.333 19.667 -62 59 -62c14 0 27.333 2 40 6s24 8.66699 34 14z" />
    <glyph glyph-name="Utilde" unicode="&#x168;" horiz-adv-x="697" 
d="M63 716h128.002v-460c0 -54 14.833 -93.667 44.5 -119s69.5 -38 119.5 -38c49.333 0 89.166 12.833 119.499 38.5s45.5 65.167 45.5 118.5v460h114v-464c0 -42 -6.83301 -79.333 -20.5 -112s-33 -60 -58 -82s-54.833 -38.833 -89.5 -50.5s-73 -17.5 -115 -17.5
c-41.333 0 -79.5 5.5 -114.5 16.5s-65.333 27.333 -91 49s-45.834 48.667 -60.501 81s-22 69.5 -22 111.5v468zM178.002 775c-2.66699 20 -2.33496 38.999 0.998047 56.999s9.5 33.833 18.5 47.5s20.833 24.5 35.5 32.5s32 12 52 12c17.333 0 32.5 -2.5 45.5 -7.5
s25 -10.5 36 -16.5l30.5 -16.5c9.33301 -5 19 -7.5 29 -7.5c14 0 24.167 4.16699 30.5 12.5s9.5 22.166 9.5 41.499h75c2.66699 -20 2.33398 -39.167 -0.999023 -57.5s-9.5 -34.166 -18.5 -47.499s-20.833 -24 -35.5 -32s-32 -12 -52 -12c-17.333 0 -32.5 2.5 -45.5 7.5
s-25 10.5 -36 16.5l-31 16.5c-9.66699 5 -19.5 7.5 -29.5 7.5c-13.333 0 -23.166 -4.16699 -29.499 -12.5s-9.5 -22.166 -9.5 -41.499h-75v0z" />
    <glyph glyph-name="utilde" unicode="&#x169;" horiz-adv-x="585" 
d="M397 83c-14 -26 -34.6641 -47.9971 -61.9971 -65.9971s-63 -27 -107 -27c-49.333 0 -89.5 14.167 -120.5 42.5s-46.5 71.166 -46.5 128.499v358h123v-354c0 -14.667 2.16699 -26.834 6.5 -36.501s10.333 -17.334 18 -23.001s16.667 -9.66699 27 -12
s21.166 -3.5 32.499 -3.5c31.333 0 57.166 6.66699 77.499 20s37.166 31 50.499 53v356h122v-519h-111l-8 83h-2v0zM122.003 590.003c-1.33301 16.667 -0.333008 33.332 3 49.999s9.5 31.5 18.5 44.5s20.5 23.5 34.5 31.5s30.667 12 50 12c16 0 29.833 -2.33301 41.5 -7
s22.5 -9.83398 32.5 -15.501l28.5 -15.5c9 -4.66699 18.5 -7 28.5 -7c23.333 0 35 17 35 51h69c1.33301 -17.333 0.333008 -34.166 -3 -50.499s-9.5 -31 -18.5 -44s-20.5 -23.5 -34.5 -31.5s-30.667 -12 -50 -12c-16 0 -30 2.33301 -42 7s-23 9.83398 -33 15.501l-28.5 15.5
c-9 4.66699 -18.5 7 -28.5 7c-10.667 0 -19 -4 -25 -12s-9 -21 -9 -39h-69v0z" />
    <glyph glyph-name="Umacron" unicode="&#x16a;" horiz-adv-x="697" 
d="M63 716h128.002v-460c0 -54 14.833 -93.667 44.5 -119s69.5 -38 119.5 -38c49.333 0 89.166 12.833 119.499 38.5s45.5 65.167 45.5 118.5v460h114v-464c0 -42 -6.83301 -79.333 -20.5 -112s-33 -60 -58 -82s-54.833 -38.833 -89.5 -50.5s-73 -17.5 -115 -17.5
c-41.333 0 -79.5 5.5 -114.5 16.5s-65.333 27.333 -91 49s-45.834 48.667 -60.501 81s-22 69.5 -22 111.5v468zM197.002 890h319v-90h-319v90z" />
    <glyph glyph-name="umacron" unicode="&#x16b;" horiz-adv-x="585" 
d="M397 83c-14 -26 -34.6641 -47.9971 -61.9971 -65.9971s-63 -27 -107 -27c-49.333 0 -89.5 14.167 -120.5 42.5s-46.5 71.166 -46.5 128.499v358h123v-354c0 -14.667 2.16699 -26.834 6.5 -36.501s10.333 -17.334 18 -23.001s16.667 -9.66699 27 -12
s21.166 -3.5 32.499 -3.5c31.333 0 57.166 6.66699 77.499 20s37.166 31 50.499 53v356h122v-519h-111l-8 83h-2v0zM139.003 692.003h303v-88h-303v88z" />
    <glyph glyph-name="Ubreve" unicode="&#x16c;" horiz-adv-x="697" 
d="M63 716h128.002v-460c0 -54 14.833 -93.667 44.5 -119s69.5 -38 119.5 -38c49.333 0 89.166 12.833 119.499 38.5s45.5 65.167 45.5 118.5v460h114v-464c0 -42 -6.83301 -79.333 -20.5 -112s-33 -60 -58 -82s-54.833 -38.833 -89.5 -50.5s-73 -17.5 -115 -17.5
c-41.333 0 -79.5 5.5 -114.5 16.5s-65.333 27.333 -91 49s-45.834 48.667 -60.501 81s-22 69.5 -22 111.5v468zM357.002 766c-28 0 -52.5 4.16699 -73.5 12.5s-38.333 19.5 -52 33.5s-24 30.333 -31 49s-10.5 38.334 -10.5 59.001h96c0.666992 -20.667 7 -36.834 19 -48.501
s29.333 -17.5 52 -17.5s39.834 5.83301 51.501 17.5s18.167 27.834 19.5 48.501h96c-0.666992 -20.667 -4.5 -40.334 -11.5 -59.001s-17.333 -35 -31 -49s-30.834 -25.167 -51.501 -33.5s-45 -12.5 -73 -12.5z" />
    <glyph glyph-name="ubreve" unicode="&#x16d;" horiz-adv-x="585" 
d="M397 83c-14 -26 -34.6641 -47.9971 -61.9971 -65.9971s-63 -27 -107 -27c-49.333 0 -89.5 14.167 -120.5 42.5s-46.5 71.166 -46.5 128.499v358h123v-354c0 -14.667 2.16699 -26.834 6.5 -36.501s10.333 -17.334 18 -23.001s16.667 -9.66699 27 -12
s21.166 -3.5 32.499 -3.5c31.333 0 57.166 6.66699 77.499 20s37.166 31 50.499 53v356h122v-519h-111l-8 83h-2v0zM291.003 584.003c-26 0 -48.666 3.99902 -67.999 11.999s-35.333 18.833 -48 32.5s-22.167 29.5 -28.5 47.5s-9.83301 37 -10.5 57h93
c0.666992 -21.333 6.5 -37.166 17.5 -47.499s25.833 -15.5 44.5 -15.5c39.333 0 59.666 21 60.999 63h94c0 -20 -3.16699 -39 -9.5 -57s-16 -33.833 -29 -47.5s-29.167 -24.5 -48.5 -32.5s-42 -12 -68 -12z" />
    <glyph glyph-name="Uring" unicode="&#x16e;" horiz-adv-x="697" 
d="M63 716h128.002v-460c0 -54 14.833 -93.667 44.5 -119s69.5 -38 119.5 -38c49.333 0 89.166 12.833 119.499 38.5s45.5 65.167 45.5 118.5v460h114v-464c0 -42 -6.83301 -79.333 -20.5 -112s-33 -60 -58 -82s-54.833 -38.833 -89.5 -50.5s-73 -17.5 -115 -17.5
c-41.333 0 -79.5 5.5 -114.5 16.5s-65.333 27.333 -91 49s-45.834 48.667 -60.501 81s-22 69.5 -22 111.5v468zM356.002 732c-16.667 0 -32.334 2.83301 -47.001 8.5s-27.334 13.834 -38.001 24.501s-19.167 23.167 -25.5 37.5s-9.5 30.166 -9.5 47.499
s3.16699 33.333 9.5 48s14.833 27.167 25.5 37.5s23.334 18.5 38.001 24.5s30.334 9 47.001 9c17.333 0 33.5 -3 48.5 -9s28 -14.167 39 -24.5s19.667 -22.833 26 -37.5s9.5 -30.667 9.5 -48s-3.16699 -33.166 -9.5 -47.499s-15 -26.833 -26 -37.5s-24 -18.834 -39 -24.501
s-31.167 -8.5 -48.5 -8.5zM356.002 798c15.333 0 28 4.83301 38 14.5s15 22.167 15 37.5s-5 28 -15 38s-22.667 15 -38 15c-14.667 0 -26.5 -5 -35.5 -15s-13.5 -22.667 -13.5 -38s4.5 -27.833 13.5 -37.5s20.833 -14.5 35.5 -14.5z" />
    <glyph glyph-name="uring" unicode="&#x16f;" horiz-adv-x="585" 
d="M397 83c-14 -26 -34.6641 -47.9971 -61.9971 -65.9971s-63 -27 -107 -27c-49.333 0 -89.5 14.167 -120.5 42.5s-46.5 71.166 -46.5 128.499v358h123v-354c0 -14.667 2.16699 -26.834 6.5 -36.501s10.333 -17.334 18 -23.001s16.667 -9.66699 27 -12
s21.166 -3.5 32.499 -3.5c31.333 0 57.166 6.66699 77.499 20s37.166 31 50.499 53v356h122v-519h-111l-8 83h-2v0zM289.003 572.003c-16.667 0 -32.334 2.83301 -47.001 8.5s-27.334 13.834 -38.001 24.501s-19.167 23.167 -25.5 37.5s-9.5 30.166 -9.5 47.499
s3.16699 33.333 9.5 48s14.833 27.167 25.5 37.5s23.334 18.5 38.001 24.5s30.334 9 47.001 9c17.333 0 33.5 -3 48.5 -9s28 -14.167 39 -24.5s19.667 -22.833 26 -37.5s9.5 -30.667 9.5 -48s-3.16699 -33.166 -9.5 -47.499s-15 -26.833 -26 -37.5s-24 -18.834 -39 -24.501
s-31.167 -8.5 -48.5 -8.5zM289.003 638.003c15.333 0 28 4.83301 38 14.5s15 22.167 15 37.5s-5 28 -15 38s-22.667 15 -38 15c-14.667 0 -26.5 -5 -35.5 -15s-13.5 -22.667 -13.5 -38s4.5 -27.833 13.5 -37.5s20.833 -14.5 35.5 -14.5z" />
    <glyph glyph-name="Uhungarumlaut" unicode="&#x170;" horiz-adv-x="697" 
d="M63 716h128.002v-460c0 -54 14.833 -93.667 44.5 -119s69.5 -38 119.5 -38c49.333 0 89.166 12.833 119.499 38.5s45.5 65.167 45.5 118.5v460h114v-464c0 -42 -6.83301 -79.333 -20.5 -112s-33 -60 -58 -82s-54.833 -38.833 -89.5 -50.5s-73 -17.5 -115 -17.5
c-41.333 0 -79.5 5.5 -114.5 16.5s-65.333 27.333 -91 49s-45.834 48.667 -60.501 81s-22 69.5 -22 111.5v468zM402.002 776l52 136h132l-92 -136h-92zM207.002 776l51 136h133l-92 -136h-92z" />
    <glyph glyph-name="uhungarumlaut" unicode="&#x171;" horiz-adv-x="585" 
d="M397 83c-14 -26 -34.6641 -47.9971 -61.9971 -65.9971s-63 -27 -107 -27c-49.333 0 -89.5 14.167 -120.5 42.5s-46.5 71.166 -46.5 128.499v358h123v-354c0 -14.667 2.16699 -26.834 6.5 -36.501s10.333 -17.334 18 -23.001s16.667 -9.66699 27 -12
s21.166 -3.5 32.499 -3.5c31.333 0 57.166 6.66699 77.499 20s37.166 31 50.499 53v356h122v-519h-111l-8 83h-2v0zM337.003 588.003l59 158h118l-87 -158h-90zM158.003 588.003l59 158h118l-87 -158h-90z" />
    <glyph glyph-name="Uogonek" unicode="&#x172;" horiz-adv-x="697" 
d="M389 -78c0 -9.33301 3.00098 -17.168 9.00098 -23.501s15.667 -9.5 29 -9.5c7.33301 0 14.333 0.833008 21 2.5s12.667 3.5 18 5.5l6 -70c-6 -3.33301 -15.167 -6.5 -27.5 -9.5s-27.166 -4.5 -44.499 -4.5c-40 0 -69.833 8 -89.5 24s-29.5 36.667 -29.5 62
c0 23.333 6.5 42.166 19.5 56.499s27.833 25.833 44.5 34.5h-5c-40 0.666992 -76.833 6.83398 -110.5 18.501s-62.834 28.334 -87.501 50.001s-44 48.334 -58 80.001s-21 68.167 -21 109.5v468h128v-460c0 -54 14.833 -93.667 44.5 -119s69.5 -38 119.5 -38
c49.333 0 89.166 12.833 119.499 38.5s45.5 65.167 45.5 118.5v460h114v-464c0 -63.333 -15 -115.5 -45 -156.5s-71 -70.833 -123 -89.5c-22 -12 -40.333 -24.833 -55 -38.5s-22 -28.834 -22 -45.501z" />
    <glyph glyph-name="uogonek" unicode="&#x173;" horiz-adv-x="585" 
d="M452 -78c0 -9.33301 3.16992 -17.1621 9.50293 -23.4951s15.833 -9.5 28.5 -9.5c8 0 15.167 0.833008 21.5 2.5s12.166 3.5 17.499 5.5l6 -70c-5.33301 -3.33301 -14.166 -6.5 -26.499 -9.5s-27.166 -4.5 -44.499 -4.5c-40.667 0 -70.834 8 -90.501 24
s-29.5 36.667 -29.5 62c0 23.333 6.5 42 19.5 56s27.5 25 43.5 33l-8 95h-2c-14 -26 -34.667 -48 -62 -66s-63 -27 -107 -27c-49.333 0 -89.5 14.167 -120.5 42.5s-46.5 71.166 -46.5 128.499v358h123v-354c0 -14.667 2.16699 -26.834 6.5 -36.501
s10.333 -17.334 18 -23.001s16.667 -9.66699 27 -12s21.166 -3.5 32.499 -3.5c31.333 0 57.166 6.66699 77.499 20s37.166 31 50.499 53v356h122v-519c-8 -4.66699 -15.833 -9.83398 -23.5 -15.501s-14.667 -11.834 -21 -18.501s-11.5 -13.667 -15.5 -21s-6 -15 -6 -23z" />
    <glyph glyph-name="Wcircumflex" unicode="&#x174;" horiz-adv-x="951" 
d="M23 716h129l114 -583l149 583h135l146 -573l118 573h114l-148 -716h-166l-137 552l-138 -552h-167zM481 849l-75 -78h-97l107 148h129l107 -148h-97z" />
    <glyph glyph-name="wcircumflex" unicode="&#x175;" horiz-adv-x="803" 
d="M26 519h123l86 -401l111 401h123l109 -400l85 400h114l-116 -519h-163l-97 365l-98 -365h-160zM411 664l-70 -76h-97l102 148h129l102 -148h-97z" />
    <glyph glyph-name="Ycircumflex" unicode="&#x176;" horiz-adv-x="618" 
d="M246 0v305l-237 411h142l166 -302l170 302h123l-236 -411v-305h-128zM317 849l-75 -78h-97l107 148h129l107 -148h-97z" />
    <glyph glyph-name="ycircumflex" unicode="&#x177;" horiz-adv-x="540" 
d="M133 -187c-15.333 0 -30.665 1.16602 -45.998 3.49902s-27.666 5.5 -36.999 9.5l15 98c7.33301 -2.66699 16 -5 26 -7s21.667 -3 35 -3c20.667 0 38 4.5 52 13.5s26.333 22.833 37 41.5l-202 550h129l136 -396l135 396h114l-181 -513
c-11.333 -31.333 -23.333 -59 -36 -83s-27.334 -44.167 -44.001 -60.5s-35.834 -28.666 -57.501 -36.999s-46.834 -12.5 -75.501 -12.5zM283.001 663.999l-70 -76h-97l102 148h129l102 -148h-97z" />
    <glyph glyph-name="Ydieresis" unicode="&#x178;" horiz-adv-x="618" 
d="M246 0v305l-237 411h142l166 -302l170 302h123l-236 -411v-305h-128zM434 779c-20.667 0 -37.834 6.83301 -51.501 20.5s-20.5 30.167 -20.5 49.5c0 20 6.83301 36.833 20.5 50.5s30.834 20.5 51.501 20.5s38 -6.83301 52 -20.5s21 -30.5 21 -50.5
c0 -19.333 -7 -35.833 -21 -49.5s-31.333 -20.5 -52 -20.5zM198 779c-20.667 0 -37.834 6.83301 -51.501 20.5s-20.5 30.167 -20.5 49.5c0 20 6.83301 36.833 20.5 50.5s30.834 20.5 51.501 20.5s38 -6.83301 52 -20.5s21 -30.5 21 -50.5c0 -19.333 -7 -35.833 -21 -49.5
s-31.333 -20.5 -52 -20.5z" />
    <glyph glyph-name="Zacute" unicode="&#x179;" horiz-adv-x="604" 
d="M41 0v93l364 516h-353v107h504v-93l-365 -515h366v-108h-516zM326 912h155l-128 -136h-105z" />
    <glyph glyph-name="zacute" unicode="&#x17a;" horiz-adv-x="478" 
d="M36 0v82l256 342h-248v95h396v-77l-256 -346h256v-96h-404zM267 746h134l-119 -158h-93z" />
    <glyph glyph-name="Zdotaccent" unicode="&#x17b;" horiz-adv-x="604" 
d="M41 0v93l364 516h-353v107h504v-93l-365 -515h366v-108h-516zM308 779c-21.333 0 -39.166 7.16699 -53.499 21.5s-21.5 31.5 -21.5 51.5c0 20.667 7.16699 38.167 21.5 52.5s32.166 21.5 53.499 21.5s39.333 -7.16699 54 -21.5s22 -31.833 22 -52.5
c0 -20 -7.33301 -37.167 -22 -51.5s-32.667 -21.5 -54 -21.5z" />
    <glyph glyph-name="zdotaccent" unicode="&#x17c;" horiz-adv-x="478" 
d="M36 0v82l256 342h-248v95h396v-77l-256 -346h256v-96h-404zM243 582c-21.333 0 -39.166 7.16699 -53.499 21.5s-21.5 31.5 -21.5 51.5c0 20.667 7.16699 38 21.5 52s32.166 21 53.499 21s39.333 -7 54 -21s22 -31.333 22 -52c0 -20 -7.33301 -37.167 -22 -51.5
s-32.667 -21.5 -54 -21.5z" />
    <glyph glyph-name="Zcaron" unicode="&#x17d;" horiz-adv-x="604" 
d="M41 0v93l364 516h-353v107h504v-93l-365 -515h366v-108h-516zM248 771l-107 148h97l74 -78l75 78h97l-108 -148h-128z" />
    <glyph glyph-name="zcaron" unicode="&#x17e;" horiz-adv-x="478" 
d="M36 0v82l256 342h-248v95h396v-77l-256 -346h256v-96h-404zM75 736h97l70 -76l69 76h97l-102 -148h-129z" />
    <glyph glyph-name="uni0192" unicode="&#x192;" 
d="M68 -187c-19.333 0 -36.332 1.49805 -50.999 4.49805s-24.667 5.16699 -30 6.5l23 95c3.33301 -1.33301 10.666 -3 21.999 -5s23.666 -3 36.999 -3c29.333 0 51 8.83301 65 26.5s24 44.834 30 81.501l56 333h-79l19 94h76l13 77c11.333 71.333 35 123 71 155
s80.667 48 134 48c20 0 36.333 -1.16699 49 -3.5s21 -4.16602 25 -5.49902l-16 -98c-3.33301 1.33301 -10.166 2.83301 -20.499 4.5s-21.166 2.5 -32.499 2.5c-30 0 -51.667 -8 -65 -24s-23 -42.333 -29 -79l-13 -77h128l-19 -94h-125l-56 -336
c-11.333 -70.667 -35.333 -122.167 -72 -154.5s-83.334 -48.5 -140.001 -48.5z" />
    <glyph glyph-name="uni0218" unicode="&#x218;" horiz-adv-x="596" 
d="M277 -10c-56 0 -103.666 7.17188 -142.999 21.5049s-69.666 29.166 -90.999 44.499l18 110c10 -7.33301 22.5 -15 37.5 -23s31.833 -15.333 50.5 -22s38.667 -12.167 60 -16.5s43.333 -6.5 66 -6.5c46.667 0 84.334 7.5 113.001 22.5s43 39.833 43 74.5
c0 18 -3.66699 33 -11 45s-17.833 22 -31.5 30s-30.334 14.833 -50.001 20.5s-41.834 11.5 -66.501 17.5c-27.333 6.66699 -54.5 14.5 -81.5 23.5s-51.333 21.167 -73 36.5s-39.334 35.166 -53.001 59.499s-20.5 55.166 -20.5 92.499c0 66.667 24 117.667 72 153
s115.333 53 202 53c53.333 0 95.5 -5 126.5 -15s54.833 -19.667 71.5 -29l-17 -110c-23.333 14 -50 25.333 -80 34s-63.333 13 -100 13c-53.333 0 -92 -7.83301 -116 -23.5s-36 -38.167 -36 -67.5c0 -17.333 4.16699 -31.5 12.5 -42.5s19.333 -20.333 33 -28
s29.5 -14 47.5 -19s37 -9.83301 57 -14.5c28 -6.66699 56.333 -14.334 85 -23.001s54.5 -20.834 77.5 -36.501s41.833 -36 56.5 -61s22 -57.167 22 -96.5c0 -41.333 -7.83301 -76 -23.5 -104s-36.667 -50.333 -63 -67s-56.333 -28.5 -90 -35.5s-68.5 -10.5 -104.5 -10.5z
M218.001 -232.995c22.667 18.667 40.666 41.333 53.999 68c-13.333 2.66699 -24.166 9 -32.499 19s-12.5 22.333 -12.5 37c0 16.667 5.5 30.667 16.5 42s25.833 17 44.5 17s34.5 -5.66699 47.5 -17s19.5 -28.333 19.5 -51c0 -24.667 -6.5 -46.5 -19.5 -65.5
s-26.833 -35.5 -41.5 -49.5h-76z" />
    <glyph glyph-name="uni0219" unicode="&#x219;" horiz-adv-x="483" 
d="M240 -9c-50 0 -91.166 5.00488 -123.499 15.0049s-57.166 21 -74.499 33l24 94c17.333 -12.667 40.666 -23.834 69.999 -33.501s63.666 -14.5 102.999 -14.5c29.333 0 52.5 5.16699 69.5 15.5s25.5 26.5 25.5 48.5c0 13.333 -3.16699 23.666 -9.5 30.999
s-14.833 13.166 -25.5 17.499s-23.167 7.66602 -37.5 9.99902l-45.5 7.5c-20 3.33301 -40 8.16602 -60 14.499s-38 15.333 -54 27s-29 26.5 -39 44.5s-15 40.667 -15 68c0 50 17.833 89 53.5 117s86.5 42 152.5 42c39.333 0 73.333 -3.5 102 -10.5
s51.334 -15.167 68.001 -24.5l-26 -90c-16.667 9.33301 -36.167 17 -58.5 23s-49.5 9 -81.5 9c-34 0 -59 -4.5 -75 -13.5s-24 -23.833 -24 -44.5c0 -10.667 3 -19.167 9 -25.5s14 -11.5 24 -15.5s21.833 -7.33301 35.5 -10s28.5 -5.33398 44.5 -8.00098
c20 -4 40.5 -8.83301 61.5 -14.5s40 -14.167 57 -25.5s30.833 -26.5 41.5 -45.5s16 -43.833 16 -74.5c0 -31.333 -6.16699 -57.666 -18.5 -78.999s-28.333 -38.5 -48 -51.5s-41.834 -22.333 -66.501 -28s-49.667 -8.5 -75 -8.5zM159.001 -232.995
c22.667 18.667 40.666 41.333 53.999 68c-13.333 2.66699 -24.166 9 -32.499 19s-12.5 22.333 -12.5 37c0 16.667 5.5 30.667 16.5 42s25.833 17 44.5 17s34.5 -5.66699 47.5 -17s19.5 -28.333 19.5 -51c0 -24.667 -6.5 -46.5 -19.5 -65.5s-26.833 -35.5 -41.5 -49.5h-76z
" />
    <glyph glyph-name="uni021A" unicode="&#x21a;" horiz-adv-x="601" 
d="M362 608v-608h-128v608h-206v108h541v-108h-207zM231 -233c22.667 18.667 40.666 41.333 53.999 68c-13.333 2.66699 -24.166 9 -32.499 19s-12.5 22.333 -12.5 37c0 16.667 5.5 30.667 16.5 42s25.833 17 44.5 17s34.5 -5.66699 47.5 -17s19.5 -28.333 19.5 -51
c0 -24.667 -6.5 -46.5 -19.5 -65.5s-26.833 -35.5 -41.5 -49.5h-76z" />
    <glyph glyph-name="uni021B" unicode="&#x21b;" horiz-adv-x="394" 
d="M363 15c-12.667 -7.33301 -29.5 -13.333 -50.5 -18s-42.833 -7 -65.5 -7c-28 0 -52.167 3.83301 -72.5 11.5s-36.833 18.167 -49.5 31.5s-22 29 -28 47s-9 37.667 -9 59v282h-62v98h62v109h122v-109h148v-98h-148v-269c0 -41.333 19.667 -62 59 -62c14 0 27.333 2 40 6
s24 8.66699 34 14l20 -95v0zM138 -233c22.667 18.667 40.666 41.333 53.999 68c-13.333 2.66699 -24.166 9 -32.499 19s-12.5 22.333 -12.5 37c0 16.667 5.5 30.667 16.5 42s25.833 17 44.5 17s34.5 -5.66699 47.5 -17s19.5 -28.333 19.5 -51
c0 -24.667 -6.5 -46.5 -19.5 -65.5s-26.833 -35.5 -41.5 -49.5h-76z" />
    <glyph glyph-name="uni0237" unicode="&#x237;" horiz-adv-x="261" 
d="M-23 -87c38 2.66699 64 14.332 78 34.999s21 46.334 21 77.001v494h121v-501c0 -62 -17.167 -110.833 -51.5 -146.5s-84.833 -55.167 -151.5 -58.5z" />
    <glyph glyph-name="uni02BC" unicode="&#x2bc;" horiz-adv-x="259" 
d="M47 479c13.333 13.333 25.501 28.668 36.501 46.001s19.5 37 25.5 59c-19.333 5.33301 -33.333 14.333 -42 27s-13 26.667 -13 42c0 21.333 7 38.833 21 52.5s32.667 20.5 56 20.5s42.5 -7.5 57.5 -22.5s22.5 -36.5 22.5 -64.5c0 -16 -2.5 -31.667 -7.5 -47
s-11.333 -30 -19 -44s-16.334 -26.833 -26.001 -38.5s-19.167 -21.834 -28.5 -30.501h-83z" />
    <glyph glyph-name="circumflex" unicode="&#x2c6;" horiz-adv-x="449" 
d="M225 664l-70 -76h-97l102 148h129l102 -148h-97z" />
    <glyph glyph-name="caron" unicode="&#x2c7;" horiz-adv-x="449" 
d="M58 736h97l70 -76l69 76h97l-102 -148h-129z" />
    <glyph glyph-name="breve" unicode="&#x2d8;" horiz-adv-x="449" 
d="M224 584c-26 0 -48.666 3.99902 -67.999 11.999s-35.333 18.833 -48 32.5s-22.167 29.5 -28.5 47.5s-9.83301 37 -10.5 57h93c0.666992 -21.333 6.5 -37.166 17.5 -47.499s25.833 -15.5 44.5 -15.5c39.333 0 59.666 21 60.999 63h94c0 -20 -3.16699 -39 -9.5 -57
s-16 -33.833 -29 -47.5s-29.167 -24.5 -48.5 -32.5s-42 -12 -68 -12z" />
    <glyph glyph-name="dotaccent" unicode="&#x2d9;" horiz-adv-x="449" 
d="M224 582c-21.333 0 -39.166 7.16699 -53.499 21.5s-21.5 31.5 -21.5 51.5c0 20.667 7.16699 38 21.5 52s32.166 21 53.499 21s39.333 -7 54 -21s22 -31.333 22 -52c0 -20 -7.33301 -37.167 -22 -51.5s-32.667 -21.5 -54 -21.5z" />
    <glyph glyph-name="ring" unicode="&#x2da;" horiz-adv-x="449" 
d="M223 572c-16.667 0 -32.334 2.83301 -47.001 8.5s-27.334 13.834 -38.001 24.501s-19.167 23.167 -25.5 37.5s-9.5 30.166 -9.5 47.499s3.16699 33.333 9.5 48s14.833 27.167 25.5 37.5s23.334 18.5 38.001 24.5s30.334 9 47.001 9c17.333 0 33.5 -3 48.5 -9
s28 -14.167 39 -24.5s19.667 -22.833 26 -37.5s9.5 -30.667 9.5 -48s-3.16699 -33.166 -9.5 -47.499s-15 -26.833 -26 -37.5s-24 -18.834 -39 -24.501s-31.167 -8.5 -48.5 -8.5zM223 638c15.333 0 28 4.83301 38 14.5s15 22.167 15 37.5s-5 28 -15 38s-22.667 15 -38 15
c-14.667 0 -26.5 -5 -35.5 -15s-13.5 -22.667 -13.5 -38s4.5 -27.833 13.5 -37.5s20.833 -14.5 35.5 -14.5z" />
    <glyph glyph-name="ogonek" unicode="&#x2db;" horiz-adv-x="449" 
d="M249 -187c-41.333 0 -72.5 8 -93.5 24s-31.5 36.667 -31.5 62c0 14 2.66699 26.5 8 37.5s12.166 20.5 20.499 28.5s17.5 14.833 27.5 20.5s19.667 10.5 29 14.5h85c-14.667 -8.66699 -28.667 -20 -42 -34s-20 -28.667 -20 -44c0 -9.33301 3 -17 9 -23s15.333 -9 28 -9
c7.33301 0 13.833 0.666992 19.5 2s11.167 3 16.5 5l14 -70c-6.66699 -3.33301 -16.167 -6.5 -28.5 -9.5s-26.166 -4.5 -41.499 -4.5z" />
    <glyph glyph-name="tilde" unicode="&#x2dc;" horiz-adv-x="449" 
d="M54 590c-1.33301 16.667 -0.333008 33.332 3 49.999s9.5 31.5 18.5 44.5s20.5 23.5 34.5 31.5s30.667 12 50 12c16 0 29.833 -2.33301 41.5 -7s22.5 -9.83398 32.5 -15.501l28.5 -15.5c9 -4.66699 18.5 -7 28.5 -7c23.333 0 35 17 35 51h69
c1.33301 -17.333 0.333008 -34.166 -3 -50.499s-9.5 -31 -18.5 -44s-20.5 -23.5 -34.5 -31.5s-30.667 -12 -50 -12c-16 0 -30 2.33301 -42 7s-23 9.83398 -33 15.501l-28.5 15.5c-9 4.66699 -18.5 7 -28.5 7c-10.667 0 -19 -4 -25 -12s-9 -21 -9 -39h-69v0z" />
    <glyph glyph-name="hungarumlaut" unicode="&#x2dd;" horiz-adv-x="449" 
d="M243 588l59 158h118l-87 -158h-90zM64 588l59 158h118l-87 -158h-90z" />
    <glyph glyph-name="acutecomb" unicode="&#x301;" horiz-adv-x="0" 
d="M-237 746h134l-119 -158h-93z" />
    <glyph glyph-name="uni0401" unicode="&#x401;" horiz-adv-x="583" 
d="M78 716h440v-107h-313v-184h266v-108h-266v-209h318v-108h-445v716zM419 779c-20.667 0 -37.834 6.83301 -51.501 20.5s-20.5 30.167 -20.5 49.5c0 20 6.83301 36.833 20.5 50.5s30.834 20.5 51.501 20.5s38 -6.83301 52 -20.5s21 -30.5 21 -50.5
c0 -19.333 -7 -35.833 -21 -49.5s-31.333 -20.5 -52 -20.5zM183 779c-20.667 0 -37.834 6.83301 -51.501 20.5s-20.5 30.167 -20.5 49.5c0 20 6.83301 36.833 20.5 50.5s30.834 20.5 51.501 20.5s38 -6.83301 52 -20.5s21 -30.5 21 -50.5c0 -19.333 -7 -35.833 -21 -49.5
s-31.333 -20.5 -52 -20.5z" />
    <glyph glyph-name="uni0402" unicode="&#x402;" horiz-adv-x="809" 
d="M362 608l-0.000976562 -196.001c14 8.66699 31.667 16.667 53 24c26.667 8.66699 56 13 88 13c40.667 0 77.334 -6 110.001 -18s60.667 -29.333 84 -52s41.333 -50.5 54 -83.5s19 -70.5 19 -112.5c0 -97.333 -23.667 -170.833 -71 -220.5s-112 -74.5 -194 -74.5l-6 109
c50 0 86.5 15.5 109.5 46.5s34.5 76.833 34.5 137.5c0 50.667 -12.333 90.334 -37 119.001s-63.667 43 -117 43c-26 0 -50.667 -3.66699 -74 -11c-19.333 -6 -37 -14 -53 -24v-308h-128v608h-206v108h541v-108h-207z" />
    <glyph glyph-name="uni0403" unicode="&#x403;" horiz-adv-x="533" 
d="M296 912h155l-128 -136h-105zM205 609v-609h-127v716h417v-107h-290z" />
    <glyph glyph-name="uni0404" unicode="&#x404;" horiz-adv-x="651" 
d="M607 45c-18.667 -13.333 -44.832 -25.833 -78.499 -37.5s-74.5 -17.5 -122.5 -17.5c-54 0 -103.5 8.5 -148.5 25.5s-83.5 41.333 -115.5 73s-56.833 70.167 -74.5 115.5s-26.5 96.666 -26.5 153.999s8.66699 108.833 26 154.5s41.666 84.334 72.999 116.001
s69 55.834 113 72.501s93 25 147 25c48.667 0 90 -4.83301 124 -14.5s60.667 -20.167 80 -31.5l-18 -109c-23.333 14 -50 25.5 -80 34.5s-63.667 13.5 -101 13.5c-66 0 -118.5 -17.333 -157.5 -52s-62.833 -86.334 -71.5 -155.001h311v-107h-311
c8.66699 -69.333 33.167 -121.166 73.5 -155.499s94.833 -51.5 163.5 -51.5c32 0 60.833 4.16699 86.5 12.5s50.167 20.166 73.5 35.499l34 -101v0z" />
    <glyph glyph-name="uni0405" unicode="&#x405;" horiz-adv-x="596" 
d="M277 -10c-56 0 -103.666 7.17188 -142.999 21.5049s-69.666 29.166 -90.999 44.499l18 110c10 -7.33301 22.5 -15 37.5 -23s31.833 -15.333 50.5 -22s38.667 -12.167 60 -16.5s43.333 -6.5 66 -6.5c46.667 0 84.334 7.5 113.001 22.5s43 39.833 43 74.5
c0 18 -3.66699 33 -11 45s-17.833 22 -31.5 30s-30.334 14.833 -50.001 20.5s-41.834 11.5 -66.501 17.5c-27.333 6.66699 -54.5 14.5 -81.5 23.5s-51.333 21.167 -73 36.5s-39.334 35.166 -53.001 59.499s-20.5 55.166 -20.5 92.499c0 66.667 24 117.667 72 153
s115.333 53 202 53c53.333 0 95.5 -5 126.5 -15s54.833 -19.667 71.5 -29l-17 -110c-23.333 14 -50 25.333 -80 34s-63.333 13 -100 13c-53.333 0 -92 -7.83301 -116 -23.5s-36 -38.167 -36 -67.5c0 -17.333 4.16699 -31.5 12.5 -42.5s19.333 -20.333 33 -28
s29.5 -14 47.5 -19s37 -9.83301 57 -14.5c28 -6.66699 56.333 -14.334 85 -23.001s54.5 -20.834 77.5 -36.501s41.833 -36 56.5 -61s22 -57.167 22 -96.5c0 -41.333 -7.83301 -76 -23.5 -104s-36.667 -50.333 -63 -67s-56.333 -28.5 -90 -35.5s-68.5 -10.5 -104.5 -10.5z
" />
    <glyph glyph-name="uni0406" unicode="&#x406;" horiz-adv-x="282" 
d="M205 716v-716h-127v716h127z" />
    <glyph glyph-name="uni0407" unicode="&#x407;" horiz-adv-x="282" 
d="M245 779c-21.333 0 -38.833 6.83301 -52.5 20.5s-20.5 30.167 -20.5 49.5c0 20 6.83301 36.833 20.5 50.5s31.167 20.5 52.5 20.5c20 0 37 -6.83301 51 -20.5s21 -30.5 21 -50.5c0 -19.333 -7 -35.833 -21 -49.5s-31 -20.5 -51 -20.5zM36 779
c-20.667 0 -37.834 6.83301 -51.501 20.5s-20.5 30.167 -20.5 49.5c0 20 6.83301 36.833 20.5 50.5s30.834 20.5 51.501 20.5c21.333 0 39 -6.83301 53 -20.5s21 -30.5 21 -50.5c0 -19.333 -7 -35.833 -21 -49.5s-31.667 -20.5 -53 -20.5zM205 716v-716h-127v716h127z" />
    <glyph glyph-name="uni0408" unicode="&#x408;" horiz-adv-x="396" 
d="M325 716l-0.00195312 -551.002c0 -25.333 -3.66699 -48.666 -11 -69.999s-18.666 -39.666 -33.999 -54.999s-35 -27.5 -59 -36.5s-52.667 -13.5 -86 -13.5c-20 0 -39.833 1.66699 -59.5 5s-37.167 8.33301 -52.5 15l20 105c6.66699 -3.33301 16.834 -7 30.501 -11
s29.167 -6 46.5 -6c28 0 48.167 7.5 60.5 22.5s18.5 37.5 18.5 67.5v528h126z" />
    <glyph glyph-name="uni0409" unicode="&#x409;" horiz-adv-x="1018" 
d="M242 195c-6 -32.667 -14.9971 -61.832 -26.9971 -87.499s-27 -47.167 -45 -64.5s-39 -30 -63 -38s-51.333 -10.333 -82 -7l-14 117c35.333 -4 61.833 4.16699 79.5 24.5s30.167 48.5 37.5 84.5c9.33301 46.667 15.666 111.167 18.999 193.5
s5.66602 181.833 6.99902 298.5h449v-259h105c88.667 0 156.667 -17.667 204 -53s71 -91 71 -167c0 -42 -6.66699 -78 -20 -108s-32.333 -54.5 -57 -73.5s-54.334 -33 -89.001 -42s-73 -13.5 -115 -13.5h-226v609h-205c-2 -90.667 -5 -169.834 -9 -237.501
s-10.667 -126.5 -20 -176.5zM603.003 350.002v-242h99c46.667 0 83.5 9 110.5 27s40.5 50 40.5 96c0 40 -12.333 69.833 -37 89.5s-61 29.5 -109 29.5h-104z" />
    <glyph glyph-name="uni040A" unicode="&#x40a;" horiz-adv-x="1071" 
d="M656 329v-221h99c47.333 0 84.5 8.16699 111.5 24.5s40.5 45.5 40.5 87.5c0 36.667 -12.5 64 -37.5 82s-61.5 27 -109.5 27h-104zM529 329h-324v-329h-127v716h127v-280h324v280h127v-280h106c88.667 0 156.5 -17 203.5 -51s70.5 -87.333 70.5 -160
c0 -40 -6.66699 -74.167 -20 -102.5s-32.333 -51.5 -57 -69.5s-54.167 -31.333 -88.5 -40s-72.833 -13 -115.5 -13h-226v329z" />
    <glyph glyph-name="uni040B" unicode="&#x40b;" horiz-adv-x="806" 
d="M362 608l-0.000976562 -197c13.333 8 30.666 16 51.999 24c26 9.33301 58 14 96 14c34.667 0 66.5 -4.66699 95.5 -14s53.833 -23.833 74.5 -43.5s36.834 -44.667 48.501 -75s17.5 -66.833 17.5 -109.5v-207h-128v198c0 27.333 -3.16699 50.333 -9.5 69
s-15 33.667 -26 45s-24.167 19.333 -39.5 24s-31.666 7 -48.999 7c-50.667 0 -94.667 -11.667 -132 -35v-308h-128v608h-206v108h541v-108h-207z" />
    <glyph glyph-name="uni040C" unicode="&#x40c;" horiz-adv-x="651" 
d="M257 301h-52v-301h-127v716h127v-307h56l228 307h135l-262 -352l272 -364h-150zM326 912h155l-128 -136h-105z" />
    <glyph glyph-name="uni040E" unicode="&#x40e;" horiz-adv-x="638" 
d="M331 753c-30.667 0 -57.332 4 -79.999 12s-41.5 19.167 -56.5 33.5s-26.167 31 -33.5 50s-11 39.5 -11 61.5h113c0 -26.667 6 -45.834 18 -57.501s28.667 -17.5 50 -17.5c20.667 0 37 5.83301 49 17.5s18 30.834 18 57.501h114c0 -22 -3.66699 -42.5 -11 -61.5
s-18.5 -35.667 -33.5 -50s-33.833 -25.5 -56.5 -33.5s-49.334 -12 -80.001 -12zM172.002 -5c-10.667 0 -20.167 0.666016 -28.5 1.99902s-13.166 2.33301 -14.499 3l-15 114l17.5 -3.5c8.33301 -1.66699 18.166 -2.5 29.499 -2.5c28 0 51 5.5 69 16.5s33.667 27.167 47 48.5
l-264 543h138l187 -404l162 404h127l-222 -520c-14 -33.333 -28.667 -62.666 -44 -87.999s-32.333 -46.333 -51 -63s-39.167 -29.167 -61.5 -37.5s-47.833 -12.5 -76.5 -12.5z" />
    <glyph glyph-name="uni040F" unicode="&#x40f;" horiz-adv-x="729" 
d="M424 0l-4 -171h-110l-4 171h-228v716h127v-608h320v608h127v-716h-228z" />
    <glyph glyph-name="uni0410" unicode="&#x410;" horiz-adv-x="674" 
d="M328 600l-103 -312h206zM465 185h-274l-61 -185h-112l238 716h162l238 -716h-130z" />
    <glyph glyph-name="uni0411" unicode="&#x411;" horiz-adv-x="630" 
d="M205 330l0.000976562 -222h109c43.333 0 77.666 8.16699 102.999 24.5s38 45.833 38 88.5c0 72.667 -45.333 109 -136 109h-114zM78.001 716h456.999v-107h-330v-172h116c84.667 0 149.834 -17 195.501 -51s68.5 -87 68.5 -159c0 -40 -6.5 -74.333 -19.5 -103
s-31.333 -52.167 -55 -70.5s-52.167 -31.833 -85.5 -40.5s-70.333 -13 -111 -13h-236v716z" />
    <glyph glyph-name="uni0412" unicode="&#x412;" horiz-adv-x="639" 
d="M203 609l0.000976562 -186.001h96c39.333 0 71.166 8 95.499 24s36.5 42 36.5 78c0 32.667 -11 54.834 -33 66.501s-52.333 17.5 -91 17.5h-104zM203.001 314.999v-207h112c44 0 79.667 7.5 107 22.5s41 42.5 41 82.5c0 38 -12.833 64.5 -38.5 79.5
s-65.5 22.5 -119.5 22.5h-102zM78.001 715.999l214 -0.00195312c86.667 0 152.667 -13.167 198 -39.5s68 -71.166 68 -134.499c0 -25.333 -3.66699 -47.5 -11 -66.5s-17.5 -35.333 -30.5 -49s-29 -24.834 -48 -33.501s-39.833 -15.334 -62.5 -20.001
c62 -6.66699 108.833 -22.667 140.5 -48s47.5 -64.666 47.5 -117.999c0 -37.333 -7.33301 -69.166 -22 -95.499s-35.167 -47.666 -61.5 -63.999s-57.5 -28.333 -93.5 -36s-75 -11.5 -117 -11.5h-222v716z" />
    <glyph glyph-name="uni0413" unicode="&#x413;" horiz-adv-x="533" 
d="M205 609v-609h-127v716h417v-107h-290z" />
    <glyph glyph-name="uni0414" unicode="&#x414;" horiz-adv-x="774" 
d="M518 608l-231.999 -0.000976562c-2.66699 -67.333 -5.83398 -127.333 -9.50098 -180s-8.5 -99.5 -14.5 -140.5s-13.5 -76.667 -22.5 -107s-20.167 -56.166 -33.5 -77.499h312v505zM620.001 -0.000976562h-481.999l-10 -171h-109v274h52c18.667 17.333 34.167 42 46.5 74
s22.166 72.667 29.499 122s13 108.333 17 177s7.33301 148.667 10 240h472v-613h94v-274h-110z" />
    <glyph glyph-name="uni0415" unicode="&#x415;" horiz-adv-x="583" 
d="M78 716h440v-107h-313v-184h266v-108h-266v-209h318v-108h-445v716z" />
    <glyph glyph-name="uni0416" unicode="&#x416;" horiz-adv-x="968" 
d="M16 -1l267 364l-260 353h132l224 -309h39v309h128v-309h41l226 309h130l-260 -350l269 -366h-146l-224 307h-36v-307h-128v307h-37l-223 -307z" />
    <glyph glyph-name="uni0417" unicode="&#x417;" horiz-adv-x="591" 
d="M265 -11c-27.333 0 -52.6699 2 -76.0029 6s-44.5 9 -63.5 15s-35.833 12.667 -50.5 20s-27 14.333 -37 21l33 102c25.333 -15.333 54.5 -28.5 87.5 -39.5s69.5 -16.5 109.5 -16.5c20 0 39 2 57 6s33.667 10.5 47 19.5s23.833 20.667 31.5 35s11.5 32.166 11.5 53.499
c0 39.333 -11.833 66.666 -35.5 81.999s-60.167 23 -109.5 23h-99v105h100c38.667 0 68.667 8.66699 90 26s32 42.666 32 75.999c0 36.667 -11.5 62 -34.5 76s-54.167 21 -93.5 21c-35.333 0 -68.166 -4.66699 -98.499 -14s-56.166 -20.666 -77.499 -33.999l-36 99
c24.667 15.333 55 28.5 91 39.5s77 16.5 123 16.5c80 0 142.333 -15.5 187 -46.5s67 -78.5 67 -142.5c0 -46 -12.833 -82.333 -38.5 -109s-59.5 -45 -101.5 -55c52 -8 92.5 -25.667 121.5 -53s43.5 -66 43.5 -116c0 -38 -7.5 -70.667 -22.5 -98
s-35.167 -49.666 -60.5 -66.999s-55.166 -30.166 -89.499 -38.499s-70.5 -12.5 -108.5 -12.5z" />
    <glyph glyph-name="uni0418" unicode="&#x418;" horiz-adv-x="770" 
d="M78 0v716h127v-537l356 537h132v-716h-129v534l-355 -534h-131z" />
    <glyph glyph-name="uni0419" unicode="&#x419;" horiz-adv-x="770" 
d="M379 753c-30.667 0 -57.332 4 -79.999 12s-41.5 19.167 -56.5 33.5s-26.167 31 -33.5 50s-11 39.5 -11 61.5h113c0 -26.667 6 -45.834 18 -57.501s28.667 -17.5 50 -17.5s38 5.83301 50 17.5s18 30.834 18 57.501h113c0 -22 -3.66699 -42.5 -11 -61.5
s-18.5 -35.667 -33.5 -50s-33.833 -25.5 -56.5 -33.5s-49.334 -12 -80.001 -12zM78.002 0v716h127v-537l356 537h132v-716h-129v534l-355 -534h-131z" />
    <glyph glyph-name="uni041A" unicode="&#x41a;" horiz-adv-x="651" 
d="M257 301h-52v-301h-127v716h127v-307h56l228 307h135l-262 -352l272 -364h-150z" />
    <glyph glyph-name="uni041B" unicode="&#x41b;" horiz-adv-x="690" 
d="M242 195c-6 -32.667 -14.998 -61.832 -26.998 -87.499s-27 -47.167 -45 -64.5s-39 -30 -63 -38s-51.333 -10.333 -82 -7l-15 114c35.333 -2.66699 62 6.5 80 27.5s30.667 49.167 38 84.5c9.33301 47.333 15.666 112 18.999 194s5.66602 181.333 6.99902 298h448v-716
h-127v609h-204c-2 -90.667 -5 -169.834 -9 -237.501s-10.667 -126.5 -20 -176.5z" />
    <glyph glyph-name="uni041C" unicode="&#x41c;" horiz-adv-x="883" 
d="M192 539v-539h-114v716h169l194 -469l209 469h155v-716h-127v531l-189 -421h-113z" />
    <glyph glyph-name="uni041D" unicode="&#x41d;" horiz-adv-x="739" 
d="M534 303h-329v-303h-127v716h127v-306h329v306h127v-716h-127v303z" />
    <glyph glyph-name="uni041E" unicode="&#x41e;" horiz-adv-x="779" 
d="M389 -10c-48.667 0 -94.167 7.99902 -136.5 23.999s-79.166 39.5 -110.499 70.5s-56 69.333 -74 115s-27 98.5 -27 158.5s9 112.833 27 158.5s42.667 84 74 115s68.166 54.5 110.499 70.5s87.833 24 136.5 24c49.333 0 95.166 -7.83301 137.499 -23.5
s79.166 -38.667 110.499 -69s56 -68.333 74 -114s27 -98.5 27 -158.5s-9 -113 -27 -159s-42.667 -84.667 -74 -116s-68.166 -55.166 -110.499 -71.499s-88.166 -24.5 -137.499 -24.5zM389 97.999c30.667 0 59.334 4.66699 86.001 14s49.5 24.333 68.5 45s34 47.5 45 80.5
s16.5 73.167 16.5 120.5s-5.5 87.666 -16.5 120.999s-26 60.333 -45 81s-41.833 35.667 -68.5 45s-55.334 14 -86.001 14s-59 -4.66699 -85 -14s-48.667 -24.333 -68 -45s-34.5 -47.667 -45.5 -81s-16.5 -73.666 -16.5 -120.999s5.5 -87.5 16.5 -120.5
s26.167 -59.833 45.5 -80.5s42 -35.667 68 -45s54.333 -14 85 -14z" />
    <glyph glyph-name="uni041F" unicode="&#x41f;" horiz-adv-x="720" 
d="M516 609h-311v-609h-127v716h565v-716h-127v609z" />
    <glyph glyph-name="uni0420" unicode="&#x420;" horiz-adv-x="606" 
d="M205 609v-241h84c48 0 85.833 9.5 113.5 28.5s41.5 51.5 41.5 97.5c0 40 -13 69.167 -39 87.5s-63.333 27.5 -112 27.5h-88zM205 260l0.00195312 -260h-127v716h215c88 0 156.333 -17.333 205 -52s73 -90 73 -166c0 -42 -6.83301 -78 -20.5 -108
s-32.834 -54.667 -57.501 -74s-54.334 -33.5 -89.001 -42.5s-73 -13.5 -115 -13.5h-84z" />
    <glyph glyph-name="uni0421" unicode="&#x421;" horiz-adv-x="652" 
d="M407 -10c-54 0 -103.5 8.5 -148.5 25.5s-83.667 41.333 -116 73s-57.333 70.167 -75 115.5s-26.5 96.666 -26.5 153.999s8.66699 108.833 26 154.5s41.833 84.334 73.5 116.001s69.5 55.834 113.5 72.501s93 25 147 25c48.667 0 90 -4.83301 124 -14.5
s60.667 -20.167 80 -31.5l-18 -109c-23.333 14 -50 25.5 -80 34.5s-63.667 13.5 -101 13.5c-73.333 0 -130.333 -21.833 -171 -65.5s-61 -108.834 -61 -195.501c0 -87.333 20.833 -152.5 62.5 -195.5s100.834 -64.5 177.501 -64.5c32 0 61 4.16699 87 12.5
s50.667 19.833 74 34.5l33 -100c-18.667 -13.333 -44.834 -25.833 -78.501 -37.5s-74.5 -17.5 -122.5 -17.5z" />
    <glyph glyph-name="uni0422" unicode="&#x422;" horiz-adv-x="596" 
d="M362 608v-608h-128v608h-206v108h541v-108h-207z" />
    <glyph glyph-name="uni0423" unicode="&#x423;" horiz-adv-x="638" 
d="M172 -5c-10.667 0 -20.167 0.666016 -28.5 1.99902s-13.166 2.33301 -14.499 3l-15 114l17.5 -3.5c8.33301 -1.66699 18.166 -2.5 29.499 -2.5c28 0 51 5.5 69 16.5s33.667 27.167 47 48.5l-264 543h138l187 -404l162 404h127l-222 -520
c-14 -33.333 -28.667 -62.666 -44 -87.999s-32.333 -46.333 -51 -63s-39.167 -29.167 -61.5 -37.5s-47.833 -12.5 -76.5 -12.5z" />
    <glyph glyph-name="uni0424" unicode="&#x424;" horiz-adv-x="829" 
d="M351 -10l-0.00195312 88c-44.667 1.33301 -86.167 8 -124.5 20s-71.666 29.667 -99.999 53s-50.5 52 -66.5 86s-24 73.667 -24 119s8 85.166 24 119.499s38.167 63.166 66.5 86.499s61.666 41.166 99.999 53.499s79.833 19.166 124.5 20.499v89h128v-89
c44.667 -1.33301 86.334 -8 125.001 -20s72 -29.667 100 -53s50 -52 66 -86s24 -73.667 24 -119s-8 -85.166 -24 -119.499s-38.167 -63.166 -66.5 -86.499s-61.666 -41.166 -99.999 -53.499s-79.833 -19.166 -124.5 -20.499v-88h-128zM164.998 357
c0 -33.333 4.83301 -61.332 14.5 -83.999s22.834 -41.167 39.501 -55.5s36.334 -24.833 59.001 -31.5s47 -10.667 73 -12v365c-26 -1.33301 -50.333 -5.33301 -73 -12s-42.334 -17.167 -59.001 -31.5s-29.834 -32.833 -39.501 -55.5s-14.5 -50.334 -14.5 -83.001z
M663.998 356.001c0 33.333 -4.66602 61.332 -13.999 83.999s-22.333 41.167 -39 55.5s-36.334 24.833 -59.001 31.5s-47 10.667 -73 12v-365c26.667 1.33301 51.167 5.33301 73.5 12s41.833 17.167 58.5 31.5s29.667 32.833 39 55.5s14 50.334 14 83.001z" />
    <glyph glyph-name="uni0425" unicode="&#x425;" horiz-adv-x="660" 
d="M318 281l-179 -281h-128l244 372l-225 344h145l169 -261l157 261h127l-222 -348l242 -368h-146z" />
    <glyph glyph-name="uni0426" unicode="&#x426;" horiz-adv-x="773" 
d="M628 -171l-10 171h-540v716h127v-614h311v614h127v-614h96v-273h-111z" />
    </font>
</defs>
</svg>
