<svg width="81" height="107" viewBox="0 0 81 107" xmlns="http://www.w3.org/2000/svg"><title>Page 1</title><defs><linearGradient x1="50%" y1="137.838%" x2="50%" y2="-39.406%" id="a"><stop stop-color="#ED1C24" offset="0%"/><stop stop-color="#FFE500" offset="100%"/></linearGradient></defs><g fill="none" fill-rule="evenodd"><path d="M75.406 103.111H5.411a1.959 1.959 0 0 1-1.957-1.956V5.409c0-1.079.878-1.957 1.957-1.957H57.1l20.262 20.254v77.449a1.959 1.959 0 0 1-1.957 1.956M60.556 5.893L74.92 20.254m5.39.506L60.05.506A1.726 1.726 0 0 0 58.83 0H5.41A5.416 5.416 0 0 0 0 5.409v95.746a5.416 5.416 0 0 0 5.41 5.408h69.996a5.416 5.416 0 0 0 5.411-5.408V21.98c0-.458-.182-.897-.506-1.22" fill="#A2B1B8"/><path d="M55.858 30.45h-30.3a.574.574 0 0 1 0-1.148h30.3a.575.575 0 0 1 0 1.148zm.158 21.335a16.75 16.75 0 0 0 1.432-6.765v-5.983h5.477v3.82c0 4.227-2.902 7.887-6.909 8.928zm-30.616 0c-4.007-1.041-6.908-4.701-6.908-8.929v-3.819h5.476v5.983c0 2.328.493 4.644 1.432 6.765zM40.134 77.47v-8.653a.575.575 0 0 1 1.148 0v8.653c0 .97.23 1.899.672 2.738h-2.492a5.84 5.84 0 0 0 .672-2.738zm.574-12.406a1.658 1.658 0 0 1-1.656-1.656c0-.913.743-1.655 1.656-1.655.913 0 1.656.742 1.656 1.655s-.743 1.656-1.656 1.656zm0-6.49c-7.477 0-13.56-6.08-13.56-13.554V33.629h27.12v11.39c0 7.474-6.083 13.555-13.56 13.555zM30.395 86.698h20.626v-3.311H30.395v3.311zm33.038-50.84h-5.985v-2.583a3.75 3.75 0 0 0-1.59-7.152h-30.3a3.75 3.75 0 1 0-1.59 7.152v2.583h-5.984a2.675 2.675 0 0 0-2.672 2.671v4.327c0 6.76 5.435 12.273 12.166 12.404a16.76 16.76 0 0 0 8.932 5.932 4.782 4.782 0 0 0-.538 2.216c0 1.355.578 2.65 1.57 3.561-.32.56-.488 1.19-.488 1.848v8.653a2.74 2.74 0 0 1-2.739 2.738h-4.328a2.675 2.675 0 0 0-2.672 2.671v4.327a2.675 2.675 0 0 0 2.672 2.67h21.642a2.675 2.675 0 0 0 2.673-2.67v-4.327a2.675 2.675 0 0 0-2.673-2.671h-4.328a2.74 2.74 0 0 1-2.738-2.738v-8.653c0-.657-.168-1.287-.488-1.848a4.851 4.851 0 0 0 1.57-3.56c0-.783-.185-1.536-.539-2.217a16.761 16.761 0 0 0 8.933-5.932c6.73-.13 12.166-5.645 12.166-12.404V38.53a2.675 2.675 0 0 0-2.672-2.67z" fill="url(#a)"/></g></svg>