<svg width="81" height="107" viewBox="0 0 81 107" xmlns="http://www.w3.org/2000/svg"><title>Page 1</title><defs><linearGradient x1="230.538%" y1="-91.269%" x2="230.538%" y2="195.304%" id="a"><stop stop-color="#FFE500" offset="0%"/><stop stop-color="#00AC4E" offset="100%"/></linearGradient></defs><g fill="none" fill-rule="evenodd"><path d="M75.406 103.111H5.411a1.959 1.959 0 0 1-1.957-1.956V5.409c0-1.079.878-1.957 1.957-1.957H57.1v14.846a5.416 5.416 0 0 0 5.411 5.408h14.851v77.449a1.959 1.959 0 0 1-1.957 1.956zM60.556 5.893L74.92 20.254H62.512a1.959 1.959 0 0 1-1.957-1.956V5.893zM80.31 20.76L60.05.506A1.726 1.726 0 0 0 58.83 0H5.41A5.416 5.416 0 0 0 0 5.409v95.746a5.416 5.416 0 0 0 5.41 5.408h69.996a5.416 5.416 0 0 0 5.411-5.408V21.98c0-.458-.182-.897-.506-1.22z" fill="#A2B1B8"/><path d="M18.42 55.123a.115.115 0 0 1-.115.115H14.62a.115.115 0 0 1-.115-.115V51.44c0-.063.051-.115.115-.115h3.684c.063 0 .115.052.115.115v3.683zm-.115-7.25H14.62a3.572 3.572 0 0 0-3.57 3.567v3.683c0 1.967 1.602 3.567 3.57 3.567h3.684c1.968 0 3.569-1.6 3.569-3.567V51.44c0-1.967-1.601-3.567-3.57-3.567zM27.515 51.325h16.578a1.727 1.727 0 1 0 0-3.452H27.515a1.727 1.727 0 1 0 0 3.452M27.515 58.69H51.46a1.727 1.727 0 1 0 0-3.452H27.515a1.727 1.727 0 1 0 0 3.452M18.42 38.552a.115.115 0 0 1-.115.115H14.62a.115.115 0 0 1-.115-.115v-3.683c0-.063.051-.115.115-.115h3.684c.063 0 .115.052.115.115v3.683zm-.115-7.25H14.62a3.572 3.572 0 0 0-3.57 3.567v3.683c0 1.967 1.602 3.567 3.57 3.567h3.684c1.968 0 3.569-1.6 3.569-3.567v-3.683c0-1.967-1.601-3.567-3.57-3.567zM27.515 34.754H51.46a1.727 1.727 0 1 0 0-3.452H27.515a1.727 1.727 0 1 0 0 3.452M68.038 38.667H27.515a1.727 1.727 0 1 0 0 3.452h40.523a1.727 1.727 0 1 0 0-3.452M18.42 21.98a.115.115 0 0 1-.115.115H14.62a.115.115 0 0 1-.115-.115v-3.682c0-.064.051-.115.115-.115h3.684c.063 0 .115.051.115.115v3.682zm-.115-7.25H14.62a3.572 3.572 0 0 0-3.57 3.568v3.682c0 1.967 1.602 3.568 3.57 3.568h3.684c1.968 0 3.569-1.6 3.569-3.568v-3.682c0-1.968-1.601-3.568-3.57-3.568zM27.515 18.183h16.578a1.727 1.727 0 1 0 0-3.453H27.515a1.727 1.727 0 1 0 0 3.453M27.515 25.548H51.46a1.727 1.727 0 1 0 0-3.453H27.515a1.727 1.727 0 1 0 0 3.453M18.42 88.266a.115.115 0 0 1-.115.115H14.62a.115.115 0 0 1-.115-.115v-3.683c0-.063.051-.115.115-.115h3.684c.063 0 .115.052.115.115v3.683zm-.115-7.25H14.62a3.572 3.572 0 0 0-3.57 3.567v3.683c0 1.967 1.602 3.567 3.57 3.567h3.684c1.968 0 3.569-1.6 3.569-3.567v-3.683c0-1.967-1.601-3.567-3.57-3.567zM27.515 84.468h16.578a1.727 1.727 0 1 0 0-3.452H27.515a1.727 1.727 0 1 0 0 3.452M51.46 88.381H27.515a1.727 1.727 0 1 0 0 3.452H51.46a1.727 1.727 0 1 0 0-3.452M18.42 71.694a.115.115 0 0 1-.115.116H14.62a.115.115 0 0 1-.115-.116v-3.682c0-.064.051-.115.115-.115h3.684c.063 0 .115.051.115.115v3.682zm-.115-7.25H14.62a3.572 3.572 0 0 0-3.57 3.568v3.682c0 1.968 1.602 3.568 3.57 3.568h3.684c1.968 0 3.569-1.6 3.569-3.568v-3.682c0-1.967-1.601-3.568-3.57-3.568zM27.515 67.897H51.46a1.727 1.727 0 1 0 0-3.453H27.515a1.727 1.727 0 1 0 0 3.453M68.038 71.81H27.515a1.727 1.727 0 1 0 0 3.452h40.523a1.727 1.727 0 1 0 0-3.452" fill="url(#a)"/></g></svg>