<svg width="102" height="116" viewBox="0 0 102 116" xmlns="http://www.w3.org/2000/svg"><title>Page 1</title><defs><linearGradient x1="88.417%" y1="0%" x2="88.417%" y2="125.163%" id="a"><stop stop-color="#00ABB7" offset="0%"/><stop stop-color="#1C459D" offset="100%"/></linearGradient></defs><g fill="none" fill-rule="evenodd"><path d="M10.205 52.926l-5.21-4.122 3.88-3.432v-4.879l-8.15 6.811a1.911 1.911 0 0 0-.725 1.5v61.203A6 6 0 0 0 5.995 116h89.8a6 6 0 0 0 5.995-5.993V48.804c0-.585-.267-1.137-.726-1.5l-8.379-6.81v4.878l4.11 3.432-5.21 4.122-3.826 3.028-16.906 13.378-4.834 3.826-7.444 5.891a12.33 12.33 0 0 1-15.36 0l-7.444-5.891-4.834-3.826-16.906-13.378-3.826-3.028zM43.216 83.84l.177-.135a16.116 16.116 0 0 0 7.502 1.856c2.575 0 5.15-.621 7.501-1.856l.179.136 35.802 28.333H7.413L43.216 83.84zm-39.39 26.166v-57.25L40.08 81.446 3.833 110.129c-.002-.04-.006-.08-.006-.122zm94.137 0c0 .041-.003.081-.006.122L61.711 81.446l36.252-28.689v57.25z" fill="url(#a)"/><path d="M71.042 5.894l14.366 14.36h-12.41a1.96 1.96 0 0 1-1.956-1.956V5.894zm20.262 45.201V21.98c0-.458-.182-.897-.506-1.22L70.536.506A1.726 1.726 0 0 0 69.315 0H15.897a5.416 5.416 0 0 0-5.41 5.409v45.686l3.453 2.532V5.41c0-1.079.878-1.957 1.957-1.957h51.691v14.846a5.416 5.416 0 0 0 5.41 5.408H87.85v29.46l3.454-2.07z" fill="#A2B1B8"/><path d="M28.906 55.123a.115.115 0 0 1-.115.115h-3.684a.115.115 0 0 1-.115-.115V51.44c0-.063.052-.115.115-.115h3.684c.064 0 .115.052.115.115v3.683zm-.115-7.25h-3.684a3.572 3.572 0 0 0-3.569 3.567v3.683c0 1.967 1.601 3.567 3.57 3.567h3.683c1.968 0 3.57-1.6 3.57-3.567V51.44c0-1.967-1.602-3.567-3.57-3.567zM38.001 51.325H54.58a1.727 1.727 0 1 0 0-3.452H38.001a1.727 1.727 0 1 0 0 3.452M38.001 58.69h23.946a1.727 1.727 0 1 0 0-3.452H38.001a1.727 1.727 0 1 0 0 3.452M28.906 38.552a.115.115 0 0 1-.115.115h-3.684a.115.115 0 0 1-.115-.115v-3.683c0-.063.052-.115.115-.115h3.684c.064 0 .115.052.115.115v3.683zm-.115-7.25h-3.684a3.572 3.572 0 0 0-3.569 3.567v3.683c0 1.967 1.601 3.567 3.57 3.567h3.683c1.968 0 3.57-1.6 3.57-3.567v-3.683c0-1.967-1.602-3.567-3.57-3.567zM38.001 34.754h23.946a1.727 1.727 0 1 0 0-3.452H38.001a1.727 1.727 0 1 0 0 3.452M78.525 38.667H38a1.727 1.727 0 1 0 0 3.452h40.524a1.727 1.727 0 1 0 0-3.452M28.906 21.98a.115.115 0 0 1-.115.115h-3.684a.115.115 0 0 1-.115-.115v-3.682c0-.064.052-.115.115-.115h3.684c.064 0 .115.051.115.115v3.682zm-.115-7.25h-3.684a3.572 3.572 0 0 0-3.569 3.568v3.682c0 1.967 1.601 3.568 3.57 3.568h3.683c1.968 0 3.57-1.6 3.57-3.568v-3.682c0-1.968-1.602-3.568-3.57-3.568zM38.001 18.183H54.58a1.727 1.727 0 1 0 0-3.453H38.001a1.727 1.727 0 1 0 0 3.453M38.001 25.548h23.946a1.727 1.727 0 1 0 0-3.453H38.001a1.727 1.727 0 1 0 0 3.453M38.001 67.897h23.946a1.727 1.727 0 1 0 0-3.453H38.001a1.727 1.727 0 1 0 0 3.453" fill="#A2B1B8"/></g></svg>